<svg width="85" height="84" viewBox="0 0 85 84" fill="none" xmlns="http://www.w3.org/2000/svg">
<g opacity="0.1" clip-path="url(#clip0_270_956)">
<path d="M2.61013 55.3293H82.2881C82.6314 54.3032 82.9345 53.2607 83.1986 52.2007H1.69971C1.96378 53.2607 2.26809 54.3032 2.61013 55.3293Z" fill="#EA4343"/>
<path d="M0.450195 42C0.450195 42.5897 0.465285 43.177 0.489177 43.7605H84.41C84.4338 43.177 84.4489 42.5897 84.4489 42C84.4489 41.5423 84.4389 41.087 84.425 40.6318H0.474088C0.460255 41.087 0.450195 41.5423 0.450195 42Z" fill="#EA4343"/>
<path d="M1.12679 49.5447H83.7725C83.9598 48.5148 84.1082 47.4711 84.2189 46.416H0.681641C0.791042 47.4711 0.940683 48.5148 1.12679 49.5447Z" fill="#EA4343"/>
<path d="M0.642578 37.9758H84.2565C84.1559 36.9208 84.0176 35.8783 83.8403 34.8472H1.05881C0.882758 35.8783 0.743177 36.9208 0.642578 37.9758Z" fill="#EA4343"/>
<path d="M1.60498 32.1916H83.2962C83.0422 31.1328 82.7492 30.0891 82.4173 29.063H2.48396C2.15199 30.0891 1.85773 31.1328 1.60498 32.1916Z" fill="#EA4343"/>
<path d="M8.62539 66.8982H76.2743C77.0187 65.8884 77.7204 64.8459 78.3743 63.7695H6.52539C7.17928 64.8459 7.88096 65.8884 8.62539 66.8982Z" fill="#EA4343"/>
<path d="M13.7734 72.6823H71.126C72.1848 71.6914 73.1946 70.649 74.1465 69.5537H10.7529C11.7048 70.649 12.7146 71.6914 13.7734 72.6823Z" fill="#EA4343"/>
<path d="M21.6009 78.467H63.2991C64.9364 77.5289 66.5032 76.4814 67.9933 75.3384H16.9067C18.3969 76.4814 19.9637 77.5289 21.6009 78.467Z" fill="#EA4343"/>
<path d="M3.44189 26.4069H81.4575C81.0312 25.3419 80.5622 24.2981 80.0529 23.2783H4.84651C4.33722 24.2981 3.86818 25.3419 3.44189 26.4069Z" fill="#EA4343"/>
<path d="M5.0411 61.1135H79.8577C80.3795 60.0949 80.8586 59.05 81.2962 57.9849H3.60254C4.0414 59.05 4.51925 60.0949 5.0411 61.1135Z" fill="#EA4343"/>
<path d="M42.4504 83.9996C47.8512 83.9996 53.012 82.9798 57.7552 81.1226H27.1455C31.8887 82.9798 37.0495 83.9996 42.4504 83.9996Z" fill="#EA4343"/>
<path d="M42.4506 0C36.6812 0 31.1835 1.16443 26.1787 3.26946H58.7224C53.7176 1.16443 48.2199 0 42.4506 0Z" fill="#EA4343"/>
<path d="M10.4185 14.8381H74.4836C73.5568 13.7466 72.576 12.7016 71.5436 11.7095H13.3572C12.3261 12.7016 11.3452 13.7466 10.4185 14.8381Z" fill="#EA4343"/>
<path d="M20.9336 5.92529C19.353 6.87092 17.839 7.91589 16.4004 9.05392H68.4992C67.0619 7.91589 65.5479 6.87092 63.966 5.92529H20.9336Z" fill="#EA4343"/>
<path d="M6.29395 20.6228H78.6069C77.9706 19.5489 77.2878 18.5039 76.561 17.4941H8.33987C7.61305 18.5039 6.93023 19.5489 6.29395 20.6228Z" fill="#EA4343"/>
</g>
<defs>
<clipPath id="clip0_270_956">
<rect width="84" height="84" fill="white" transform="translate(0.450195)"/>
</clipPath>
</defs>
</svg>
