<svg width="108" height="102" viewBox="0 0 108 102" fill="none" xmlns="http://www.w3.org/2000/svg">
<path opacity="0.2" d="M6 12C2.68629 12 0 9.31371 0 6C0 2.68629 2.68629 0 6 0C9.31371 0 12 2.68629 12 6C12 9.31371 9.31371 12 6 12Z" fill="#AE9C9C"/>
<path opacity="0.2" d="M6 27C2.68629 27 0 24.3137 0 21C0 17.6863 2.68629 15 6 15C9.31371 15 12 17.6863 12 21C12 24.3137 9.31371 27 6 27Z" fill="#AE9C9C"/>
<path opacity="0.2" d="M22 42C18.6863 42 16 39.3137 16 36C16 32.6863 18.6863 30 22 30C25.3137 30 28 32.6863 28 36C28 39.3137 25.3137 42 22 42Z" fill="#AE9C9C"/>
<path opacity="0.2" d="M6 42C2.68629 42 0 39.3137 0 36C0 32.6863 2.68629 30 6 30C9.31371 30 12 32.6863 12 36C12 39.3137 9.31371 42 6 42Z" fill="#AE9C9C"/>
<path opacity="0.2" d="M38 57C34.6863 57 32 54.3137 32 51C32 47.6863 34.6863 45 38 45C41.3137 45 44 47.6863 44 51C44 54.3137 41.3137 57 38 57Z" fill="#AE9C9C"/>
<path opacity="0.2" d="M22 57C18.6863 57 16 54.3137 16 51C16 47.6863 18.6863 45 22 45C25.3137 45 28 47.6863 28 51C28 54.3137 25.3137 57 22 57Z" fill="#AE9C9C"/>
<path opacity="0.2" d="M6 57C2.68629 57 0 54.3137 0 51C0 47.6863 2.68629 45 6 45C9.31371 45 12 47.6863 12 51C12 54.3137 9.31371 57 6 57Z" fill="#AE9C9C"/>
<path opacity="0.2" d="M54 72C50.6863 72 48 69.3137 48 66C48 62.6863 50.6863 60 54 60C57.3137 60 60 62.6863 60 66C60 69.3137 57.3137 72 54 72Z" fill="#AE9C9C"/>
<path opacity="0.2" d="M38 72C34.6863 72 32 69.3137 32 66C32 62.6863 34.6863 60 38 60C41.3137 60 44 62.6863 44 66C44 69.3137 41.3137 72 38 72Z" fill="#AE9C9C"/>
<path opacity="0.2" d="M22 72C18.6863 72 16 69.3137 16 66C16 62.6863 18.6863 60 22 60C25.3137 60 28 62.6863 28 66C28 69.3137 25.3137 72 22 72Z" fill="#AE9C9C"/>
<path opacity="0.2" d="M6 72C2.68629 72 0 69.3137 0 66C0 62.6863 2.68629 60 6 60C9.31371 60 12 62.6863 12 66C12 69.3137 9.31371 72 6 72Z" fill="#AE9C9C"/>
<path opacity="0.2" d="M70 87C66.6863 87 64 84.3137 64 81C64 77.6863 66.6863 75 70 75C73.3137 75 76 77.6863 76 81C76 84.3137 73.3137 87 70 87Z" fill="#AE9C9C"/>
<path opacity="0.2" d="M54 87C50.6863 87 48 84.3137 48 81C48 77.6863 50.6863 75 54 75C57.3137 75 60 77.6863 60 81C60 84.3137 57.3137 87 54 87Z" fill="#AE9C9C"/>
<path opacity="0.2" d="M38 87C34.6863 87 32 84.3137 32 81C32 77.6863 34.6863 75 38 75C41.3137 75 44 77.6863 44 81C44 84.3137 41.3137 87 38 87Z" fill="#AE9C9C"/>
<path opacity="0.2" d="M22 87C18.6863 87 16 84.3137 16 81C16 77.6863 18.6863 75 22 75C25.3137 75 28 77.6863 28 81C28 84.3137 25.3137 87 22 87Z" fill="#AE9C9C"/>
<path opacity="0.2" d="M6 87C2.68629 87 0 84.3137 0 81C0 77.6863 2.68629 75 6 75C9.31371 75 12 77.6863 12 81C12 84.3137 9.31371 87 6 87Z" fill="#AE9C9C"/>
<path opacity="0.2" d="M102 102C98.6863 102 96 99.3137 96 96C96 92.6863 98.6863 90 102 90C105.314 90 108 92.6863 108 96C108 99.3137 105.314 102 102 102Z" fill="#AE9C9C"/>
<path opacity="0.2" d="M86 102C82.6863 102 80 99.3137 80 96C80 92.6863 82.6863 90 86 90C89.3137 90 92 92.6863 92 96C92 99.3137 89.3137 102 86 102Z" fill="#AE9C9C"/>
<path opacity="0.2" d="M70 102C66.6863 102 64 99.3137 64 96C64 92.6863 66.6863 90 70 90C73.3137 90 76 92.6863 76 96C76 99.3137 73.3137 102 70 102Z" fill="#AE9C9C"/>
<path opacity="0.2" d="M54 102C50.6863 102 48 99.3137 48 96C48 92.6863 50.6863 90 54 90C57.3137 90 60 92.6863 60 96C60 99.3137 57.3137 102 54 102Z" fill="#AE9C9C"/>
<path opacity="0.2" d="M38 102C34.6863 102 32 99.3137 32 96C32 92.6863 34.6863 90 38 90C41.3137 90 44 92.6863 44 96C44 99.3137 41.3137 102 38 102Z" fill="#AE9C9C"/>
<path opacity="0.2" d="M22 102C18.6863 102 16 99.3137 16 96C16 92.6863 18.6863 90 22 90C25.3137 90 28 92.6863 28 96C28 99.3137 25.3137 102 22 102Z" fill="#AE9C9C"/>
<path opacity="0.2" d="M6 102C2.68629 102 0 99.3137 0 96C0 92.6863 2.68629 90 6 90C9.31371 90 12 92.6863 12 96C12 99.3137 9.31371 102 6 102Z" fill="#AE9C9C"/>
</svg>
