<svg width="91" height="136" viewBox="0 0 91 136" fill="none" xmlns="http://www.w3.org/2000/svg">
<g opacity="0.3">
<mask id="path-1-inside-1_403_8311" fill="white">
<path d="M52.1421 54.8501C53.8824 46.0883 53.7593 36.6622 51.7917 28.0222C49.8242 19.3822 46.1211 12.0071 41.2524 7.03171C36.3837 2.05635 30.6192 -0.243582 24.8458 0.485817C19.0724 1.21522 13.61 4.93353 9.29929 11.0686C4.98854 17.2037 2.06824 25.4155 0.987752 34.4406C-0.0927371 43.4657 0.726456 52.8039 3.31928 61.0183C5.9121 69.2327 10.1349 75.8681 15.3378 79.9035C20.5408 83.9389 26.4356 85.1507 32.1153 83.3524L31.9065 81.6935C26.4561 83.4192 20.7993 82.2563 15.8063 78.3838C10.8134 74.5113 6.76111 68.1438 4.27295 60.261C1.7848 52.3782 0.998675 43.417 2.03555 34.7562C3.07242 26.0955 5.87483 18.2151 10.0116 12.3277C14.1483 6.44027 19.3901 2.87207 24.9305 2.17211C30.4708 1.47216 36.0026 3.67924 40.6748 8.45376C45.3469 13.2283 48.9005 20.3057 50.7887 28.5969C52.6768 36.8881 52.7949 45.9337 51.1249 54.3418L52.1421 54.8501Z"/>
</mask>
<path d="M52.1421 54.8501C53.8824 46.0883 53.7593 36.6622 51.7917 28.0222C49.8242 19.3822 46.1211 12.0071 41.2524 7.03171C36.3837 2.05635 30.6192 -0.243582 24.8458 0.485817C19.0724 1.21522 13.61 4.93353 9.29929 11.0686C4.98854 17.2037 2.06824 25.4155 0.987752 34.4406C-0.0927371 43.4657 0.726456 52.8039 3.31928 61.0183C5.9121 69.2327 10.1349 75.8681 15.3378 79.9035C20.5408 83.9389 26.4356 85.1507 32.1153 83.3524L31.9065 81.6935C26.4561 83.4192 20.7993 82.2563 15.8063 78.3838C10.8134 74.5113 6.76111 68.1438 4.27295 60.261C1.7848 52.3782 0.998675 43.417 2.03555 34.7562C3.07242 26.0955 5.87483 18.2151 10.0116 12.3277C14.1483 6.44027 19.3901 2.87207 24.9305 2.17211C30.4708 1.47216 36.0026 3.67924 40.6748 8.45376C45.3469 13.2283 48.9005 20.3057 50.7887 28.5969C52.6768 36.8881 52.7949 45.9337 51.1249 54.3418L52.1421 54.8501Z" stroke="#F99303" stroke-opacity="0.3" stroke-width="2" mask="url(#path-1-inside-1_403_8311)"/>
</g>
<g opacity="0.3">
<mask id="path-2-inside-2_403_8311" fill="white">
<path d="M74.98 95.2935C76.7203 86.5317 76.5972 77.1055 74.6296 68.4655C72.662 59.8255 68.959 52.4504 64.0903 47.4751C59.2216 42.4997 53.4571 40.1998 47.6837 40.9292C41.9103 41.6586 36.4479 45.3769 32.1372 51.512C27.8264 57.647 24.9061 65.8589 23.8256 74.884C22.7452 83.9091 23.5643 93.2473 26.1572 101.462C28.75 109.676 32.9728 116.311 38.1757 120.347C43.3787 124.382 49.2735 125.594 54.9531 123.796L54.7444 122.137C49.294 123.863 43.6371 122.7 38.6442 118.827C33.6513 114.955 29.599 108.587 27.1108 100.704C24.6227 92.8215 23.8366 83.8603 24.8734 75.1996C25.9103 66.5388 28.7127 58.6585 32.8495 52.771C36.9862 46.8836 42.228 43.3154 47.7683 42.6155C53.3087 41.9155 58.8405 44.1226 63.5127 48.8971C68.1848 53.6716 71.7384 60.749 73.6265 69.0402C75.5147 77.3314 75.6328 86.377 73.9628 94.7852L74.98 95.2935Z"/>
</mask>
<path d="M74.98 95.2935C76.7203 86.5317 76.5972 77.1055 74.6296 68.4655C72.662 59.8255 68.959 52.4504 64.0903 47.4751C59.2216 42.4997 53.4571 40.1998 47.6837 40.9292C41.9103 41.6586 36.4479 45.3769 32.1372 51.512C27.8264 57.647 24.9061 65.8589 23.8256 74.884C22.7452 83.9091 23.5643 93.2473 26.1572 101.462C28.75 109.676 32.9728 116.311 38.1757 120.347C43.3787 124.382 49.2735 125.594 54.9531 123.796L54.7444 122.137C49.294 123.863 43.6371 122.7 38.6442 118.827C33.6513 114.955 29.599 108.587 27.1108 100.704C24.6227 92.8215 23.8366 83.8603 24.8734 75.1996C25.9103 66.5388 28.7127 58.6585 32.8495 52.771C36.9862 46.8836 42.228 43.3154 47.7683 42.6155C53.3087 41.9155 58.8405 44.1226 63.5127 48.8971C68.1848 53.6716 71.7384 60.749 73.6265 69.0402C75.5147 77.3314 75.6328 86.377 73.9628 94.7852L74.98 95.2935Z" stroke="#F99303" stroke-opacity="0.3" stroke-width="2" mask="url(#path-2-inside-2_403_8311)"/>
</g>
<g opacity="0.3">
<mask id="path-3-inside-3_403_8311" fill="white">
<path d="M7.19848 41.3097C6.99845 50.2404 8.74861 59.5035 12.1797 67.6735C15.6107 75.8435 20.5325 82.4677 26.1877 86.5269C31.8429 90.586 37.9182 91.8552 43.4787 90.1391C49.0392 88.423 53.7768 83.8167 56.9625 77.029C60.1482 70.2413 61.6055 61.6483 61.1102 52.5723C60.6148 43.4962 58.1942 34.4401 54.2209 26.7974C50.2476 19.1546 44.9417 13.3488 39.1197 10.2732C33.2976 7.19758 27.2821 7.02268 21.9987 9.77538L22.491 11.3733C27.5611 8.73168 33.3338 8.89952 38.9208 11.8509C44.5078 14.8024 49.5995 20.3739 53.4124 27.7081C57.2254 35.0423 59.5482 43.7329 60.0236 52.4425C60.499 61.1521 59.1005 69.3982 56.0434 75.9119C52.9863 82.4256 48.4399 86.846 43.1039 88.4928C37.7679 90.1396 31.9378 88.9217 26.5109 85.0264C21.084 81.1311 16.3609 74.7743 13.0683 66.9341C9.77581 59.0939 8.0963 50.2048 8.28825 41.6346L7.19848 41.3097Z"/>
</mask>
<path d="M7.19848 41.3097C6.99845 50.2404 8.74861 59.5035 12.1797 67.6735C15.6107 75.8435 20.5325 82.4677 26.1877 86.5269C31.8429 90.586 37.9182 91.8552 43.4787 90.1391C49.0392 88.423 53.7768 83.8167 56.9625 77.029C60.1482 70.2413 61.6055 61.6483 61.1102 52.5723C60.6148 43.4962 58.1942 34.4401 54.2209 26.7974C50.2476 19.1546 44.9417 13.3488 39.1197 10.2732C33.2976 7.19758 27.2821 7.02268 21.9987 9.77538L22.491 11.3733C27.5611 8.73168 33.3338 8.89952 38.9208 11.8509C44.5078 14.8024 49.5995 20.3739 53.4124 27.7081C57.2254 35.0423 59.5482 43.7329 60.0236 52.4425C60.499 61.1521 59.1005 69.3982 56.0434 75.9119C52.9863 82.4256 48.4399 86.846 43.1039 88.4928C37.7679 90.1396 31.9378 88.9217 26.5109 85.0264C21.084 81.1311 16.3609 74.7743 13.0683 66.9341C9.77581 59.0939 8.0963 50.2048 8.28825 41.6346L7.19848 41.3097Z" stroke="#F99303" stroke-opacity="0.3" stroke-width="2" mask="url(#path-3-inside-3_403_8311)"/>
</g>
<g opacity="0.3">
<mask id="path-4-inside-4_403_8311" fill="white">
<path d="M30.0364 81.753C29.8363 90.6838 31.5865 99.9468 35.0175 108.117C38.4486 116.287 43.3704 122.911 49.0256 126.97C54.6808 131.029 60.7561 132.299 66.3166 130.582C71.8771 128.866 76.6147 124.26 79.8004 117.472C82.9861 110.685 84.4434 102.092 83.9481 93.0156C83.4527 83.9396 81.0321 74.8835 77.0588 67.2407C73.0855 59.598 67.7796 53.7921 61.9576 50.7165C56.1355 47.6409 50.12 47.466 44.8365 50.2187L45.3288 51.8166C50.399 49.175 56.1717 49.3429 61.7587 52.2943C67.3457 55.2457 72.4374 60.8172 76.2503 68.1514C80.0633 75.4857 82.3861 84.1762 82.8615 92.8858C83.3369 101.595 81.9384 109.842 78.8813 116.355C75.8242 122.869 71.2778 127.289 65.9418 128.936C60.6058 130.583 54.7757 129.365 49.3488 125.47C43.9219 121.574 39.1988 115.218 35.9062 107.377C32.6137 99.5372 30.9342 90.6481 31.1261 82.0779L30.0364 81.753Z"/>
</mask>
<path d="M30.0364 81.753C29.8363 90.6838 31.5865 99.9468 35.0175 108.117C38.4486 116.287 43.3704 122.911 49.0256 126.97C54.6808 131.029 60.7561 132.299 66.3166 130.582C71.8771 128.866 76.6147 124.26 79.8004 117.472C82.9861 110.685 84.4434 102.092 83.9481 93.0156C83.4527 83.9396 81.0321 74.8835 77.0588 67.2407C73.0855 59.598 67.7796 53.7921 61.9576 50.7165C56.1355 47.6409 50.12 47.466 44.8365 50.2187L45.3288 51.8166C50.399 49.175 56.1717 49.3429 61.7587 52.2943C67.3457 55.2457 72.4374 60.8172 76.2503 68.1514C80.0633 75.4857 82.3861 84.1762 82.8615 92.8858C83.3369 101.595 81.9384 109.842 78.8813 116.355C75.8242 122.869 71.2778 127.289 65.9418 128.936C60.6058 130.583 54.7757 129.365 49.3488 125.47C43.9219 121.574 39.1988 115.218 35.9062 107.377C32.6137 99.5372 30.9342 90.6481 31.1261 82.0779L30.0364 81.753Z" stroke="#F99303" stroke-opacity="0.3" stroke-width="2" mask="url(#path-4-inside-4_403_8311)"/>
</g>
</svg>
