<svg width="68" height="96" viewBox="0 0 68 96" fill="none" xmlns="http://www.w3.org/2000/svg">
<g opacity="0.3">
<mask id="path-1-inside-1_403_8312" fill="white">
<path d="M51.77 55.0845C53.5104 46.3227 53.3873 36.8965 51.4197 28.2565C49.4521 19.6166 45.749 12.2415 40.8804 7.26609C36.0117 2.29073 30.2471 -0.00920707 24.4737 0.720192C18.7003 1.44959 13.238 5.1679 8.92722 11.303C4.61647 17.438 1.69617 25.6499 0.615682 34.675C-0.464807 43.7001 0.354386 53.0383 2.94721 61.2527C5.54003 69.467 9.76281 76.1024 14.9658 80.1379C20.1687 84.1733 26.0635 85.3851 31.7432 83.5868L31.5344 81.9279C26.0841 83.6536 20.4272 82.4907 15.4343 78.6182C10.4413 74.7457 6.38904 68.3781 3.90088 60.4953C1.41273 52.6126 0.626605 43.6513 1.66348 34.9906C2.70035 26.3298 5.50276 18.4495 9.63949 12.5621C13.7762 6.67465 19.018 3.10644 24.5584 2.40649C30.0987 1.70653 35.6306 3.91362 40.3027 8.68814C44.9749 13.4627 48.5284 20.54 50.4166 28.8312C52.3047 37.1224 52.4229 46.1681 50.7528 54.5762L51.77 55.0845Z"/>
</mask>
<path d="M51.77 55.0845C53.5104 46.3227 53.3873 36.8965 51.4197 28.2565C49.4521 19.6166 45.749 12.2415 40.8804 7.26609C36.0117 2.29073 30.2471 -0.00920707 24.4737 0.720192C18.7003 1.44959 13.238 5.1679 8.92722 11.303C4.61647 17.438 1.69617 25.6499 0.615682 34.675C-0.464807 43.7001 0.354386 53.0383 2.94721 61.2527C5.54003 69.467 9.76281 76.1024 14.9658 80.1379C20.1687 84.1733 26.0635 85.3851 31.7432 83.5868L31.5344 81.9279C26.0841 83.6536 20.4272 82.4907 15.4343 78.6182C10.4413 74.7457 6.38904 68.3781 3.90088 60.4953C1.41273 52.6126 0.626605 43.6513 1.66348 34.9906C2.70035 26.3298 5.50276 18.4495 9.63949 12.5621C13.7762 6.67465 19.018 3.10644 24.5584 2.40649C30.0987 1.70653 35.6306 3.91362 40.3027 8.68814C44.9749 13.4627 48.5284 20.54 50.4166 28.8312C52.3047 37.1224 52.4229 46.1681 50.7528 54.5762L51.77 55.0845Z" stroke="#F99303" stroke-opacity="0.3" stroke-width="2" mask="url(#path-1-inside-1_403_8312)"/>
</g>
<g opacity="0.3">
<mask id="path-2-inside-2_403_8312" fill="white">
<path d="M6.82641 41.544C6.62638 50.4748 8.37654 59.7378 11.8076 67.9078C15.2386 76.0778 20.1604 82.7021 25.8156 86.7612C31.4709 90.8204 37.5461 92.0896 43.1066 90.3735C48.6671 88.6574 53.4047 84.051 56.5905 77.2633C59.7762 70.4756 61.2335 61.8827 60.7381 52.8066C60.2427 43.7306 57.8222 34.6745 53.8488 27.0317C49.8755 19.389 44.5696 13.5831 38.7476 10.5075C32.9256 7.43196 26.91 7.25706 21.6266 10.0098L22.1189 11.6076C27.189 8.96605 32.9617 9.13389 38.5487 12.0853C44.1358 15.0368 49.2275 20.6082 53.0404 27.9425C56.8533 35.2767 59.1762 43.9672 59.6515 52.6769C60.1269 61.3865 58.7284 69.6326 55.6713 76.1463C52.6142 82.66 48.0679 87.0803 42.7318 88.7272C37.3958 90.374 31.5658 89.1561 26.1388 85.2608C20.7119 81.3655 15.9888 75.0086 12.6963 67.1684C9.40373 59.3283 7.72423 50.4392 7.91618 41.8689L6.82641 41.544Z"/>
</mask>
<path d="M6.82641 41.544C6.62638 50.4748 8.37654 59.7378 11.8076 67.9078C15.2386 76.0778 20.1604 82.7021 25.8156 86.7612C31.4709 90.8204 37.5461 92.0896 43.1066 90.3735C48.6671 88.6574 53.4047 84.051 56.5905 77.2633C59.7762 70.4756 61.2335 61.8827 60.7381 52.8066C60.2427 43.7306 57.8222 34.6745 53.8488 27.0317C49.8755 19.389 44.5696 13.5831 38.7476 10.5075C32.9256 7.43196 26.91 7.25706 21.6266 10.0098L22.1189 11.6076C27.189 8.96605 32.9617 9.13389 38.5487 12.0853C44.1358 15.0368 49.2275 20.6082 53.0404 27.9425C56.8533 35.2767 59.1762 43.9672 59.6515 52.6769C60.1269 61.3865 58.7284 69.6326 55.6713 76.1463C52.6142 82.66 48.0679 87.0803 42.7318 88.7272C37.3958 90.374 31.5658 89.1561 26.1388 85.2608C20.7119 81.3655 15.9888 75.0086 12.6963 67.1684C9.40373 59.3283 7.72423 50.4392 7.91618 41.8689L6.82641 41.544Z" stroke="#F99303" stroke-opacity="0.3" stroke-width="2" mask="url(#path-2-inside-2_403_8312)"/>
</g>
</svg>
