<svg width="49" height="54" viewBox="0 0 49 54" fill="none" xmlns="http://www.w3.org/2000/svg">
<g opacity="0.1" clip-path="url(#clip0_148_8414)">
<path d="M1.06715 17.196L0.00942167 15.9245L17.4854 1.38672C16.9057 2.4883 16.408 3.6225 15.9915 4.78086L1.06715 17.196Z" fill="#160D01"/>
<path d="M3.37072 19.9658L2.31299 18.6943L15.0308 8.11475C14.8498 8.94268 14.7085 9.77841 14.6077 10.6181L3.37072 19.9658Z" fill="#160D01"/>
<path d="M5.67424 22.7348L4.6165 21.4633L14.4229 13.3057C14.4102 14.0099 14.4255 14.7153 14.4691 15.4186L5.67424 22.7348Z" fill="#160D01"/>
<path d="M7.97803 25.5042L6.9203 24.2327L14.7202 17.7441C14.8156 18.3666 14.9332 18.9859 15.0736 19.6015L7.97803 25.5042Z" fill="#160D01"/>
<path d="M10.2818 28.274L9.2241 27.0025L15.6362 21.6685C15.8138 22.2267 16.011 22.7798 16.2277 23.3278L10.2818 28.274Z" fill="#160D01"/>
<path d="M12.586 31.043L11.5282 29.7715L17.0464 25.1812C17.2928 25.6852 17.5572 26.1823 17.8385 26.6736L12.586 31.043Z" fill="#160D01"/>
<path d="M14.8895 33.8128L13.8318 32.5413L18.8818 28.3403C19.191 28.7942 19.5161 29.2409 19.8576 29.6801L14.8895 33.8128Z" fill="#160D01"/>
<path d="M17.1934 36.582L16.1357 35.3105L21.1111 31.1716C21.4844 31.5843 21.8676 31.9827 22.2618 32.3657L17.1934 36.582Z" fill="#160D01"/>
<path d="M19.497 39.3513L18.4393 38.0798L23.7249 33.6828C24.1604 34.0458 24.6066 34.3917 25.0616 34.7222L19.497 39.3513Z" fill="#160D01"/>
<path d="M21.8013 42.1204L20.7436 40.8489L26.7512 35.8513C27.2555 36.1601 27.7697 36.4496 28.2911 36.7217L21.8013 42.1204Z" fill="#160D01"/>
<path d="M24.1047 44.8898L23.047 43.6183L30.2374 37.6368C30.8232 37.8829 31.4169 38.1062 32.0172 38.3076L24.1047 44.8898Z" fill="#160D01"/>
<path d="M26.4083 47.6593L25.3506 46.3878L34.285 38.9555C34.9771 39.1204 35.6752 39.2577 36.378 39.3658L26.4083 47.6593Z" fill="#160D01"/>
<path d="M28.712 50.4288L27.6543 49.1573L39.0938 39.641C39.9529 39.6843 40.8145 39.6846 41.6764 39.6441L28.712 50.4288Z" fill="#160D01"/>
<path d="M31.016 53.1983L29.9583 51.9268L45.2069 39.2419C46.4726 39.011 47.728 38.6868 48.9625 38.2691L31.016 53.1983Z" fill="#160D01"/>
</g>
<defs>
<clipPath id="clip0_148_8414">
<rect width="23.3443" height="48.4844" fill="white" transform="matrix(-0.768773 0.639522 0.639522 0.768773 17.9556 0.995605)"/>
</clipPath>
</defs>
</svg>
