<svg width="85" height="85" viewBox="0 0 85 85" fill="none" xmlns="http://www.w3.org/2000/svg">
<g opacity="0.1" clip-path="url(#clip0_148_8348)">
<path d="M2.16921 56.3249H81.8472C82.1905 55.2988 82.4936 54.2563 82.7576 53.1963H1.25879C1.52286 54.2563 1.82717 55.2988 2.16921 56.3249Z" fill="#0E0202"/>
<path d="M0.00927734 42.9956C0.00927734 43.5853 0.0243672 44.1726 0.0482594 44.7561H83.969C83.9929 44.1726 84.008 43.5853 84.008 42.9956C84.008 42.5379 83.998 42.0827 83.9841 41.6274H0.0331696C0.0193372 42.0827 0.00927734 42.5379 0.00927734 42.9956Z" fill="#0E0202"/>
<path d="M0.685872 50.5403H83.3315C83.5189 49.5104 83.6673 48.4667 83.7779 47.4116H0.240723C0.350124 48.4667 0.499765 49.5104 0.685872 50.5403Z" fill="#0E0202"/>
<path d="M0.20166 38.9714H83.8156C83.715 37.9164 83.5767 36.8739 83.3994 35.8428H0.617888C0.44184 36.8739 0.302259 37.9164 0.20166 38.9714Z" fill="#0E0202"/>
<path d="M1.16406 33.1872H82.8553C82.6013 32.1284 82.3083 31.0847 81.9763 30.0586H2.04304C1.71107 31.0847 1.41682 32.1284 1.16406 33.1872Z" fill="#0E0202"/>
<path d="M8.18447 67.8938H75.8334C76.5778 66.884 77.2795 65.8415 77.9334 64.7651H6.08447C6.73836 65.8415 7.44004 66.884 8.18447 67.8938Z" fill="#0E0202"/>
<path d="M13.3325 73.6779H70.6851C71.7439 72.687 72.7537 71.6446 73.7056 70.5493H10.312C11.2639 71.6446 12.2737 72.687 13.3325 73.6779Z" fill="#0E0202"/>
<path d="M21.16 79.4626H62.8582C64.4955 78.5245 66.0623 77.477 67.5524 76.334H16.4658C17.9559 77.477 19.5228 78.5245 21.16 79.4626Z" fill="#0E0202"/>
<path d="M3.00098 27.4025H81.0166C80.5903 26.3375 80.1213 25.2937 79.612 24.2739H4.40559C3.89631 25.2937 3.42726 26.3375 3.00098 27.4025Z" fill="#0E0202"/>
<path d="M4.60018 62.1091H79.4168C79.9386 61.0905 80.4177 60.0456 80.8553 58.9805H3.16162C3.60048 60.0456 4.07833 61.0905 4.60018 62.1091Z" fill="#0E0202"/>
<path d="M42.0094 84.9952C47.4103 84.9952 52.571 83.9754 57.3143 82.1182H26.7046C31.4478 83.9754 36.6085 84.9952 42.0094 84.9952Z" fill="#0E0202"/>
<path d="M42.0096 0.995605C36.2403 0.995605 30.7426 2.16004 25.7378 4.26506H58.2815C53.2767 2.16004 47.779 0.995605 42.0096 0.995605Z" fill="#0E0202"/>
<path d="M9.97754 15.8337H74.0427C73.1159 14.7422 72.1351 13.6972 71.1027 12.7051H12.9163C11.8851 13.6972 10.9043 14.7422 9.97754 15.8337Z" fill="#0E0202"/>
<path d="M20.4927 6.9209C18.912 7.86653 17.398 8.9115 15.9595 10.0495H68.0583C66.621 8.9115 65.107 7.86653 63.5251 6.9209H20.4927V6.9209Z" fill="#0E0202"/>
<path d="M5.85303 21.6184H78.166C77.5297 20.5445 76.8469 19.4995 76.12 18.4897H7.89896C7.17213 19.4995 6.48931 20.5445 5.85303 21.6184Z" fill="#0E0202"/>
</g>
<defs>
<clipPath id="clip0_148_8348">
<rect width="84" height="84" fill="white" transform="translate(0.00927734 0.995605)"/>
</clipPath>
</defs>
</svg>
