<svg width="106" height="107" viewBox="0 0 106 107" fill="none" xmlns="http://www.w3.org/2000/svg">
<g opacity="0.1" clip-path="url(#clip0_148_7536)">
<path d="M103.106 66.4473C102.056 66.4473 101.203 67.3061 101.203 68.3629C101.203 69.209 101.748 69.9274 102.503 70.1796C102.598 70.2116 102.697 70.2371 102.801 70.2531C103.188 69.0494 103.531 67.8297 103.829 66.5909C103.734 66.5494 103.636 66.5207 103.534 66.4984C103.398 66.4632 103.255 66.4473 103.106 66.4473Z" fill="#160D01"/>
<path d="M42.1996 3.23051C42.9959 3.23051 43.6811 2.73563 43.9634 2.03641C44.0078 1.92786 44.0395 1.81611 44.0649 1.70117C42.9039 1.89274 41.7555 2.12262 40.623 2.38762C40.6865 2.4834 40.7626 2.57599 40.8451 2.659C41.1909 3.0134 41.6699 3.23051 42.1996 3.23051Z" fill="#160D01"/>
<path d="M45.3813 1.49987C45.3909 1.60842 45.4099 1.71059 45.4384 1.80957C45.6542 2.62692 46.3965 3.23035 47.2752 3.23035C48.2871 3.23035 49.115 2.43216 49.1721 1.42963C49.1785 1.39132 49.1785 1.353 49.1785 1.31469C49.1785 1.24445 49.1753 1.1774 49.169 1.11035C47.8937 1.19336 46.6312 1.32427 45.3813 1.49987Z" fill="#160D01"/>
<path d="M52.6678 0.995605C51.9319 0.995605 51.1991 1.01157 50.4695 1.0403C50.4536 1.1297 50.4473 1.22229 50.4473 1.31488C50.4473 1.33085 50.4473 1.34681 50.4504 1.36277C50.4726 2.39723 51.3165 3.23055 52.3506 3.23055C53.3911 3.23055 54.2412 2.38446 54.2539 1.34042V1.31488C54.2539 1.21271 54.2476 1.11374 54.2285 1.01795C53.7115 1.00199 53.1912 0.995605 52.6678 0.995605Z" fill="#160D01"/>
<path d="M57.4263 3.2308C58.3367 3.2308 59.098 2.58586 59.2852 1.72701C59.3074 1.62484 59.3201 1.52267 59.3233 1.41412C58.0766 1.25767 56.814 1.14273 55.5388 1.07568C55.5293 1.1555 55.5229 1.23532 55.5229 1.31514C55.5229 1.34068 55.5229 1.36623 55.5261 1.39177C55.5642 2.41345 56.4017 3.2308 57.4263 3.2308Z" fill="#160D01"/>
<path d="M62.5017 3.2304C63.0917 3.2304 63.6183 2.95902 63.9673 2.53757C64.0371 2.45137 64.1005 2.35878 64.1576 2.2598C62.9934 2.00119 61.8134 1.77769 60.6206 1.5957C60.6365 1.71064 60.6618 1.8192 60.6999 1.92775C60.9505 2.68444 61.6643 3.2304 62.5017 3.2304Z" fill="#160D01"/>
<path d="M33.3236 4.68336C32.9873 4.37685 32.54 4.18848 32.0483 4.18848C31.0079 4.18848 30.1609 5.03137 30.145 6.0754V6.10414C30.145 6.20631 30.1514 6.30528 30.1704 6.40107C30.31 7.31739 31.0999 8.0198 32.0483 8.0198C33.0983 8.0198 33.9517 7.16095 33.9517 6.10414C33.9517 5.66034 33.8026 5.25167 33.5488 4.92601C33.4822 4.8398 33.406 4.75679 33.3236 4.68336Z" fill="#160D01"/>
<path d="M37.124 8.0198C38.1752 8.0198 39.0274 7.16213 39.0274 6.10414C39.0274 5.04615 38.1752 4.18848 37.124 4.18848C36.0729 4.18848 35.2207 5.04615 35.2207 6.10414C35.2207 7.16213 36.0729 8.0198 37.124 8.0198Z" fill="#160D01"/>
<path d="M42.1997 8.0198C43.2509 8.0198 44.103 7.16213 44.103 6.10414C44.103 5.04615 43.2509 4.18848 42.1997 4.18848C41.1485 4.18848 40.2964 5.04615 40.2964 6.10414C40.2964 7.16213 41.1485 8.0198 42.1997 8.0198Z" fill="#160D01"/>
<path d="M47.2749 8.0198C48.3261 8.0198 49.1782 7.16213 49.1782 6.10414C49.1782 5.04615 48.3261 4.18848 47.2749 4.18848C46.2237 4.18848 45.3716 5.04615 45.3716 6.10414C45.3716 7.16213 46.2237 8.0198 47.2749 8.0198Z" fill="#160D01"/>
<path d="M52.3506 8.0198C53.4018 8.0198 54.2539 7.16213 54.2539 6.10414C54.2539 5.04615 53.4018 4.18848 52.3506 4.18848C51.2994 4.18848 50.4473 5.04615 50.4473 6.10414C50.4473 7.16213 51.2994 8.0198 52.3506 8.0198Z" fill="#160D01"/>
<path d="M57.4263 8.0198C58.4775 8.0198 59.3296 7.16213 59.3296 6.10414C59.3296 5.04615 58.4775 4.18848 57.4263 4.18848C56.3751 4.18848 55.5229 5.04615 55.5229 6.10414C55.5229 7.16213 56.3751 8.0198 57.4263 8.0198Z" fill="#160D01"/>
<path d="M62.5015 8.0198C63.5526 8.0198 64.4048 7.16213 64.4048 6.10414C64.4048 5.04615 63.5526 4.18848 62.5015 4.18848C61.4503 4.18848 60.5981 5.04615 60.5981 6.10414C60.5981 7.16213 61.4503 8.0198 62.5015 8.0198Z" fill="#160D01"/>
<path d="M67.5772 8.0198C68.6283 8.0198 69.4805 7.16213 69.4805 6.10414C69.4805 5.04615 68.6283 4.18848 67.5772 4.18848C66.526 4.18848 65.6738 5.04615 65.6738 6.10414C65.6738 7.16213 66.526 8.0198 67.5772 8.0198Z" fill="#160D01"/>
<path d="M71.587 4.51758C71.4886 4.58463 71.3966 4.66125 71.3142 4.74426C70.9652 5.09228 70.7495 5.57439 70.7495 6.10439C70.7495 7.16119 71.6028 8.02005 72.6528 8.02005C73.6997 8.02005 74.553 7.16439 74.5562 6.11077C74.5562 6.10758 74.5562 6.10758 74.5562 6.10439C74.5562 5.98625 74.5466 5.87131 74.5244 5.76276C73.5601 5.31896 72.5799 4.9039 71.587 4.51758Z" fill="#160D01"/>
<path d="M77.728 8.01965C77.8803 8.01965 78.0294 8.00049 78.1721 7.96537C78.3054 7.93664 78.4323 7.88875 78.5528 7.83128C77.6678 7.32682 76.7669 6.8479 75.8501 6.39453C75.866 6.52863 75.9009 6.65953 75.9484 6.78405C76.2212 7.50562 76.916 8.01965 77.728 8.01965Z" fill="#160D01"/>
<path d="M23.4994 9.86182C22.4431 10.5706 21.4153 11.3145 20.416 12.0968C20.4826 12.1766 20.5524 12.2532 20.6317 12.3234C20.9648 12.6268 21.4089 12.8087 21.8974 12.8087C22.9474 12.8087 23.8008 11.9499 23.8008 10.8931C23.8008 10.6249 23.7468 10.3695 23.6453 10.1364C23.6073 10.0406 23.5565 9.94802 23.4994 9.86182Z" fill="#160D01"/>
<path d="M26.9731 12.8089C28.0243 12.8089 28.8765 11.9512 28.8765 10.8932C28.8765 9.83521 28.0243 8.97754 26.9731 8.97754C25.922 8.97754 25.0698 9.83521 25.0698 10.8932C25.0698 11.9512 25.922 12.8089 26.9731 12.8089Z" fill="#160D01"/>
<path d="M32.0483 12.8089C33.0995 12.8089 33.9517 11.9512 33.9517 10.8932C33.9517 9.83521 33.0995 8.97754 32.0483 8.97754C30.9972 8.97754 30.145 9.83521 30.145 10.8932C30.145 11.9512 30.9972 12.8089 32.0483 12.8089Z" fill="#160D01"/>
<path d="M37.124 12.8089C38.1752 12.8089 39.0274 11.9512 39.0274 10.8932C39.0274 9.83521 38.1752 8.97754 37.124 8.97754C36.0729 8.97754 35.2207 9.83521 35.2207 10.8932C35.2207 11.9512 36.0729 12.8089 37.124 12.8089Z" fill="#160D01"/>
<path d="M42.1997 12.8089C43.2509 12.8089 44.103 11.9512 44.103 10.8932C44.103 9.83521 43.2509 8.97754 42.1997 8.97754C41.1485 8.97754 40.2964 9.83521 40.2964 10.8932C40.2964 11.9512 41.1485 12.8089 42.1997 12.8089Z" fill="#160D01"/>
<path d="M47.2749 12.8089C48.3261 12.8089 49.1782 11.9512 49.1782 10.8932C49.1782 9.83521 48.3261 8.97754 47.2749 8.97754C46.2237 8.97754 45.3716 9.83521 45.3716 10.8932C45.3716 11.9512 46.2237 12.8089 47.2749 12.8089Z" fill="#160D01"/>
<path d="M52.3506 12.8089C53.4018 12.8089 54.2539 11.9512 54.2539 10.8932C54.2539 9.83521 53.4018 8.97754 52.3506 8.97754C51.2994 8.97754 50.4473 9.83521 50.4473 10.8932C50.4473 11.9512 51.2994 12.8089 52.3506 12.8089Z" fill="#160D01"/>
<path d="M57.4263 12.8089C58.4775 12.8089 59.3296 11.9512 59.3296 10.8932C59.3296 9.83521 58.4775 8.97754 57.4263 8.97754C56.3751 8.97754 55.5229 9.83521 55.5229 10.8932C55.5229 11.9512 56.3751 12.8089 57.4263 12.8089Z" fill="#160D01"/>
<path d="M62.5015 12.8089C63.5526 12.8089 64.4048 11.9512 64.4048 10.8932C64.4048 9.83521 63.5526 8.97754 62.5015 8.97754C61.4503 8.97754 60.5981 9.83521 60.5981 10.8932C60.5981 11.9512 61.4503 12.8089 62.5015 12.8089Z" fill="#160D01"/>
<path d="M67.5772 12.8089C68.6283 12.8089 69.4805 11.9512 69.4805 10.8932C69.4805 9.83521 68.6283 8.97754 67.5772 8.97754C66.526 8.97754 65.6738 9.83521 65.6738 10.8932C65.6738 11.9512 66.526 12.8089 67.5772 12.8089Z" fill="#160D01"/>
<path d="M72.6528 12.8089C73.704 12.8089 74.5562 11.9512 74.5562 10.8932C74.5562 9.83521 73.704 8.97754 72.6528 8.97754C71.6017 8.97754 70.7495 9.83521 70.7495 10.8932C70.7495 11.9512 71.6017 12.8089 72.6528 12.8089Z" fill="#160D01"/>
<path d="M77.7285 12.8089C78.7797 12.8089 79.6319 11.9512 79.6319 10.8932C79.6319 9.83521 78.7797 8.97754 77.7285 8.97754C76.6773 8.97754 75.8252 9.83521 75.8252 10.8932C75.8252 11.9512 76.6773 12.8089 77.7285 12.8089Z" fill="#160D01"/>
<path d="M82.8037 12.8087C83.4286 12.8087 83.9869 12.5022 84.3295 12.0328C84.393 11.9498 84.4469 11.8636 84.4945 11.771C83.4984 11.0048 82.4706 10.2768 81.4175 9.58398C81.3445 9.65742 81.2811 9.74043 81.224 9.82344C81.0178 10.1299 80.9004 10.4971 80.9004 10.893C80.9004 11.9498 81.7537 12.8087 82.8037 12.8087Z" fill="#160D01"/>
<path d="M17.9543 14.1433C17.6402 13.9071 17.2469 13.7666 16.8218 13.7666C15.7718 13.7666 14.9185 14.6255 14.9185 15.6823C14.9185 16.0686 15.0295 16.4262 15.2293 16.7263C15.2833 16.8157 15.353 16.9019 15.426 16.9817C15.7718 17.3617 16.2698 17.5979 16.8218 17.5979C17.8718 17.5979 18.7251 16.7391 18.7251 15.6823C18.7251 15.165 18.5221 14.6957 18.1922 14.3541C18.1192 14.2774 18.0399 14.2072 17.9543 14.1433Z" fill="#160D01"/>
<path d="M21.8975 17.5979C22.9486 17.5979 23.8008 16.7403 23.8008 15.6823C23.8008 14.6243 22.9486 13.7666 21.8975 13.7666C20.8463 13.7666 19.9941 14.6243 19.9941 15.6823C19.9941 16.7403 20.8463 17.5979 21.8975 17.5979Z" fill="#160D01"/>
<path d="M26.9731 17.5979C28.0243 17.5979 28.8765 16.7403 28.8765 15.6823C28.8765 14.6243 28.0243 13.7666 26.9731 13.7666C25.922 13.7666 25.0698 14.6243 25.0698 15.6823C25.0698 16.7403 25.922 17.5979 26.9731 17.5979Z" fill="#160D01"/>
<path d="M32.0483 17.5979C33.0995 17.5979 33.9517 16.7403 33.9517 15.6823C33.9517 14.6243 33.0995 13.7666 32.0483 13.7666C30.9972 13.7666 30.145 14.6243 30.145 15.6823C30.145 16.7403 30.9972 17.5979 32.0483 17.5979Z" fill="#160D01"/>
<path d="M37.124 17.5979C38.1752 17.5979 39.0274 16.7403 39.0274 15.6823C39.0274 14.6243 38.1752 13.7666 37.124 13.7666C36.0729 13.7666 35.2207 14.6243 35.2207 15.6823C35.2207 16.7403 36.0729 17.5979 37.124 17.5979Z" fill="#160D01"/>
<path d="M42.1997 17.5979C43.2509 17.5979 44.103 16.7403 44.103 15.6823C44.103 14.6243 43.2509 13.7666 42.1997 13.7666C41.1485 13.7666 40.2964 14.6243 40.2964 15.6823C40.2964 16.7403 41.1485 17.5979 42.1997 17.5979Z" fill="#160D01"/>
<path d="M47.2749 17.5979C48.3261 17.5979 49.1782 16.7403 49.1782 15.6823C49.1782 14.6243 48.3261 13.7666 47.2749 13.7666C46.2237 13.7666 45.3716 14.6243 45.3716 15.6823C45.3716 16.7403 46.2237 17.5979 47.2749 17.5979Z" fill="#160D01"/>
<path d="M52.3506 17.5979C53.4018 17.5979 54.2539 16.7403 54.2539 15.6823C54.2539 14.6243 53.4018 13.7666 52.3506 13.7666C51.2994 13.7666 50.4473 14.6243 50.4473 15.6823C50.4473 16.7403 51.2994 17.5979 52.3506 17.5979Z" fill="#160D01"/>
<path d="M57.4263 17.5979C58.4775 17.5979 59.3296 16.7403 59.3296 15.6823C59.3296 14.6243 58.4775 13.7666 57.4263 13.7666C56.3751 13.7666 55.5229 14.6243 55.5229 15.6823C55.5229 16.7403 56.3751 17.5979 57.4263 17.5979Z" fill="#160D01"/>
<path d="M62.5015 17.5979C63.5526 17.5979 64.4048 16.7403 64.4048 15.6823C64.4048 14.6243 63.5526 13.7666 62.5015 13.7666C61.4503 13.7666 60.5981 14.6243 60.5981 15.6823C60.5981 16.7403 61.4503 17.5979 62.5015 17.5979Z" fill="#160D01"/>
<path d="M67.5772 17.5979C68.6283 17.5979 69.4805 16.7403 69.4805 15.6823C69.4805 14.6243 68.6283 13.7666 67.5772 13.7666C66.526 13.7666 65.6738 14.6243 65.6738 15.6823C65.6738 16.7403 66.526 17.5979 67.5772 17.5979Z" fill="#160D01"/>
<path d="M72.6528 17.5979C73.704 17.5979 74.5562 16.7403 74.5562 15.6823C74.5562 14.6243 73.704 13.7666 72.6528 13.7666C71.6017 13.7666 70.7495 14.6243 70.7495 15.6823C70.7495 16.7403 71.6017 17.5979 72.6528 17.5979Z" fill="#160D01"/>
<path d="M77.7285 17.5979C78.7797 17.5979 79.6319 16.7403 79.6319 15.6823C79.6319 14.6243 78.7797 13.7666 77.7285 13.7666C76.6773 13.7666 75.8252 14.6243 75.8252 15.6823C75.8252 16.7403 76.6773 17.5979 77.7285 17.5979Z" fill="#160D01"/>
<path d="M82.8037 17.5979C83.8549 17.5979 84.707 16.7403 84.707 15.6823C84.707 14.6243 83.8549 13.7666 82.8037 13.7666C81.7525 13.7666 80.9004 14.6243 80.9004 15.6823C80.9004 16.7403 81.7525 17.5979 82.8037 17.5979Z" fill="#160D01"/>
<path d="M87.8794 17.598C88.5931 17.598 89.2181 17.1989 89.5448 16.6114C89.5987 16.5125 89.6463 16.4071 89.6812 16.2985C88.8564 15.478 88.0063 14.683 87.1276 13.9199C87.0261 13.9646 86.9277 14.0189 86.8357 14.0828C86.3187 14.4212 85.9761 15.0118 85.9761 15.6823C85.9761 16.7391 86.8294 17.598 87.8794 17.598Z" fill="#160D01"/>
<path d="M13.0503 19.0796C12.2192 20.0374 11.4198 21.024 10.6553 22.0393C10.7409 22.1032 10.8297 22.1542 10.9249 22.1989C11.1723 22.3203 11.4515 22.3873 11.7465 22.3873C12.7965 22.3873 13.6498 21.5284 13.6498 20.4716C13.6498 20.0374 13.5071 19.6383 13.2628 19.319C13.2026 19.2328 13.1296 19.153 13.0503 19.0796Z" fill="#160D01"/>
<path d="M16.8218 22.387C17.873 22.387 18.7251 21.5293 18.7251 20.4713C18.7251 19.4133 17.873 18.5557 16.8218 18.5557C15.7706 18.5557 14.9185 19.4133 14.9185 20.4713C14.9185 21.5293 15.7706 22.387 16.8218 22.387Z" fill="#160D01"/>
<path d="M21.8975 22.387C22.9486 22.387 23.8008 21.5293 23.8008 20.4713C23.8008 19.4133 22.9486 18.5557 21.8975 18.5557C20.8463 18.5557 19.9941 19.4133 19.9941 20.4713C19.9941 21.5293 20.8463 22.387 21.8975 22.387Z" fill="#160D01"/>
<path d="M26.9731 22.387C28.0243 22.387 28.8765 21.5293 28.8765 20.4713C28.8765 19.4133 28.0243 18.5557 26.9731 18.5557C25.922 18.5557 25.0698 19.4133 25.0698 20.4713C25.0698 21.5293 25.922 22.387 26.9731 22.387Z" fill="#160D01"/>
<path d="M32.0483 22.387C33.0995 22.387 33.9517 21.5293 33.9517 20.4713C33.9517 19.4133 33.0995 18.5557 32.0483 18.5557C30.9972 18.5557 30.145 19.4133 30.145 20.4713C30.145 21.5293 30.9972 22.387 32.0483 22.387Z" fill="#160D01"/>
<path d="M37.124 22.387C38.1752 22.387 39.0274 21.5293 39.0274 20.4713C39.0274 19.4133 38.1752 18.5557 37.124 18.5557C36.0729 18.5557 35.2207 19.4133 35.2207 20.4713C35.2207 21.5293 36.0729 22.387 37.124 22.387Z" fill="#160D01"/>
<path d="M42.1997 22.387C43.2509 22.387 44.103 21.5293 44.103 20.4713C44.103 19.4133 43.2509 18.5557 42.1997 18.5557C41.1485 18.5557 40.2964 19.4133 40.2964 20.4713C40.2964 21.5293 41.1485 22.387 42.1997 22.387Z" fill="#160D01"/>
<path d="M47.2749 22.387C48.3261 22.387 49.1782 21.5293 49.1782 20.4713C49.1782 19.4133 48.3261 18.5557 47.2749 18.5557C46.2237 18.5557 45.3716 19.4133 45.3716 20.4713C45.3716 21.5293 46.2237 22.387 47.2749 22.387Z" fill="#160D01"/>
<path d="M52.3506 22.387C53.4018 22.387 54.2539 21.5293 54.2539 20.4713C54.2539 19.4133 53.4018 18.5557 52.3506 18.5557C51.2994 18.5557 50.4473 19.4133 50.4473 20.4713C50.4473 21.5293 51.2994 22.387 52.3506 22.387Z" fill="#160D01"/>
<path d="M57.4263 22.387C58.4775 22.387 59.3296 21.5293 59.3296 20.4713C59.3296 19.4133 58.4775 18.5557 57.4263 18.5557C56.3751 18.5557 55.5229 19.4133 55.5229 20.4713C55.5229 21.5293 56.3751 22.387 57.4263 22.387Z" fill="#160D01"/>
<path d="M62.5015 22.387C63.5526 22.387 64.4048 21.5293 64.4048 20.4713C64.4048 19.4133 63.5526 18.5557 62.5015 18.5557C61.4503 18.5557 60.5981 19.4133 60.5981 20.4713C60.5981 21.5293 61.4503 22.387 62.5015 22.387Z" fill="#160D01"/>
<path d="M67.5772 22.387C68.6283 22.387 69.4805 21.5293 69.4805 20.4713C69.4805 19.4133 68.6283 18.5557 67.5772 18.5557C66.526 18.5557 65.6738 19.4133 65.6738 20.4713C65.6738 21.5293 66.526 22.387 67.5772 22.387Z" fill="#160D01"/>
<path d="M72.6528 22.387C73.704 22.387 74.5562 21.5293 74.5562 20.4713C74.5562 19.4133 73.704 18.5557 72.6528 18.5557C71.6017 18.5557 70.7495 19.4133 70.7495 20.4713C70.7495 21.5293 71.6017 22.387 72.6528 22.387Z" fill="#160D01"/>
<path d="M77.7285 22.387C78.7797 22.387 79.6319 21.5293 79.6319 20.4713C79.6319 19.4133 78.7797 18.5557 77.7285 18.5557C76.6773 18.5557 75.8252 19.4133 75.8252 20.4713C75.8252 21.5293 76.6773 22.387 77.7285 22.387Z" fill="#160D01"/>
<path d="M82.8037 22.387C83.8549 22.387 84.707 21.5293 84.707 20.4713C84.707 19.4133 83.8549 18.5557 82.8037 18.5557C81.7525 18.5557 80.9004 19.4133 80.9004 20.4713C80.9004 21.5293 81.7525 22.387 82.8037 22.387Z" fill="#160D01"/>
<path d="M87.8794 22.387C88.9306 22.387 89.7827 21.5293 89.7827 20.4713C89.7827 19.4133 88.9306 18.5557 87.8794 18.5557C86.8282 18.5557 85.9761 19.4133 85.9761 20.4713C85.9761 21.5293 86.8282 22.387 87.8794 22.387Z" fill="#160D01"/>
<path d="M92.9551 22.3873C93.4309 22.3873 93.8655 22.2117 94.1986 21.9179C94.2779 21.8509 94.354 21.7743 94.4206 21.6944C93.6593 20.6983 92.8631 19.7309 92.0351 18.7954C91.94 18.8465 91.8512 18.9072 91.7687 18.9742C91.3309 19.3254 91.0518 19.865 91.0518 20.4716C91.0518 21.5284 91.9051 22.3873 92.9551 22.3873Z" fill="#160D01"/>
<path d="M11.7466 27.1765C12.7978 27.1765 13.6499 26.3189 13.6499 25.2609C13.6499 24.2029 12.7978 23.3452 11.7466 23.3452C10.6954 23.3452 9.84326 24.2029 9.84326 25.2609C9.84326 26.3189 10.6954 27.1765 11.7466 27.1765Z" fill="#160D01"/>
<path d="M16.8218 27.1765C17.873 27.1765 18.7251 26.3189 18.7251 25.2609C18.7251 24.2029 17.873 23.3452 16.8218 23.3452C15.7706 23.3452 14.9185 24.2029 14.9185 25.2609C14.9185 26.3189 15.7706 27.1765 16.8218 27.1765Z" fill="#160D01"/>
<path d="M21.8975 27.1765C22.9486 27.1765 23.8008 26.3189 23.8008 25.2609C23.8008 24.2029 22.9486 23.3452 21.8975 23.3452C20.8463 23.3452 19.9941 24.2029 19.9941 25.2609C19.9941 26.3189 20.8463 27.1765 21.8975 27.1765Z" fill="#160D01"/>
<path d="M26.9731 27.1765C28.0243 27.1765 28.8765 26.3189 28.8765 25.2609C28.8765 24.2029 28.0243 23.3452 26.9731 23.3452C25.922 23.3452 25.0698 24.2029 25.0698 25.2609C25.0698 26.3189 25.922 27.1765 26.9731 27.1765Z" fill="#160D01"/>
<path d="M32.0483 27.1765C33.0995 27.1765 33.9517 26.3189 33.9517 25.2609C33.9517 24.2029 33.0995 23.3452 32.0483 23.3452C30.9972 23.3452 30.145 24.2029 30.145 25.2609C30.145 26.3189 30.9972 27.1765 32.0483 27.1765Z" fill="#160D01"/>
<path d="M37.124 27.1765C38.1752 27.1765 39.0274 26.3189 39.0274 25.2609C39.0274 24.2029 38.1752 23.3452 37.124 23.3452C36.0729 23.3452 35.2207 24.2029 35.2207 25.2609C35.2207 26.3189 36.0729 27.1765 37.124 27.1765Z" fill="#160D01"/>
<path d="M42.1997 27.1765C43.2509 27.1765 44.103 26.3189 44.103 25.2609C44.103 24.2029 43.2509 23.3452 42.1997 23.3452C41.1485 23.3452 40.2964 24.2029 40.2964 25.2609C40.2964 26.3189 41.1485 27.1765 42.1997 27.1765Z" fill="#160D01"/>
<path d="M47.2749 27.1765C48.3261 27.1765 49.1782 26.3189 49.1782 25.2609C49.1782 24.2029 48.3261 23.3452 47.2749 23.3452C46.2237 23.3452 45.3716 24.2029 45.3716 25.2609C45.3716 26.3189 46.2237 27.1765 47.2749 27.1765Z" fill="#160D01"/>
<path d="M52.3506 27.1765C53.4018 27.1765 54.2539 26.3189 54.2539 25.2609C54.2539 24.2029 53.4018 23.3452 52.3506 23.3452C51.2994 23.3452 50.4473 24.2029 50.4473 25.2609C50.4473 26.3189 51.2994 27.1765 52.3506 27.1765Z" fill="#160D01"/>
<path d="M57.4263 27.1765C58.4775 27.1765 59.3296 26.3189 59.3296 25.2609C59.3296 24.2029 58.4775 23.3452 57.4263 23.3452C56.3751 23.3452 55.5229 24.2029 55.5229 25.2609C55.5229 26.3189 56.3751 27.1765 57.4263 27.1765Z" fill="#160D01"/>
<path d="M62.5015 27.1765C63.5526 27.1765 64.4048 26.3189 64.4048 25.2609C64.4048 24.2029 63.5526 23.3452 62.5015 23.3452C61.4503 23.3452 60.5981 24.2029 60.5981 25.2609C60.5981 26.3189 61.4503 27.1765 62.5015 27.1765Z" fill="#160D01"/>
<path d="M67.5772 27.1765C68.6283 27.1765 69.4805 26.3189 69.4805 25.2609C69.4805 24.2029 68.6283 23.3452 67.5772 23.3452C66.526 23.3452 65.6738 24.2029 65.6738 25.2609C65.6738 26.3189 66.526 27.1765 67.5772 27.1765Z" fill="#160D01"/>
<path d="M72.6528 27.1765C73.704 27.1765 74.5562 26.3189 74.5562 25.2609C74.5562 24.2029 73.704 23.3452 72.6528 23.3452C71.6017 23.3452 70.7495 24.2029 70.7495 25.2609C70.7495 26.3189 71.6017 27.1765 72.6528 27.1765Z" fill="#160D01"/>
<path d="M77.7285 27.1765C78.7797 27.1765 79.6319 26.3189 79.6319 25.2609C79.6319 24.2029 78.7797 23.3452 77.7285 23.3452C76.6773 23.3452 75.8252 24.2029 75.8252 25.2609C75.8252 26.3189 76.6773 27.1765 77.7285 27.1765Z" fill="#160D01"/>
<path d="M82.8037 27.1765C83.8549 27.1765 84.707 26.3189 84.707 25.2609C84.707 24.2029 83.8549 23.3452 82.8037 23.3452C81.7525 23.3452 80.9004 24.2029 80.9004 25.2609C80.9004 26.3189 81.7525 27.1765 82.8037 27.1765Z" fill="#160D01"/>
<path d="M87.8794 27.1765C88.9306 27.1765 89.7827 26.3189 89.7827 25.2609C89.7827 24.2029 88.9306 23.3452 87.8794 23.3452C86.8282 23.3452 85.9761 24.2029 85.9761 25.2609C85.9761 26.3189 86.8282 27.1765 87.8794 27.1765Z" fill="#160D01"/>
<path d="M92.9551 27.1765C94.0063 27.1765 94.8584 26.3189 94.8584 25.2609C94.8584 24.2029 94.0063 23.3452 92.9551 23.3452C91.9039 23.3452 91.0518 24.2029 91.0518 25.2609C91.0518 26.3189 91.9039 27.1765 92.9551 27.1765Z" fill="#160D01"/>
<path d="M97.7289 27.151C97.8273 27.1669 97.9256 27.1765 98.0303 27.1765C98.0525 27.1765 98.0747 27.1765 98.0937 27.1733C97.5386 26.2219 96.9549 25.2896 96.3427 24.3765C96.2856 24.485 96.238 24.6032 96.2031 24.7245C96.1523 24.8937 96.127 25.0757 96.127 25.2609C96.127 26.2155 96.8217 27.0073 97.7289 27.151Z" fill="#160D01"/>
<path d="M7.02302 28.1662C6.91516 28.147 6.80731 28.1343 6.69311 28.1343H6.6709C5.6209 28.1343 4.76758 28.9931 4.76758 30.0499C4.76758 30.4682 4.90081 30.8577 5.12921 31.1706C5.19265 31.26 5.26561 31.3462 5.34492 31.4228C5.68435 31.7581 6.15383 31.9656 6.6709 31.9656C7.7209 31.9656 8.57422 31.1067 8.57422 30.0499C8.57422 29.1145 7.90489 28.3322 7.02302 28.1662Z" fill="#160D01"/>
<path d="M11.7466 31.9656C12.7978 31.9656 13.6499 31.1079 13.6499 30.0499C13.6499 28.9919 12.7978 28.1343 11.7466 28.1343C10.6954 28.1343 9.84326 28.9919 9.84326 30.0499C9.84326 31.1079 10.6954 31.9656 11.7466 31.9656Z" fill="#160D01"/>
<path d="M16.8218 31.9656C17.873 31.9656 18.7251 31.1079 18.7251 30.0499C18.7251 28.9919 17.873 28.1343 16.8218 28.1343C15.7706 28.1343 14.9185 28.9919 14.9185 30.0499C14.9185 31.1079 15.7706 31.9656 16.8218 31.9656Z" fill="#160D01"/>
<path d="M21.8975 31.9656C22.9486 31.9656 23.8008 31.1079 23.8008 30.0499C23.8008 28.9919 22.9486 28.1343 21.8975 28.1343C20.8463 28.1343 19.9941 28.9919 19.9941 30.0499C19.9941 31.1079 20.8463 31.9656 21.8975 31.9656Z" fill="#160D01"/>
<path d="M26.9731 31.9656C28.0243 31.9656 28.8765 31.1079 28.8765 30.0499C28.8765 28.9919 28.0243 28.1343 26.9731 28.1343C25.922 28.1343 25.0698 28.9919 25.0698 30.0499C25.0698 31.1079 25.922 31.9656 26.9731 31.9656Z" fill="#160D01"/>
<path d="M32.0483 31.9656C33.0995 31.9656 33.9517 31.1079 33.9517 30.0499C33.9517 28.9919 33.0995 28.1343 32.0483 28.1343C30.9972 28.1343 30.145 28.9919 30.145 30.0499C30.145 31.1079 30.9972 31.9656 32.0483 31.9656Z" fill="#160D01"/>
<path d="M37.124 31.9656C38.1752 31.9656 39.0274 31.1079 39.0274 30.0499C39.0274 28.9919 38.1752 28.1343 37.124 28.1343C36.0729 28.1343 35.2207 28.9919 35.2207 30.0499C35.2207 31.1079 36.0729 31.9656 37.124 31.9656Z" fill="#160D01"/>
<path d="M42.1997 31.9656C43.2509 31.9656 44.103 31.1079 44.103 30.0499C44.103 28.9919 43.2509 28.1343 42.1997 28.1343C41.1485 28.1343 40.2964 28.9919 40.2964 30.0499C40.2964 31.1079 41.1485 31.9656 42.1997 31.9656Z" fill="#160D01"/>
<path d="M47.2749 31.9656C48.3261 31.9656 49.1782 31.1079 49.1782 30.0499C49.1782 28.9919 48.3261 28.1343 47.2749 28.1343C46.2237 28.1343 45.3716 28.9919 45.3716 30.0499C45.3716 31.1079 46.2237 31.9656 47.2749 31.9656Z" fill="#160D01"/>
<path d="M52.3506 31.9656C53.4018 31.9656 54.2539 31.1079 54.2539 30.0499C54.2539 28.9919 53.4018 28.1343 52.3506 28.1343C51.2994 28.1343 50.4473 28.9919 50.4473 30.0499C50.4473 31.1079 51.2994 31.9656 52.3506 31.9656Z" fill="#160D01"/>
<path d="M57.4263 31.9656C58.4775 31.9656 59.3296 31.1079 59.3296 30.0499C59.3296 28.9919 58.4775 28.1343 57.4263 28.1343C56.3751 28.1343 55.5229 28.9919 55.5229 30.0499C55.5229 31.1079 56.3751 31.9656 57.4263 31.9656Z" fill="#160D01"/>
<path d="M62.5015 31.9656C63.5526 31.9656 64.4048 31.1079 64.4048 30.0499C64.4048 28.9919 63.5526 28.1343 62.5015 28.1343C61.4503 28.1343 60.5981 28.9919 60.5981 30.0499C60.5981 31.1079 61.4503 31.9656 62.5015 31.9656Z" fill="#160D01"/>
<path d="M67.5772 31.9656C68.6283 31.9656 69.4805 31.1079 69.4805 30.0499C69.4805 28.9919 68.6283 28.1343 67.5772 28.1343C66.526 28.1343 65.6738 28.9919 65.6738 30.0499C65.6738 31.1079 66.526 31.9656 67.5772 31.9656Z" fill="#160D01"/>
<path d="M72.6528 31.9656C73.704 31.9656 74.5562 31.1079 74.5562 30.0499C74.5562 28.9919 73.704 28.1343 72.6528 28.1343C71.6017 28.1343 70.7495 28.9919 70.7495 30.0499C70.7495 31.1079 71.6017 31.9656 72.6528 31.9656Z" fill="#160D01"/>
<path d="M77.7285 31.9656C78.7797 31.9656 79.6319 31.1079 79.6319 30.0499C79.6319 28.9919 78.7797 28.1343 77.7285 28.1343C76.6773 28.1343 75.8252 28.9919 75.8252 30.0499C75.8252 31.1079 76.6773 31.9656 77.7285 31.9656Z" fill="#160D01"/>
<path d="M82.8037 31.9656C83.8549 31.9656 84.707 31.1079 84.707 30.0499C84.707 28.9919 83.8549 28.1343 82.8037 28.1343C81.7525 28.1343 80.9004 28.9919 80.9004 30.0499C80.9004 31.1079 81.7525 31.9656 82.8037 31.9656Z" fill="#160D01"/>
<path d="M87.8794 31.9656C88.9306 31.9656 89.7827 31.1079 89.7827 30.0499C89.7827 28.9919 88.9306 28.1343 87.8794 28.1343C86.8282 28.1343 85.9761 28.9919 85.9761 30.0499C85.9761 31.1079 86.8282 31.9656 87.8794 31.9656Z" fill="#160D01"/>
<path d="M92.9551 31.9656C94.0063 31.9656 94.8584 31.1079 94.8584 30.0499C94.8584 28.9919 94.0063 28.1343 92.9551 28.1343C91.9039 28.1343 91.0518 28.9919 91.0518 30.0499C91.0518 31.1079 91.9039 31.9656 92.9551 31.9656Z" fill="#160D01"/>
<path d="M98.0303 31.9656C98.7789 31.9656 99.426 31.5282 99.7369 30.896C99.8004 30.7715 99.8479 30.6342 99.8797 30.4937C99.5085 29.7402 99.1183 28.9995 98.7155 28.2652V28.262C98.5854 28.2109 98.449 28.1758 98.3063 28.1566C98.2174 28.1407 98.1254 28.1343 98.0303 28.1343C96.9803 28.1343 96.127 28.9931 96.127 30.0499C96.127 31.1067 96.9803 31.9656 98.0303 31.9656Z" fill="#160D01"/>
<path d="M6.6709 36.7547C7.72208 36.7547 8.57422 35.897 8.57422 34.839C8.57422 33.781 7.72208 32.9233 6.6709 32.9233C5.61972 32.9233 4.76758 33.781 4.76758 34.839C4.76758 35.897 5.61972 36.7547 6.6709 36.7547Z" fill="#160D01"/>
<path d="M11.7466 36.7547C12.7978 36.7547 13.6499 35.897 13.6499 34.839C13.6499 33.781 12.7978 32.9233 11.7466 32.9233C10.6954 32.9233 9.84326 33.781 9.84326 34.839C9.84326 35.897 10.6954 36.7547 11.7466 36.7547Z" fill="#160D01"/>
<path d="M16.8218 36.7547C17.873 36.7547 18.7251 35.897 18.7251 34.839C18.7251 33.781 17.873 32.9233 16.8218 32.9233C15.7706 32.9233 14.9185 33.781 14.9185 34.839C14.9185 35.897 15.7706 36.7547 16.8218 36.7547Z" fill="#160D01"/>
<path d="M21.8975 36.7547C22.9486 36.7547 23.8008 35.897 23.8008 34.839C23.8008 33.781 22.9486 32.9233 21.8975 32.9233C20.8463 32.9233 19.9941 33.781 19.9941 34.839C19.9941 35.897 20.8463 36.7547 21.8975 36.7547Z" fill="#160D01"/>
<path d="M26.9731 36.7547C28.0243 36.7547 28.8765 35.897 28.8765 34.839C28.8765 33.781 28.0243 32.9233 26.9731 32.9233C25.922 32.9233 25.0698 33.781 25.0698 34.839C25.0698 35.897 25.922 36.7547 26.9731 36.7547Z" fill="#160D01"/>
<path d="M32.0483 36.7547C33.0995 36.7547 33.9517 35.897 33.9517 34.839C33.9517 33.781 33.0995 32.9233 32.0483 32.9233C30.9972 32.9233 30.145 33.781 30.145 34.839C30.145 35.897 30.9972 36.7547 32.0483 36.7547Z" fill="#160D01"/>
<path d="M37.124 36.7547C38.1752 36.7547 39.0274 35.897 39.0274 34.839C39.0274 33.781 38.1752 32.9233 37.124 32.9233C36.0729 32.9233 35.2207 33.781 35.2207 34.839C35.2207 35.897 36.0729 36.7547 37.124 36.7547Z" fill="#160D01"/>
<path d="M42.1997 36.7547C43.2509 36.7547 44.103 35.897 44.103 34.839C44.103 33.781 43.2509 32.9233 42.1997 32.9233C41.1485 32.9233 40.2964 33.781 40.2964 34.839C40.2964 35.897 41.1485 36.7547 42.1997 36.7547Z" fill="#160D01"/>
<path d="M47.2749 36.7547C48.3261 36.7547 49.1782 35.897 49.1782 34.839C49.1782 33.781 48.3261 32.9233 47.2749 32.9233C46.2237 32.9233 45.3716 33.781 45.3716 34.839C45.3716 35.897 46.2237 36.7547 47.2749 36.7547Z" fill="#160D01"/>
<path d="M52.3506 36.7547C53.4018 36.7547 54.2539 35.897 54.2539 34.839C54.2539 33.781 53.4018 32.9233 52.3506 32.9233C51.2994 32.9233 50.4473 33.781 50.4473 34.839C50.4473 35.897 51.2994 36.7547 52.3506 36.7547Z" fill="#160D01"/>
<path d="M57.4263 36.7547C58.4775 36.7547 59.3296 35.897 59.3296 34.839C59.3296 33.781 58.4775 32.9233 57.4263 32.9233C56.3751 32.9233 55.5229 33.781 55.5229 34.839C55.5229 35.897 56.3751 36.7547 57.4263 36.7547Z" fill="#160D01"/>
<path d="M62.5015 36.7547C63.5526 36.7547 64.4048 35.897 64.4048 34.839C64.4048 33.781 63.5526 32.9233 62.5015 32.9233C61.4503 32.9233 60.5981 33.781 60.5981 34.839C60.5981 35.897 61.4503 36.7547 62.5015 36.7547Z" fill="#160D01"/>
<path d="M67.5772 36.7547C68.6283 36.7547 69.4805 35.897 69.4805 34.839C69.4805 33.781 68.6283 32.9233 67.5772 32.9233C66.526 32.9233 65.6738 33.781 65.6738 34.839C65.6738 35.897 66.526 36.7547 67.5772 36.7547Z" fill="#160D01"/>
<path d="M72.6528 36.7547C73.704 36.7547 74.5562 35.897 74.5562 34.839C74.5562 33.781 73.704 32.9233 72.6528 32.9233C71.6017 32.9233 70.7495 33.781 70.7495 34.839C70.7495 35.897 71.6017 36.7547 72.6528 36.7547Z" fill="#160D01"/>
<path d="M77.7285 36.7547C78.7797 36.7547 79.6319 35.897 79.6319 34.839C79.6319 33.781 78.7797 32.9233 77.7285 32.9233C76.6773 32.9233 75.8252 33.781 75.8252 34.839C75.8252 35.897 76.6773 36.7547 77.7285 36.7547Z" fill="#160D01"/>
<path d="M82.8037 36.7547C83.8549 36.7547 84.707 35.897 84.707 34.839C84.707 33.781 83.8549 32.9233 82.8037 32.9233C81.7525 32.9233 80.9004 33.781 80.9004 34.839C80.9004 35.897 81.7525 36.7547 82.8037 36.7547Z" fill="#160D01"/>
<path d="M87.8794 36.7547C88.9306 36.7547 89.7827 35.897 89.7827 34.839C89.7827 33.781 88.9306 32.9233 87.8794 32.9233C86.8282 32.9233 85.9761 33.781 85.9761 34.839C85.9761 35.897 86.8282 36.7547 87.8794 36.7547Z" fill="#160D01"/>
<path d="M92.9551 36.7547C94.0063 36.7547 94.8584 35.897 94.8584 34.839C94.8584 33.781 94.0063 32.9233 92.9551 32.9233C91.9039 32.9233 91.0518 33.781 91.0518 34.839C91.0518 35.897 91.9039 36.7547 92.9551 36.7547Z" fill="#160D01"/>
<path d="M98.0303 36.7547C99.0814 36.7547 99.9336 35.897 99.9336 34.839C99.9336 33.781 99.0814 32.9233 98.0303 32.9233C96.9791 32.9233 96.127 33.781 96.127 34.839C96.127 35.897 96.9791 36.7547 98.0303 36.7547Z" fill="#160D01"/>
<path d="M2.74032 38.0989C2.65784 38.035 2.56902 37.9776 2.47385 37.9297C2.09636 39.1142 1.76328 40.3179 1.47461 41.5375C1.51268 41.5439 1.55391 41.5439 1.59515 41.5439C1.66177 41.5439 1.72839 41.5407 1.79183 41.5343C2.74984 41.4353 3.49848 40.618 3.49848 39.6282C3.49848 39.0025 3.20029 38.4469 2.74032 38.0989Z" fill="#160D01"/>
<path d="M6.6709 41.5437C7.72208 41.5437 8.57422 40.6861 8.57422 39.6281C8.57422 38.5701 7.72208 37.7124 6.6709 37.7124C5.61972 37.7124 4.76758 38.5701 4.76758 39.6281C4.76758 40.6861 5.61972 41.5437 6.6709 41.5437Z" fill="#160D01"/>
<path d="M11.7466 41.5437C12.7978 41.5437 13.6499 40.6861 13.6499 39.6281C13.6499 38.5701 12.7978 37.7124 11.7466 37.7124C10.6954 37.7124 9.84326 38.5701 9.84326 39.6281C9.84326 40.6861 10.6954 41.5437 11.7466 41.5437Z" fill="#160D01"/>
<path d="M16.8218 41.5437C17.873 41.5437 18.7251 40.6861 18.7251 39.6281C18.7251 38.5701 17.873 37.7124 16.8218 37.7124C15.7706 37.7124 14.9185 38.5701 14.9185 39.6281C14.9185 40.6861 15.7706 41.5437 16.8218 41.5437Z" fill="#160D01"/>
<path d="M21.8975 41.5437C22.9486 41.5437 23.8008 40.6861 23.8008 39.6281C23.8008 38.5701 22.9486 37.7124 21.8975 37.7124C20.8463 37.7124 19.9941 38.5701 19.9941 39.6281C19.9941 40.6861 20.8463 41.5437 21.8975 41.5437Z" fill="#160D01"/>
<path d="M26.9731 41.5437C28.0243 41.5437 28.8765 40.6861 28.8765 39.6281C28.8765 38.5701 28.0243 37.7124 26.9731 37.7124C25.922 37.7124 25.0698 38.5701 25.0698 39.6281C25.0698 40.6861 25.922 41.5437 26.9731 41.5437Z" fill="#160D01"/>
<path d="M32.0483 41.5437C33.0995 41.5437 33.9517 40.6861 33.9517 39.6281C33.9517 38.5701 33.0995 37.7124 32.0483 37.7124C30.9972 37.7124 30.145 38.5701 30.145 39.6281C30.145 40.6861 30.9972 41.5437 32.0483 41.5437Z" fill="#160D01"/>
<path d="M37.124 41.5437C38.1752 41.5437 39.0274 40.6861 39.0274 39.6281C39.0274 38.5701 38.1752 37.7124 37.124 37.7124C36.0729 37.7124 35.2207 38.5701 35.2207 39.6281C35.2207 40.6861 36.0729 41.5437 37.124 41.5437Z" fill="#160D01"/>
<path d="M42.1997 41.5437C43.2509 41.5437 44.103 40.6861 44.103 39.6281C44.103 38.5701 43.2509 37.7124 42.1997 37.7124C41.1485 37.7124 40.2964 38.5701 40.2964 39.6281C40.2964 40.6861 41.1485 41.5437 42.1997 41.5437Z" fill="#160D01"/>
<path d="M47.2749 41.5437C48.3261 41.5437 49.1782 40.6861 49.1782 39.6281C49.1782 38.5701 48.3261 37.7124 47.2749 37.7124C46.2237 37.7124 45.3716 38.5701 45.3716 39.6281C45.3716 40.6861 46.2237 41.5437 47.2749 41.5437Z" fill="#160D01"/>
<path d="M52.3506 41.5437C53.4018 41.5437 54.2539 40.6861 54.2539 39.6281C54.2539 38.5701 53.4018 37.7124 52.3506 37.7124C51.2994 37.7124 50.4473 38.5701 50.4473 39.6281C50.4473 40.6861 51.2994 41.5437 52.3506 41.5437Z" fill="#160D01"/>
<path d="M57.4263 41.5437C58.4775 41.5437 59.3296 40.6861 59.3296 39.6281C59.3296 38.5701 58.4775 37.7124 57.4263 37.7124C56.3751 37.7124 55.5229 38.5701 55.5229 39.6281C55.5229 40.6861 56.3751 41.5437 57.4263 41.5437Z" fill="#160D01"/>
<path d="M62.5015 41.5437C63.5526 41.5437 64.4048 40.6861 64.4048 39.6281C64.4048 38.5701 63.5526 37.7124 62.5015 37.7124C61.4503 37.7124 60.5981 38.5701 60.5981 39.6281C60.5981 40.6861 61.4503 41.5437 62.5015 41.5437Z" fill="#160D01"/>
<path d="M67.5772 41.5437C68.6283 41.5437 69.4805 40.6861 69.4805 39.6281C69.4805 38.5701 68.6283 37.7124 67.5772 37.7124C66.526 37.7124 65.6738 38.5701 65.6738 39.6281C65.6738 40.6861 66.526 41.5437 67.5772 41.5437Z" fill="#160D01"/>
<path d="M72.6528 41.5437C73.704 41.5437 74.5562 40.6861 74.5562 39.6281C74.5562 38.5701 73.704 37.7124 72.6528 37.7124C71.6017 37.7124 70.7495 38.5701 70.7495 39.6281C70.7495 40.6861 71.6017 41.5437 72.6528 41.5437Z" fill="#160D01"/>
<path d="M77.7285 41.5437C78.7797 41.5437 79.6319 40.6861 79.6319 39.6281C79.6319 38.5701 78.7797 37.7124 77.7285 37.7124C76.6773 37.7124 75.8252 38.5701 75.8252 39.6281C75.8252 40.6861 76.6773 41.5437 77.7285 41.5437Z" fill="#160D01"/>
<path d="M82.8037 41.5437C83.8549 41.5437 84.707 40.6861 84.707 39.6281C84.707 38.5701 83.8549 37.7124 82.8037 37.7124C81.7525 37.7124 80.9004 38.5701 80.9004 39.6281C80.9004 40.6861 81.7525 41.5437 82.8037 41.5437Z" fill="#160D01"/>
<path d="M87.8794 41.5437C88.9306 41.5437 89.7827 40.6861 89.7827 39.6281C89.7827 38.5701 88.9306 37.7124 87.8794 37.7124C86.8282 37.7124 85.9761 38.5701 85.9761 39.6281C85.9761 40.6861 86.8282 41.5437 87.8794 41.5437Z" fill="#160D01"/>
<path d="M92.9551 41.5437C94.0063 41.5437 94.8584 40.6861 94.8584 39.6281C94.8584 38.5701 94.0063 37.7124 92.9551 37.7124C91.9039 37.7124 91.0518 38.5701 91.0518 39.6281C91.0518 40.6861 91.9039 41.5437 92.9551 41.5437Z" fill="#160D01"/>
<path d="M98.0303 41.5437C99.0814 41.5437 99.9336 40.6861 99.9336 39.6281C99.9336 38.5701 99.0814 37.7124 98.0303 37.7124C96.9791 37.7124 96.127 38.5701 96.127 39.6281C96.127 40.6861 96.9791 41.5437 98.0303 41.5437Z" fill="#160D01"/>
<path d="M103.106 41.5436C103.255 41.5436 103.398 41.5276 103.534 41.4925C103.636 41.4701 103.734 41.4414 103.829 41.3999L102.801 37.7378C102.697 37.7538 102.598 37.7793 102.503 37.8112C101.748 38.0635 101.203 38.7818 101.203 39.6279C101.203 40.6847 102.056 41.5436 103.106 41.5436Z" fill="#160D01"/>
<path d="M1.59544 42.5015H1.56689C1.45586 42.5047 1.348 42.5142 1.24332 42.5334V42.5366C0.989545 43.6956 0.773835 44.8609 0.596191 46.0454C0.688185 46.1061 0.786524 46.1572 0.891206 46.1955V46.1987C1.11009 46.2849 1.348 46.3328 1.59544 46.3328C2.64544 46.3328 3.49876 45.4739 3.49876 44.4171C3.49876 43.3603 2.64544 42.5015 1.59544 42.5015Z" fill="#160D01"/>
<path d="M6.6709 46.3328C7.72208 46.3328 8.57422 45.4751 8.57422 44.4171C8.57422 43.3591 7.72208 42.5015 6.6709 42.5015C5.61972 42.5015 4.76758 43.3591 4.76758 44.4171C4.76758 45.4751 5.61972 46.3328 6.6709 46.3328Z" fill="#160D01"/>
<path d="M11.7466 46.3328C12.7978 46.3328 13.6499 45.4751 13.6499 44.4171C13.6499 43.3591 12.7978 42.5015 11.7466 42.5015C10.6954 42.5015 9.84326 43.3591 9.84326 44.4171C9.84326 45.4751 10.6954 46.3328 11.7466 46.3328Z" fill="#160D01"/>
<path d="M16.8218 46.3328C17.873 46.3328 18.7251 45.4751 18.7251 44.4171C18.7251 43.3591 17.873 42.5015 16.8218 42.5015C15.7706 42.5015 14.9185 43.3591 14.9185 44.4171C14.9185 45.4751 15.7706 46.3328 16.8218 46.3328Z" fill="#160D01"/>
<path d="M21.8975 46.3328C22.9486 46.3328 23.8008 45.4751 23.8008 44.4171C23.8008 43.3591 22.9486 42.5015 21.8975 42.5015C20.8463 42.5015 19.9941 43.3591 19.9941 44.4171C19.9941 45.4751 20.8463 46.3328 21.8975 46.3328Z" fill="#160D01"/>
<path d="M26.9731 46.3328C28.0243 46.3328 28.8765 45.4751 28.8765 44.4171C28.8765 43.3591 28.0243 42.5015 26.9731 42.5015C25.922 42.5015 25.0698 43.3591 25.0698 44.4171C25.0698 45.4751 25.922 46.3328 26.9731 46.3328Z" fill="#160D01"/>
<path d="M32.0483 46.3328C33.0995 46.3328 33.9517 45.4751 33.9517 44.4171C33.9517 43.3591 33.0995 42.5015 32.0483 42.5015C30.9972 42.5015 30.145 43.3591 30.145 44.4171C30.145 45.4751 30.9972 46.3328 32.0483 46.3328Z" fill="#160D01"/>
<path d="M37.124 46.3328C38.1752 46.3328 39.0274 45.4751 39.0274 44.4171C39.0274 43.3591 38.1752 42.5015 37.124 42.5015C36.0729 42.5015 35.2207 43.3591 35.2207 44.4171C35.2207 45.4751 36.0729 46.3328 37.124 46.3328Z" fill="#160D01"/>
<path d="M42.1997 46.3328C43.2509 46.3328 44.103 45.4751 44.103 44.4171C44.103 43.3591 43.2509 42.5015 42.1997 42.5015C41.1485 42.5015 40.2964 43.3591 40.2964 44.4171C40.2964 45.4751 41.1485 46.3328 42.1997 46.3328Z" fill="#160D01"/>
<path d="M47.2749 46.3328C48.3261 46.3328 49.1782 45.4751 49.1782 44.4171C49.1782 43.3591 48.3261 42.5015 47.2749 42.5015C46.2237 42.5015 45.3716 43.3591 45.3716 44.4171C45.3716 45.4751 46.2237 46.3328 47.2749 46.3328Z" fill="#160D01"/>
<path d="M52.3506 46.3328C53.4018 46.3328 54.2539 45.4751 54.2539 44.4171C54.2539 43.3591 53.4018 42.5015 52.3506 42.5015C51.2994 42.5015 50.4473 43.3591 50.4473 44.4171C50.4473 45.4751 51.2994 46.3328 52.3506 46.3328Z" fill="#160D01"/>
<path d="M57.4263 46.3328C58.4775 46.3328 59.3296 45.4751 59.3296 44.4171C59.3296 43.3591 58.4775 42.5015 57.4263 42.5015C56.3751 42.5015 55.5229 43.3591 55.5229 44.4171C55.5229 45.4751 56.3751 46.3328 57.4263 46.3328Z" fill="#160D01"/>
<path d="M62.5015 46.3328C63.5526 46.3328 64.4048 45.4751 64.4048 44.4171C64.4048 43.3591 63.5526 42.5015 62.5015 42.5015C61.4503 42.5015 60.5981 43.3591 60.5981 44.4171C60.5981 45.4751 61.4503 46.3328 62.5015 46.3328Z" fill="#160D01"/>
<path d="M67.5772 46.3328C68.6283 46.3328 69.4805 45.4751 69.4805 44.4171C69.4805 43.3591 68.6283 42.5015 67.5772 42.5015C66.526 42.5015 65.6738 43.3591 65.6738 44.4171C65.6738 45.4751 66.526 46.3328 67.5772 46.3328Z" fill="#160D01"/>
<path d="M72.6528 46.3328C73.704 46.3328 74.5562 45.4751 74.5562 44.4171C74.5562 43.3591 73.704 42.5015 72.6528 42.5015C71.6017 42.5015 70.7495 43.3591 70.7495 44.4171C70.7495 45.4751 71.6017 46.3328 72.6528 46.3328Z" fill="#160D01"/>
<path d="M77.7285 46.3328C78.7797 46.3328 79.6319 45.4751 79.6319 44.4171C79.6319 43.3591 78.7797 42.5015 77.7285 42.5015C76.6773 42.5015 75.8252 43.3591 75.8252 44.4171C75.8252 45.4751 76.6773 46.3328 77.7285 46.3328Z" fill="#160D01"/>
<path d="M82.8037 46.3328C83.8549 46.3328 84.707 45.4751 84.707 44.4171C84.707 43.3591 83.8549 42.5015 82.8037 42.5015C81.7525 42.5015 80.9004 43.3591 80.9004 44.4171C80.9004 45.4751 81.7525 46.3328 82.8037 46.3328Z" fill="#160D01"/>
<path d="M87.8794 46.3328C88.9306 46.3328 89.7827 45.4751 89.7827 44.4171C89.7827 43.3591 88.9306 42.5015 87.8794 42.5015C86.8282 42.5015 85.9761 43.3591 85.9761 44.4171C85.9761 45.4751 86.8282 46.3328 87.8794 46.3328Z" fill="#160D01"/>
<path d="M92.9551 46.3328C94.0063 46.3328 94.8584 45.4751 94.8584 44.4171C94.8584 43.3591 94.0063 42.5015 92.9551 42.5015C91.9039 42.5015 91.0518 43.3591 91.0518 44.4171C91.0518 45.4751 91.9039 46.3328 92.9551 46.3328Z" fill="#160D01"/>
<path d="M98.0303 46.3328C99.0814 46.3328 99.9336 45.4751 99.9336 44.4171C99.9336 43.3591 99.0814 42.5015 98.0303 42.5015C96.9791 42.5015 96.127 43.3591 96.127 44.4171C96.127 45.4751 96.9791 46.3328 98.0303 46.3328Z" fill="#160D01"/>
<path d="M103.106 46.3328C103.601 46.3328 104.051 46.1444 104.388 45.8315L104.153 42.8176C104.042 42.7409 103.921 42.6803 103.794 42.6324C103.582 42.5462 103.35 42.5015 103.106 42.5015C102.056 42.5015 101.203 43.3603 101.203 44.4171C101.203 45.4739 102.056 46.3328 103.106 46.3328Z" fill="#160D01"/>
<path d="M1.5952 47.2905C1.27798 47.2905 0.979788 47.3672 0.716495 47.5076C0.592779 47.5715 0.475407 47.6513 0.370725 47.7375V47.7407C0.269214 48.6283 0.186737 49.5223 0.126465 50.4258C0.215287 50.5312 0.316797 50.6302 0.424652 50.7132V50.7164C0.748217 50.9718 1.15426 51.1218 1.5952 51.1218C2.6452 51.1218 3.49852 50.263 3.49852 49.2062C3.49852 48.1494 2.6452 47.2905 1.5952 47.2905Z" fill="#160D01"/>
<path d="M6.6709 51.1218C7.72208 51.1218 8.57422 50.2642 8.57422 49.2062C8.57422 48.1482 7.72208 47.2905 6.6709 47.2905C5.61972 47.2905 4.76758 48.1482 4.76758 49.2062C4.76758 50.2642 5.61972 51.1218 6.6709 51.1218Z" fill="#160D01"/>
<path d="M11.7466 51.1218C12.7978 51.1218 13.6499 50.2642 13.6499 49.2062C13.6499 48.1482 12.7978 47.2905 11.7466 47.2905C10.6954 47.2905 9.84326 48.1482 9.84326 49.2062C9.84326 50.2642 10.6954 51.1218 11.7466 51.1218Z" fill="#160D01"/>
<path d="M16.8218 51.1218C17.873 51.1218 18.7251 50.2642 18.7251 49.2062C18.7251 48.1482 17.873 47.2905 16.8218 47.2905C15.7706 47.2905 14.9185 48.1482 14.9185 49.2062C14.9185 50.2642 15.7706 51.1218 16.8218 51.1218Z" fill="#160D01"/>
<path d="M21.8975 51.1218C22.9486 51.1218 23.8008 50.2642 23.8008 49.2062C23.8008 48.1482 22.9486 47.2905 21.8975 47.2905C20.8463 47.2905 19.9941 48.1482 19.9941 49.2062C19.9941 50.2642 20.8463 51.1218 21.8975 51.1218Z" fill="#160D01"/>
<path d="M26.9731 51.1218C28.0243 51.1218 28.8765 50.2642 28.8765 49.2062C28.8765 48.1482 28.0243 47.2905 26.9731 47.2905C25.922 47.2905 25.0698 48.1482 25.0698 49.2062C25.0698 50.2642 25.922 51.1218 26.9731 51.1218Z" fill="#160D01"/>
<path d="M32.0483 51.1218C33.0995 51.1218 33.9517 50.2642 33.9517 49.2062C33.9517 48.1482 33.0995 47.2905 32.0483 47.2905C30.9972 47.2905 30.145 48.1482 30.145 49.2062C30.145 50.2642 30.9972 51.1218 32.0483 51.1218Z" fill="#160D01"/>
<path d="M37.124 51.1218C38.1752 51.1218 39.0274 50.2642 39.0274 49.2062C39.0274 48.1482 38.1752 47.2905 37.124 47.2905C36.0729 47.2905 35.2207 48.1482 35.2207 49.2062C35.2207 50.2642 36.0729 51.1218 37.124 51.1218Z" fill="#160D01"/>
<path d="M42.1997 51.1218C43.2509 51.1218 44.103 50.2642 44.103 49.2062C44.103 48.1482 43.2509 47.2905 42.1997 47.2905C41.1485 47.2905 40.2964 48.1482 40.2964 49.2062C40.2964 50.2642 41.1485 51.1218 42.1997 51.1218Z" fill="#160D01"/>
<path d="M47.2749 51.1218C48.3261 51.1218 49.1782 50.2642 49.1782 49.2062C49.1782 48.1482 48.3261 47.2905 47.2749 47.2905C46.2237 47.2905 45.3716 48.1482 45.3716 49.2062C45.3716 50.2642 46.2237 51.1218 47.2749 51.1218Z" fill="#160D01"/>
<path d="M52.3506 51.1218C53.4018 51.1218 54.2539 50.2642 54.2539 49.2062C54.2539 48.1482 53.4018 47.2905 52.3506 47.2905C51.2994 47.2905 50.4473 48.1482 50.4473 49.2062C50.4473 50.2642 51.2994 51.1218 52.3506 51.1218Z" fill="#160D01"/>
<path d="M57.4263 51.1218C58.4775 51.1218 59.3296 50.2642 59.3296 49.2062C59.3296 48.1482 58.4775 47.2905 57.4263 47.2905C56.3751 47.2905 55.5229 48.1482 55.5229 49.2062C55.5229 50.2642 56.3751 51.1218 57.4263 51.1218Z" fill="#160D01"/>
<path d="M62.5015 51.1218C63.5526 51.1218 64.4048 50.2642 64.4048 49.2062C64.4048 48.1482 63.5526 47.2905 62.5015 47.2905C61.4503 47.2905 60.5981 48.1482 60.5981 49.2062C60.5981 50.2642 61.4503 51.1218 62.5015 51.1218Z" fill="#160D01"/>
<path d="M67.5772 51.1218C68.6283 51.1218 69.4805 50.2642 69.4805 49.2062C69.4805 48.1482 68.6283 47.2905 67.5772 47.2905C66.526 47.2905 65.6738 48.1482 65.6738 49.2062C65.6738 50.2642 66.526 51.1218 67.5772 51.1218Z" fill="#160D01"/>
<path d="M72.6528 51.1218C73.704 51.1218 74.5562 50.2642 74.5562 49.2062C74.5562 48.1482 73.704 47.2905 72.6528 47.2905C71.6017 47.2905 70.7495 48.1482 70.7495 49.2062C70.7495 50.2642 71.6017 51.1218 72.6528 51.1218Z" fill="#160D01"/>
<path d="M77.7285 51.1218C78.7797 51.1218 79.6319 50.2642 79.6319 49.2062C79.6319 48.1482 78.7797 47.2905 77.7285 47.2905C76.6773 47.2905 75.8252 48.1482 75.8252 49.2062C75.8252 50.2642 76.6773 51.1218 77.7285 51.1218Z" fill="#160D01"/>
<path d="M82.8037 51.1218C83.8549 51.1218 84.707 50.2642 84.707 49.2062C84.707 48.1482 83.8549 47.2905 82.8037 47.2905C81.7525 47.2905 80.9004 48.1482 80.9004 49.2062C80.9004 50.2642 81.7525 51.1218 82.8037 51.1218Z" fill="#160D01"/>
<path d="M87.8794 51.1218C88.9306 51.1218 89.7827 50.2642 89.7827 49.2062C89.7827 48.1482 88.9306 47.2905 87.8794 47.2905C86.8282 47.2905 85.9761 48.1482 85.9761 49.2062C85.9761 50.2642 86.8282 51.1218 87.8794 51.1218Z" fill="#160D01"/>
<path d="M92.9551 51.1218C94.0063 51.1218 94.8584 50.2642 94.8584 49.2062C94.8584 48.1482 94.0063 47.2905 92.9551 47.2905C91.9039 47.2905 91.0518 48.1482 91.0518 49.2062C91.0518 50.2642 91.9039 51.1218 92.9551 51.1218Z" fill="#160D01"/>
<path d="M98.0303 51.1218C99.0814 51.1218 99.9336 50.2642 99.9336 49.2062C99.9336 48.1482 99.0814 47.2905 98.0303 47.2905C96.9791 47.2905 96.127 48.1482 96.127 49.2062C96.127 50.2642 96.9791 51.1218 98.0303 51.1218Z" fill="#160D01"/>
<path d="M103.106 51.1218C103.889 51.1218 104.565 50.6429 104.857 49.9597C104.857 49.9565 104.857 49.9565 104.857 49.9565C104.813 49.3531 104.759 48.7496 104.692 48.1494C104.353 47.6322 103.769 47.2905 103.106 47.2905C102.056 47.2905 101.203 48.1494 101.203 49.2062C101.203 50.263 102.056 51.1218 103.106 51.1218Z" fill="#160D01"/>
<path d="M1.59538 52.0801C1.11638 52.0801 0.678613 52.2589 0.345531 52.5526C0.221815 52.6612 0.110788 52.7857 0.018794 52.923C0.0124495 53.2806 0.00927734 53.6382 0.00927734 53.9957C0.00927734 54.3533 0.0124495 54.7109 0.018794 55.0685C0.110788 55.2058 0.221815 55.3303 0.345531 55.4389C0.678613 55.7326 1.11638 55.9114 1.59538 55.9114C2.64538 55.9114 3.4987 55.0525 3.4987 53.9957C3.4987 52.9389 2.64538 52.0801 1.59538 52.0801Z" fill="#160D01"/>
<path d="M6.6709 55.9114C7.72208 55.9114 8.57422 55.0537 8.57422 53.9957C8.57422 52.9377 7.72208 52.0801 6.6709 52.0801C5.61972 52.0801 4.76758 52.9377 4.76758 53.9957C4.76758 55.0537 5.61972 55.9114 6.6709 55.9114Z" fill="#160D01"/>
<path d="M11.7466 55.9114C12.7978 55.9114 13.6499 55.0537 13.6499 53.9957C13.6499 52.9377 12.7978 52.0801 11.7466 52.0801C10.6954 52.0801 9.84326 52.9377 9.84326 53.9957C9.84326 55.0537 10.6954 55.9114 11.7466 55.9114Z" fill="#160D01"/>
<path d="M16.8218 55.9114C17.873 55.9114 18.7251 55.0537 18.7251 53.9957C18.7251 52.9377 17.873 52.0801 16.8218 52.0801C15.7706 52.0801 14.9185 52.9377 14.9185 53.9957C14.9185 55.0537 15.7706 55.9114 16.8218 55.9114Z" fill="#160D01"/>
<path d="M21.8975 55.9114C22.9486 55.9114 23.8008 55.0537 23.8008 53.9957C23.8008 52.9377 22.9486 52.0801 21.8975 52.0801C20.8463 52.0801 19.9941 52.9377 19.9941 53.9957C19.9941 55.0537 20.8463 55.9114 21.8975 55.9114Z" fill="#160D01"/>
<path d="M26.9731 55.9114C28.0243 55.9114 28.8765 55.0537 28.8765 53.9957C28.8765 52.9377 28.0243 52.0801 26.9731 52.0801C25.922 52.0801 25.0698 52.9377 25.0698 53.9957C25.0698 55.0537 25.922 55.9114 26.9731 55.9114Z" fill="#160D01"/>
<path d="M32.0483 55.9114C33.0995 55.9114 33.9517 55.0537 33.9517 53.9957C33.9517 52.9377 33.0995 52.0801 32.0483 52.0801C30.9972 52.0801 30.145 52.9377 30.145 53.9957C30.145 55.0537 30.9972 55.9114 32.0483 55.9114Z" fill="#160D01"/>
<path d="M37.124 55.9114C38.1752 55.9114 39.0274 55.0537 39.0274 53.9957C39.0274 52.9377 38.1752 52.0801 37.124 52.0801C36.0729 52.0801 35.2207 52.9377 35.2207 53.9957C35.2207 55.0537 36.0729 55.9114 37.124 55.9114Z" fill="#160D01"/>
<path d="M42.1997 55.9114C43.2509 55.9114 44.103 55.0537 44.103 53.9957C44.103 52.9377 43.2509 52.0801 42.1997 52.0801C41.1485 52.0801 40.2964 52.9377 40.2964 53.9957C40.2964 55.0537 41.1485 55.9114 42.1997 55.9114Z" fill="#160D01"/>
<path d="M47.2749 55.9114C48.3261 55.9114 49.1782 55.0537 49.1782 53.9957C49.1782 52.9377 48.3261 52.0801 47.2749 52.0801C46.2237 52.0801 45.3716 52.9377 45.3716 53.9957C45.3716 55.0537 46.2237 55.9114 47.2749 55.9114Z" fill="#160D01"/>
<path d="M52.3506 55.9114C53.4018 55.9114 54.2539 55.0537 54.2539 53.9957C54.2539 52.9377 53.4018 52.0801 52.3506 52.0801C51.2994 52.0801 50.4473 52.9377 50.4473 53.9957C50.4473 55.0537 51.2994 55.9114 52.3506 55.9114Z" fill="#160D01"/>
<path d="M57.4263 55.9114C58.4775 55.9114 59.3296 55.0537 59.3296 53.9957C59.3296 52.9377 58.4775 52.0801 57.4263 52.0801C56.3751 52.0801 55.5229 52.9377 55.5229 53.9957C55.5229 55.0537 56.3751 55.9114 57.4263 55.9114Z" fill="#160D01"/>
<path d="M62.5015 55.9114C63.5526 55.9114 64.4048 55.0537 64.4048 53.9957C64.4048 52.9377 63.5526 52.0801 62.5015 52.0801C61.4503 52.0801 60.5981 52.9377 60.5981 53.9957C60.5981 55.0537 61.4503 55.9114 62.5015 55.9114Z" fill="#160D01"/>
<path d="M67.5772 55.9114C68.6283 55.9114 69.4805 55.0537 69.4805 53.9957C69.4805 52.9377 68.6283 52.0801 67.5772 52.0801C66.526 52.0801 65.6738 52.9377 65.6738 53.9957C65.6738 55.0537 66.526 55.9114 67.5772 55.9114Z" fill="#160D01"/>
<path d="M72.6528 55.9114C73.704 55.9114 74.5562 55.0537 74.5562 53.9957C74.5562 52.9377 73.704 52.0801 72.6528 52.0801C71.6017 52.0801 70.7495 52.9377 70.7495 53.9957C70.7495 55.0537 71.6017 55.9114 72.6528 55.9114Z" fill="#160D01"/>
<path d="M77.7285 55.9114C78.7797 55.9114 79.6319 55.0537 79.6319 53.9957C79.6319 52.9377 78.7797 52.0801 77.7285 52.0801C76.6773 52.0801 75.8252 52.9377 75.8252 53.9957C75.8252 55.0537 76.6773 55.9114 77.7285 55.9114Z" fill="#160D01"/>
<path d="M82.8037 55.9114C83.8549 55.9114 84.707 55.0537 84.707 53.9957C84.707 52.9377 83.8549 52.0801 82.8037 52.0801C81.7525 52.0801 80.9004 52.9377 80.9004 53.9957C80.9004 55.0537 81.7525 55.9114 82.8037 55.9114Z" fill="#160D01"/>
<path d="M87.8794 55.9114C88.9306 55.9114 89.7827 55.0537 89.7827 53.9957C89.7827 52.9377 88.9306 52.0801 87.8794 52.0801C86.8282 52.0801 85.9761 52.9377 85.9761 53.9957C85.9761 55.0537 86.8282 55.9114 87.8794 55.9114Z" fill="#160D01"/>
<path d="M92.9551 55.9114C94.0063 55.9114 94.8584 55.0537 94.8584 53.9957C94.8584 52.9377 94.0063 52.0801 92.9551 52.0801C91.9039 52.0801 91.0518 52.9377 91.0518 53.9957C91.0518 55.0537 91.9039 55.9114 92.9551 55.9114Z" fill="#160D01"/>
<path d="M98.0303 55.9114C99.0814 55.9114 99.9336 55.0537 99.9336 53.9957C99.9336 52.9377 99.0814 52.0801 98.0303 52.0801C96.9791 52.0801 96.127 52.9377 96.127 53.9957C96.127 55.0537 96.9791 55.9114 98.0303 55.9114Z" fill="#160D01"/>
<path d="M103.106 55.9114C104.157 55.9114 105.009 55.0537 105.009 53.9957C105.009 52.9377 104.157 52.0801 103.106 52.0801C102.055 52.0801 101.203 52.9377 101.203 53.9957C101.203 55.0537 102.055 55.9114 103.106 55.9114Z" fill="#160D01"/>
<path d="M1.5952 56.8691C1.15426 56.8691 0.748217 57.0192 0.424652 57.2746V57.2778C0.316797 57.3608 0.215287 57.4598 0.126465 57.5652C0.186737 58.4687 0.269214 59.3627 0.370725 60.2503V60.2535C0.475407 60.3397 0.592779 60.4195 0.716495 60.4834C0.979788 60.6239 1.27798 60.7005 1.5952 60.7005C2.6452 60.7005 3.49852 59.8416 3.49852 58.7848C3.49852 57.728 2.6452 56.8691 1.5952 56.8691Z" fill="#160D01"/>
<path d="M6.6709 60.7005C7.72208 60.7005 8.57422 59.8428 8.57422 58.7848C8.57422 57.7268 7.72208 56.8691 6.6709 56.8691C5.61972 56.8691 4.76758 57.7268 4.76758 58.7848C4.76758 59.8428 5.61972 60.7005 6.6709 60.7005Z" fill="#160D01"/>
<path d="M11.7466 60.7005C12.7978 60.7005 13.6499 59.8428 13.6499 58.7848C13.6499 57.7268 12.7978 56.8691 11.7466 56.8691C10.6954 56.8691 9.84326 57.7268 9.84326 58.7848C9.84326 59.8428 10.6954 60.7005 11.7466 60.7005Z" fill="#160D01"/>
<path d="M16.8218 60.7005C17.873 60.7005 18.7251 59.8428 18.7251 58.7848C18.7251 57.7268 17.873 56.8691 16.8218 56.8691C15.7706 56.8691 14.9185 57.7268 14.9185 58.7848C14.9185 59.8428 15.7706 60.7005 16.8218 60.7005Z" fill="#160D01"/>
<path d="M21.8975 60.7005C22.9486 60.7005 23.8008 59.8428 23.8008 58.7848C23.8008 57.7268 22.9486 56.8691 21.8975 56.8691C20.8463 56.8691 19.9941 57.7268 19.9941 58.7848C19.9941 59.8428 20.8463 60.7005 21.8975 60.7005Z" fill="#160D01"/>
<path d="M26.9731 60.7005C28.0243 60.7005 28.8765 59.8428 28.8765 58.7848C28.8765 57.7268 28.0243 56.8691 26.9731 56.8691C25.922 56.8691 25.0698 57.7268 25.0698 58.7848C25.0698 59.8428 25.922 60.7005 26.9731 60.7005Z" fill="#160D01"/>
<path d="M32.0483 60.7005C33.0995 60.7005 33.9517 59.8428 33.9517 58.7848C33.9517 57.7268 33.0995 56.8691 32.0483 56.8691C30.9972 56.8691 30.145 57.7268 30.145 58.7848C30.145 59.8428 30.9972 60.7005 32.0483 60.7005Z" fill="#160D01"/>
<path d="M37.124 60.7005C38.1752 60.7005 39.0274 59.8428 39.0274 58.7848C39.0274 57.7268 38.1752 56.8691 37.124 56.8691C36.0729 56.8691 35.2207 57.7268 35.2207 58.7848C35.2207 59.8428 36.0729 60.7005 37.124 60.7005Z" fill="#160D01"/>
<path d="M42.1997 60.7005C43.2509 60.7005 44.103 59.8428 44.103 58.7848C44.103 57.7268 43.2509 56.8691 42.1997 56.8691C41.1485 56.8691 40.2964 57.7268 40.2964 58.7848C40.2964 59.8428 41.1485 60.7005 42.1997 60.7005Z" fill="#160D01"/>
<path d="M47.2749 60.7005C48.3261 60.7005 49.1782 59.8428 49.1782 58.7848C49.1782 57.7268 48.3261 56.8691 47.2749 56.8691C46.2237 56.8691 45.3716 57.7268 45.3716 58.7848C45.3716 59.8428 46.2237 60.7005 47.2749 60.7005Z" fill="#160D01"/>
<path d="M52.3506 60.7005C53.4018 60.7005 54.2539 59.8428 54.2539 58.7848C54.2539 57.7268 53.4018 56.8691 52.3506 56.8691C51.2994 56.8691 50.4473 57.7268 50.4473 58.7848C50.4473 59.8428 51.2994 60.7005 52.3506 60.7005Z" fill="#160D01"/>
<path d="M57.4263 60.7005C58.4775 60.7005 59.3296 59.8428 59.3296 58.7848C59.3296 57.7268 58.4775 56.8691 57.4263 56.8691C56.3751 56.8691 55.5229 57.7268 55.5229 58.7848C55.5229 59.8428 56.3751 60.7005 57.4263 60.7005Z" fill="#160D01"/>
<path d="M62.5015 60.7005C63.5526 60.7005 64.4048 59.8428 64.4048 58.7848C64.4048 57.7268 63.5526 56.8691 62.5015 56.8691C61.4503 56.8691 60.5981 57.7268 60.5981 58.7848C60.5981 59.8428 61.4503 60.7005 62.5015 60.7005Z" fill="#160D01"/>
<path d="M67.5772 60.7005C68.6283 60.7005 69.4805 59.8428 69.4805 58.7848C69.4805 57.7268 68.6283 56.8691 67.5772 56.8691C66.526 56.8691 65.6738 57.7268 65.6738 58.7848C65.6738 59.8428 66.526 60.7005 67.5772 60.7005Z" fill="#160D01"/>
<path d="M72.6528 60.7005C73.704 60.7005 74.5562 59.8428 74.5562 58.7848C74.5562 57.7268 73.704 56.8691 72.6528 56.8691C71.6017 56.8691 70.7495 57.7268 70.7495 58.7848C70.7495 59.8428 71.6017 60.7005 72.6528 60.7005Z" fill="#160D01"/>
<path d="M77.7285 60.7005C78.7797 60.7005 79.6319 59.8428 79.6319 58.7848C79.6319 57.7268 78.7797 56.8691 77.7285 56.8691C76.6773 56.8691 75.8252 57.7268 75.8252 58.7848C75.8252 59.8428 76.6773 60.7005 77.7285 60.7005Z" fill="#160D01"/>
<path d="M82.8037 60.7005C83.8549 60.7005 84.707 59.8428 84.707 58.7848C84.707 57.7268 83.8549 56.8691 82.8037 56.8691C81.7525 56.8691 80.9004 57.7268 80.9004 58.7848C80.9004 59.8428 81.7525 60.7005 82.8037 60.7005Z" fill="#160D01"/>
<path d="M87.8794 60.7005C88.9306 60.7005 89.7827 59.8428 89.7827 58.7848C89.7827 57.7268 88.9306 56.8691 87.8794 56.8691C86.8282 56.8691 85.9761 57.7268 85.9761 58.7848C85.9761 59.8428 86.8282 60.7005 87.8794 60.7005Z" fill="#160D01"/>
<path d="M92.9551 60.7005C94.0063 60.7005 94.8584 59.8428 94.8584 58.7848C94.8584 57.7268 94.0063 56.8691 92.9551 56.8691C91.9039 56.8691 91.0518 57.7268 91.0518 58.7848C91.0518 59.8428 91.9039 60.7005 92.9551 60.7005Z" fill="#160D01"/>
<path d="M98.0303 60.7005C99.0814 60.7005 99.9336 59.8428 99.9336 58.7848C99.9336 57.7268 99.0814 56.8691 98.0303 56.8691C96.9791 56.8691 96.127 57.7268 96.127 58.7848C96.127 59.8428 96.9791 60.7005 98.0303 60.7005Z" fill="#160D01"/>
<path d="M104.857 58.0313C104.565 57.3481 103.889 56.8691 103.106 56.8691C102.056 56.8691 101.203 57.728 101.203 58.7848C101.203 59.8416 102.056 60.7005 103.106 60.7005C103.769 60.7005 104.353 60.3588 104.692 59.8416C104.895 59.5383 105.009 59.1743 105.009 58.7848C105.009 58.5198 104.955 58.2644 104.857 58.0313C104.857 58.0345 104.857 58.0345 104.857 58.0313Z" fill="#160D01"/>
<path d="M1.59544 61.6582C1.348 61.6582 1.11009 61.7061 0.891206 61.7923V61.7955C0.786524 61.8338 0.688185 61.8849 0.596191 61.9456C0.773835 63.1301 0.989545 64.2954 1.24332 65.4544V65.4576C1.348 65.4767 1.45586 65.4863 1.56689 65.4895H1.59544C2.64544 65.4895 3.49876 64.6307 3.49876 63.5739C3.49876 62.5171 2.64544 61.6582 1.59544 61.6582Z" fill="#160D01"/>
<path d="M6.6709 65.4895C7.72208 65.4895 8.57422 64.6319 8.57422 63.5739C8.57422 62.5159 7.72208 61.6582 6.6709 61.6582C5.61972 61.6582 4.76758 62.5159 4.76758 63.5739C4.76758 64.6319 5.61972 65.4895 6.6709 65.4895Z" fill="#160D01"/>
<path d="M11.7466 65.4895C12.7978 65.4895 13.6499 64.6319 13.6499 63.5739C13.6499 62.5159 12.7978 61.6582 11.7466 61.6582C10.6954 61.6582 9.84326 62.5159 9.84326 63.5739C9.84326 64.6319 10.6954 65.4895 11.7466 65.4895Z" fill="#160D01"/>
<path d="M16.8218 65.4895C17.873 65.4895 18.7251 64.6319 18.7251 63.5739C18.7251 62.5159 17.873 61.6582 16.8218 61.6582C15.7706 61.6582 14.9185 62.5159 14.9185 63.5739C14.9185 64.6319 15.7706 65.4895 16.8218 65.4895Z" fill="#160D01"/>
<path d="M21.8975 65.4895C22.9486 65.4895 23.8008 64.6319 23.8008 63.5739C23.8008 62.5159 22.9486 61.6582 21.8975 61.6582C20.8463 61.6582 19.9941 62.5159 19.9941 63.5739C19.9941 64.6319 20.8463 65.4895 21.8975 65.4895Z" fill="#160D01"/>
<path d="M26.9731 65.4895C28.0243 65.4895 28.8765 64.6319 28.8765 63.5739C28.8765 62.5159 28.0243 61.6582 26.9731 61.6582C25.922 61.6582 25.0698 62.5159 25.0698 63.5739C25.0698 64.6319 25.922 65.4895 26.9731 65.4895Z" fill="#160D01"/>
<path d="M32.0483 65.4895C33.0995 65.4895 33.9517 64.6319 33.9517 63.5739C33.9517 62.5159 33.0995 61.6582 32.0483 61.6582C30.9972 61.6582 30.145 62.5159 30.145 63.5739C30.145 64.6319 30.9972 65.4895 32.0483 65.4895Z" fill="#160D01"/>
<path d="M37.124 65.4895C38.1752 65.4895 39.0274 64.6319 39.0274 63.5739C39.0274 62.5159 38.1752 61.6582 37.124 61.6582C36.0729 61.6582 35.2207 62.5159 35.2207 63.5739C35.2207 64.6319 36.0729 65.4895 37.124 65.4895Z" fill="#160D01"/>
<path d="M42.1997 65.4895C43.2509 65.4895 44.103 64.6319 44.103 63.5739C44.103 62.5159 43.2509 61.6582 42.1997 61.6582C41.1485 61.6582 40.2964 62.5159 40.2964 63.5739C40.2964 64.6319 41.1485 65.4895 42.1997 65.4895Z" fill="#160D01"/>
<path d="M47.2749 65.4895C48.3261 65.4895 49.1782 64.6319 49.1782 63.5739C49.1782 62.5159 48.3261 61.6582 47.2749 61.6582C46.2237 61.6582 45.3716 62.5159 45.3716 63.5739C45.3716 64.6319 46.2237 65.4895 47.2749 65.4895Z" fill="#160D01"/>
<path d="M52.3506 65.4895C53.4018 65.4895 54.2539 64.6319 54.2539 63.5739C54.2539 62.5159 53.4018 61.6582 52.3506 61.6582C51.2994 61.6582 50.4473 62.5159 50.4473 63.5739C50.4473 64.6319 51.2994 65.4895 52.3506 65.4895Z" fill="#160D01"/>
<path d="M57.4263 65.4895C58.4775 65.4895 59.3296 64.6319 59.3296 63.5739C59.3296 62.5159 58.4775 61.6582 57.4263 61.6582C56.3751 61.6582 55.5229 62.5159 55.5229 63.5739C55.5229 64.6319 56.3751 65.4895 57.4263 65.4895Z" fill="#160D01"/>
<path d="M62.5015 65.4895C63.5526 65.4895 64.4048 64.6319 64.4048 63.5739C64.4048 62.5159 63.5526 61.6582 62.5015 61.6582C61.4503 61.6582 60.5981 62.5159 60.5981 63.5739C60.5981 64.6319 61.4503 65.4895 62.5015 65.4895Z" fill="#160D01"/>
<path d="M67.5772 65.4895C68.6283 65.4895 69.4805 64.6319 69.4805 63.5739C69.4805 62.5159 68.6283 61.6582 67.5772 61.6582C66.526 61.6582 65.6738 62.5159 65.6738 63.5739C65.6738 64.6319 66.526 65.4895 67.5772 65.4895Z" fill="#160D01"/>
<path d="M72.6528 65.4895C73.704 65.4895 74.5562 64.6319 74.5562 63.5739C74.5562 62.5159 73.704 61.6582 72.6528 61.6582C71.6017 61.6582 70.7495 62.5159 70.7495 63.5739C70.7495 64.6319 71.6017 65.4895 72.6528 65.4895Z" fill="#160D01"/>
<path d="M77.7285 65.4895C78.7797 65.4895 79.6319 64.6319 79.6319 63.5739C79.6319 62.5159 78.7797 61.6582 77.7285 61.6582C76.6773 61.6582 75.8252 62.5159 75.8252 63.5739C75.8252 64.6319 76.6773 65.4895 77.7285 65.4895Z" fill="#160D01"/>
<path d="M82.8037 65.4895C83.8549 65.4895 84.707 64.6319 84.707 63.5739C84.707 62.5159 83.8549 61.6582 82.8037 61.6582C81.7525 61.6582 80.9004 62.5159 80.9004 63.5739C80.9004 64.6319 81.7525 65.4895 82.8037 65.4895Z" fill="#160D01"/>
<path d="M87.8794 65.4895C88.9306 65.4895 89.7827 64.6319 89.7827 63.5739C89.7827 62.5159 88.9306 61.6582 87.8794 61.6582C86.8282 61.6582 85.9761 62.5159 85.9761 63.5739C85.9761 64.6319 86.8282 65.4895 87.8794 65.4895Z" fill="#160D01"/>
<path d="M92.9551 65.4895C94.0063 65.4895 94.8584 64.6319 94.8584 63.5739C94.8584 62.5159 94.0063 61.6582 92.9551 61.6582C91.9039 61.6582 91.0518 62.5159 91.0518 63.5739C91.0518 64.6319 91.9039 65.4895 92.9551 65.4895Z" fill="#160D01"/>
<path d="M98.0303 65.4895C99.0814 65.4895 99.9336 64.6319 99.9336 63.5739C99.9336 62.5159 99.0814 61.6582 98.0303 61.6582C96.9791 61.6582 96.127 62.5159 96.127 63.5739C96.127 64.6319 96.9791 65.4895 98.0303 65.4895Z" fill="#160D01"/>
<path d="M103.106 61.6582C102.056 61.6582 101.203 62.5171 101.203 63.5739C101.203 64.6307 102.056 65.4895 103.106 65.4895C103.35 65.4895 103.582 65.4448 103.794 65.3586C103.921 65.3107 104.042 65.2501 104.153 65.1734C104.343 64.2795 104.511 63.3759 104.657 62.466C104.581 62.3542 104.489 62.2521 104.388 62.1595C104.051 61.8466 103.601 61.6582 103.106 61.6582Z" fill="#160D01"/>
<path d="M1.79183 66.4568C1.72839 66.4505 1.66177 66.4473 1.59515 66.4473C1.55391 66.4473 1.51268 66.4473 1.47461 66.4537C1.76328 67.6733 2.09636 68.877 2.47385 70.0615C2.56902 70.0136 2.65784 69.9561 2.74032 69.8923C3.20029 69.5443 3.49848 68.9887 3.49848 68.3629C3.49848 67.3732 2.74984 66.5558 1.79183 66.4568Z" fill="#160D01"/>
<path d="M6.6709 70.2786C7.72208 70.2786 8.57422 69.4209 8.57422 68.3629C8.57422 67.3049 7.72208 66.4473 6.6709 66.4473C5.61972 66.4473 4.76758 67.3049 4.76758 68.3629C4.76758 69.4209 5.61972 70.2786 6.6709 70.2786Z" fill="#160D01"/>
<path d="M11.7466 70.2786C12.7978 70.2786 13.6499 69.4209 13.6499 68.3629C13.6499 67.3049 12.7978 66.4473 11.7466 66.4473C10.6954 66.4473 9.84326 67.3049 9.84326 68.3629C9.84326 69.4209 10.6954 70.2786 11.7466 70.2786Z" fill="#160D01"/>
<path d="M16.8218 70.2786C17.873 70.2786 18.7251 69.4209 18.7251 68.3629C18.7251 67.3049 17.873 66.4473 16.8218 66.4473C15.7706 66.4473 14.9185 67.3049 14.9185 68.3629C14.9185 69.4209 15.7706 70.2786 16.8218 70.2786Z" fill="#160D01"/>
<path d="M21.8975 70.2786C22.9486 70.2786 23.8008 69.4209 23.8008 68.3629C23.8008 67.3049 22.9486 66.4473 21.8975 66.4473C20.8463 66.4473 19.9941 67.3049 19.9941 68.3629C19.9941 69.4209 20.8463 70.2786 21.8975 70.2786Z" fill="#160D01"/>
<path d="M26.9731 70.2786C28.0243 70.2786 28.8765 69.4209 28.8765 68.3629C28.8765 67.3049 28.0243 66.4473 26.9731 66.4473C25.922 66.4473 25.0698 67.3049 25.0698 68.3629C25.0698 69.4209 25.922 70.2786 26.9731 70.2786Z" fill="#160D01"/>
<path d="M32.0483 70.2786C33.0995 70.2786 33.9517 69.4209 33.9517 68.3629C33.9517 67.3049 33.0995 66.4473 32.0483 66.4473C30.9972 66.4473 30.145 67.3049 30.145 68.3629C30.145 69.4209 30.9972 70.2786 32.0483 70.2786Z" fill="#160D01"/>
<path d="M37.124 70.2786C38.1752 70.2786 39.0274 69.4209 39.0274 68.3629C39.0274 67.3049 38.1752 66.4473 37.124 66.4473C36.0729 66.4473 35.2207 67.3049 35.2207 68.3629C35.2207 69.4209 36.0729 70.2786 37.124 70.2786Z" fill="#160D01"/>
<path d="M42.1997 70.2786C43.2509 70.2786 44.103 69.4209 44.103 68.3629C44.103 67.3049 43.2509 66.4473 42.1997 66.4473C41.1485 66.4473 40.2964 67.3049 40.2964 68.3629C40.2964 69.4209 41.1485 70.2786 42.1997 70.2786Z" fill="#160D01"/>
<path d="M47.2749 70.2786C48.3261 70.2786 49.1782 69.4209 49.1782 68.3629C49.1782 67.3049 48.3261 66.4473 47.2749 66.4473C46.2237 66.4473 45.3716 67.3049 45.3716 68.3629C45.3716 69.4209 46.2237 70.2786 47.2749 70.2786Z" fill="#160D01"/>
<path d="M52.3506 70.2786C53.4018 70.2786 54.2539 69.4209 54.2539 68.3629C54.2539 67.3049 53.4018 66.4473 52.3506 66.4473C51.2994 66.4473 50.4473 67.3049 50.4473 68.3629C50.4473 69.4209 51.2994 70.2786 52.3506 70.2786Z" fill="#160D01"/>
<path d="M57.4263 70.2786C58.4775 70.2786 59.3296 69.4209 59.3296 68.3629C59.3296 67.3049 58.4775 66.4473 57.4263 66.4473C56.3751 66.4473 55.5229 67.3049 55.5229 68.3629C55.5229 69.4209 56.3751 70.2786 57.4263 70.2786Z" fill="#160D01"/>
<path d="M62.5015 70.2786C63.5526 70.2786 64.4048 69.4209 64.4048 68.3629C64.4048 67.3049 63.5526 66.4473 62.5015 66.4473C61.4503 66.4473 60.5981 67.3049 60.5981 68.3629C60.5981 69.4209 61.4503 70.2786 62.5015 70.2786Z" fill="#160D01"/>
<path d="M67.5772 70.2786C68.6283 70.2786 69.4805 69.4209 69.4805 68.3629C69.4805 67.3049 68.6283 66.4473 67.5772 66.4473C66.526 66.4473 65.6738 67.3049 65.6738 68.3629C65.6738 69.4209 66.526 70.2786 67.5772 70.2786Z" fill="#160D01"/>
<path d="M72.6528 70.2786C73.704 70.2786 74.5562 69.4209 74.5562 68.3629C74.5562 67.3049 73.704 66.4473 72.6528 66.4473C71.6017 66.4473 70.7495 67.3049 70.7495 68.3629C70.7495 69.4209 71.6017 70.2786 72.6528 70.2786Z" fill="#160D01"/>
<path d="M77.7285 70.2786C78.7797 70.2786 79.6319 69.4209 79.6319 68.3629C79.6319 67.3049 78.7797 66.4473 77.7285 66.4473C76.6773 66.4473 75.8252 67.3049 75.8252 68.3629C75.8252 69.4209 76.6773 70.2786 77.7285 70.2786Z" fill="#160D01"/>
<path d="M82.8037 70.2786C83.8549 70.2786 84.707 69.4209 84.707 68.3629C84.707 67.3049 83.8549 66.4473 82.8037 66.4473C81.7525 66.4473 80.9004 67.3049 80.9004 68.3629C80.9004 69.4209 81.7525 70.2786 82.8037 70.2786Z" fill="#160D01"/>
<path d="M87.8794 70.2786C88.9306 70.2786 89.7827 69.4209 89.7827 68.3629C89.7827 67.3049 88.9306 66.4473 87.8794 66.4473C86.8282 66.4473 85.9761 67.3049 85.9761 68.3629C85.9761 69.4209 86.8282 70.2786 87.8794 70.2786Z" fill="#160D01"/>
<path d="M92.9551 70.2786C94.0063 70.2786 94.8584 69.4209 94.8584 68.3629C94.8584 67.3049 94.0063 66.4473 92.9551 66.4473C91.9039 66.4473 91.0518 67.3049 91.0518 68.3629C91.0518 69.4209 91.9039 70.2786 92.9551 70.2786Z" fill="#160D01"/>
<path d="M98.0303 70.2786C99.0814 70.2786 99.9336 69.4209 99.9336 68.3629C99.9336 67.3049 99.0814 66.4473 98.0303 66.4473C96.9791 66.4473 96.127 67.3049 96.127 68.3629C96.127 69.4209 96.9791 70.2786 98.0303 70.2786Z" fill="#160D01"/>
<path d="M6.6709 75.0681C7.72208 75.0681 8.57422 74.2105 8.57422 73.1525C8.57422 72.0945 7.72208 71.2368 6.6709 71.2368C5.61972 71.2368 4.76758 72.0945 4.76758 73.1525C4.76758 74.2105 5.61972 75.0681 6.6709 75.0681Z" fill="#160D01"/>
<path d="M11.7466 75.0681C12.7978 75.0681 13.6499 74.2105 13.6499 73.1525C13.6499 72.0945 12.7978 71.2368 11.7466 71.2368C10.6954 71.2368 9.84326 72.0945 9.84326 73.1525C9.84326 74.2105 10.6954 75.0681 11.7466 75.0681Z" fill="#160D01"/>
<path d="M16.8218 75.0681C17.873 75.0681 18.7251 74.2105 18.7251 73.1525C18.7251 72.0945 17.873 71.2368 16.8218 71.2368C15.7706 71.2368 14.9185 72.0945 14.9185 73.1525C14.9185 74.2105 15.7706 75.0681 16.8218 75.0681Z" fill="#160D01"/>
<path d="M21.8975 75.0681C22.9486 75.0681 23.8008 74.2105 23.8008 73.1525C23.8008 72.0945 22.9486 71.2368 21.8975 71.2368C20.8463 71.2368 19.9941 72.0945 19.9941 73.1525C19.9941 74.2105 20.8463 75.0681 21.8975 75.0681Z" fill="#160D01"/>
<path d="M26.9731 75.0681C28.0243 75.0681 28.8765 74.2105 28.8765 73.1525C28.8765 72.0945 28.0243 71.2368 26.9731 71.2368C25.922 71.2368 25.0698 72.0945 25.0698 73.1525C25.0698 74.2105 25.922 75.0681 26.9731 75.0681Z" fill="#160D01"/>
<path d="M32.0483 75.0681C33.0995 75.0681 33.9517 74.2105 33.9517 73.1525C33.9517 72.0945 33.0995 71.2368 32.0483 71.2368C30.9972 71.2368 30.145 72.0945 30.145 73.1525C30.145 74.2105 30.9972 75.0681 32.0483 75.0681Z" fill="#160D01"/>
<path d="M37.124 75.0681C38.1752 75.0681 39.0274 74.2105 39.0274 73.1525C39.0274 72.0945 38.1752 71.2368 37.124 71.2368C36.0729 71.2368 35.2207 72.0945 35.2207 73.1525C35.2207 74.2105 36.0729 75.0681 37.124 75.0681Z" fill="#160D01"/>
<path d="M42.1997 75.0681C43.2509 75.0681 44.103 74.2105 44.103 73.1525C44.103 72.0945 43.2509 71.2368 42.1997 71.2368C41.1485 71.2368 40.2964 72.0945 40.2964 73.1525C40.2964 74.2105 41.1485 75.0681 42.1997 75.0681Z" fill="#160D01"/>
<path d="M47.2749 75.0681C48.3261 75.0681 49.1782 74.2105 49.1782 73.1525C49.1782 72.0945 48.3261 71.2368 47.2749 71.2368C46.2237 71.2368 45.3716 72.0945 45.3716 73.1525C45.3716 74.2105 46.2237 75.0681 47.2749 75.0681Z" fill="#160D01"/>
<path d="M52.3506 75.0681C53.4018 75.0681 54.2539 74.2105 54.2539 73.1525C54.2539 72.0945 53.4018 71.2368 52.3506 71.2368C51.2994 71.2368 50.4473 72.0945 50.4473 73.1525C50.4473 74.2105 51.2994 75.0681 52.3506 75.0681Z" fill="#160D01"/>
<path d="M57.4263 75.0681C58.4775 75.0681 59.3296 74.2105 59.3296 73.1525C59.3296 72.0945 58.4775 71.2368 57.4263 71.2368C56.3751 71.2368 55.5229 72.0945 55.5229 73.1525C55.5229 74.2105 56.3751 75.0681 57.4263 75.0681Z" fill="#160D01"/>
<path d="M62.5015 75.0681C63.5526 75.0681 64.4048 74.2105 64.4048 73.1525C64.4048 72.0945 63.5526 71.2368 62.5015 71.2368C61.4503 71.2368 60.5981 72.0945 60.5981 73.1525C60.5981 74.2105 61.4503 75.0681 62.5015 75.0681Z" fill="#160D01"/>
<path d="M67.5772 75.0681C68.6283 75.0681 69.4805 74.2105 69.4805 73.1525C69.4805 72.0945 68.6283 71.2368 67.5772 71.2368C66.526 71.2368 65.6738 72.0945 65.6738 73.1525C65.6738 74.2105 66.526 75.0681 67.5772 75.0681Z" fill="#160D01"/>
<path d="M72.6528 75.0681C73.704 75.0681 74.5562 74.2105 74.5562 73.1525C74.5562 72.0945 73.704 71.2368 72.6528 71.2368C71.6017 71.2368 70.7495 72.0945 70.7495 73.1525C70.7495 74.2105 71.6017 75.0681 72.6528 75.0681Z" fill="#160D01"/>
<path d="M77.7285 75.0681C78.7797 75.0681 79.6319 74.2105 79.6319 73.1525C79.6319 72.0945 78.7797 71.2368 77.7285 71.2368C76.6773 71.2368 75.8252 72.0945 75.8252 73.1525C75.8252 74.2105 76.6773 75.0681 77.7285 75.0681Z" fill="#160D01"/>
<path d="M82.8037 75.0681C83.8549 75.0681 84.707 74.2105 84.707 73.1525C84.707 72.0945 83.8549 71.2368 82.8037 71.2368C81.7525 71.2368 80.9004 72.0945 80.9004 73.1525C80.9004 74.2105 81.7525 75.0681 82.8037 75.0681Z" fill="#160D01"/>
<path d="M87.8794 75.0681C88.9306 75.0681 89.7827 74.2105 89.7827 73.1525C89.7827 72.0945 88.9306 71.2368 87.8794 71.2368C86.8282 71.2368 85.9761 72.0945 85.9761 73.1525C85.9761 74.2105 86.8282 75.0681 87.8794 75.0681Z" fill="#160D01"/>
<path d="M92.9551 75.0681C94.0063 75.0681 94.8584 74.2105 94.8584 73.1525C94.8584 72.0945 94.0063 71.2368 92.9551 71.2368C91.9039 71.2368 91.0518 72.0945 91.0518 73.1525C91.0518 74.2105 91.9039 75.0681 92.9551 75.0681Z" fill="#160D01"/>
<path d="M98.0303 75.0681C99.0814 75.0681 99.9336 74.2105 99.9336 73.1525C99.9336 72.0945 99.0814 71.2368 98.0303 71.2368C96.9791 71.2368 96.127 72.0945 96.127 73.1525C96.127 74.2105 96.9791 75.0681 98.0303 75.0681Z" fill="#160D01"/>
<path d="M101.203 73.152C101.203 73.3212 101.225 73.484 101.266 73.6373C101.301 73.7841 101.355 73.9214 101.425 74.0523C101.786 73.1679 102.123 72.2708 102.433 71.3608C102.294 71.4119 102.164 71.4822 102.04 71.5652C101.536 71.9068 101.203 72.4911 101.203 73.152Z" fill="#160D01"/>
<path d="M6.6706 76.0259C6.15353 76.0259 5.68404 76.2334 5.34462 76.5687C5.26531 76.6453 5.19235 76.7315 5.12891 76.8209C5.61743 77.8522 6.14084 78.8643 6.6928 79.8572C6.807 79.8572 6.91486 79.8444 7.02271 79.8253C7.90459 79.6593 8.57392 78.877 8.57392 77.9415C8.57392 76.8847 7.7206 76.0259 6.6706 76.0259Z" fill="#160D01"/>
<path d="M11.7466 79.8572C12.7978 79.8572 13.6499 78.9995 13.6499 77.9415C13.6499 76.8836 12.7978 76.0259 11.7466 76.0259C10.6954 76.0259 9.84326 76.8836 9.84326 77.9415C9.84326 78.9995 10.6954 79.8572 11.7466 79.8572Z" fill="#160D01"/>
<path d="M16.8218 79.8572C17.873 79.8572 18.7251 78.9995 18.7251 77.9415C18.7251 76.8836 17.873 76.0259 16.8218 76.0259C15.7706 76.0259 14.9185 76.8836 14.9185 77.9415C14.9185 78.9995 15.7706 79.8572 16.8218 79.8572Z" fill="#160D01"/>
<path d="M21.8975 79.8572C22.9486 79.8572 23.8008 78.9995 23.8008 77.9415C23.8008 76.8836 22.9486 76.0259 21.8975 76.0259C20.8463 76.0259 19.9941 76.8836 19.9941 77.9415C19.9941 78.9995 20.8463 79.8572 21.8975 79.8572Z" fill="#160D01"/>
<path d="M26.9731 79.8572C28.0243 79.8572 28.8765 78.9995 28.8765 77.9415C28.8765 76.8836 28.0243 76.0259 26.9731 76.0259C25.922 76.0259 25.0698 76.8836 25.0698 77.9415C25.0698 78.9995 25.922 79.8572 26.9731 79.8572Z" fill="#160D01"/>
<path d="M32.0483 79.8572C33.0995 79.8572 33.9517 78.9995 33.9517 77.9415C33.9517 76.8836 33.0995 76.0259 32.0483 76.0259C30.9972 76.0259 30.145 76.8836 30.145 77.9415C30.145 78.9995 30.9972 79.8572 32.0483 79.8572Z" fill="#160D01"/>
<path d="M37.124 79.8572C38.1752 79.8572 39.0274 78.9995 39.0274 77.9415C39.0274 76.8836 38.1752 76.0259 37.124 76.0259C36.0729 76.0259 35.2207 76.8836 35.2207 77.9415C35.2207 78.9995 36.0729 79.8572 37.124 79.8572Z" fill="#160D01"/>
<path d="M42.1997 79.8572C43.2509 79.8572 44.103 78.9995 44.103 77.9415C44.103 76.8836 43.2509 76.0259 42.1997 76.0259C41.1485 76.0259 40.2964 76.8836 40.2964 77.9415C40.2964 78.9995 41.1485 79.8572 42.1997 79.8572Z" fill="#160D01"/>
<path d="M47.2749 79.8572C48.3261 79.8572 49.1782 78.9995 49.1782 77.9415C49.1782 76.8836 48.3261 76.0259 47.2749 76.0259C46.2237 76.0259 45.3716 76.8836 45.3716 77.9415C45.3716 78.9995 46.2237 79.8572 47.2749 79.8572Z" fill="#160D01"/>
<path d="M52.3506 79.8572C53.4018 79.8572 54.2539 78.9995 54.2539 77.9415C54.2539 76.8836 53.4018 76.0259 52.3506 76.0259C51.2994 76.0259 50.4473 76.8836 50.4473 77.9415C50.4473 78.9995 51.2994 79.8572 52.3506 79.8572Z" fill="#160D01"/>
<path d="M57.4263 79.8572C58.4775 79.8572 59.3296 78.9995 59.3296 77.9415C59.3296 76.8836 58.4775 76.0259 57.4263 76.0259C56.3751 76.0259 55.5229 76.8836 55.5229 77.9415C55.5229 78.9995 56.3751 79.8572 57.4263 79.8572Z" fill="#160D01"/>
<path d="M62.5015 79.8572C63.5526 79.8572 64.4048 78.9995 64.4048 77.9415C64.4048 76.8836 63.5526 76.0259 62.5015 76.0259C61.4503 76.0259 60.5981 76.8836 60.5981 77.9415C60.5981 78.9995 61.4503 79.8572 62.5015 79.8572Z" fill="#160D01"/>
<path d="M67.5772 79.8572C68.6283 79.8572 69.4805 78.9995 69.4805 77.9415C69.4805 76.8836 68.6283 76.0259 67.5772 76.0259C66.526 76.0259 65.6738 76.8836 65.6738 77.9415C65.6738 78.9995 66.526 79.8572 67.5772 79.8572Z" fill="#160D01"/>
<path d="M72.6528 79.8572C73.704 79.8572 74.5562 78.9995 74.5562 77.9415C74.5562 76.8836 73.704 76.0259 72.6528 76.0259C71.6017 76.0259 70.7495 76.8836 70.7495 77.9415C70.7495 78.9995 71.6017 79.8572 72.6528 79.8572Z" fill="#160D01"/>
<path d="M77.7285 79.8572C78.7797 79.8572 79.6319 78.9995 79.6319 77.9415C79.6319 76.8836 78.7797 76.0259 77.7285 76.0259C76.6773 76.0259 75.8252 76.8836 75.8252 77.9415C75.8252 78.9995 76.6773 79.8572 77.7285 79.8572Z" fill="#160D01"/>
<path d="M82.8037 79.8572C83.8549 79.8572 84.707 78.9995 84.707 77.9415C84.707 76.8836 83.8549 76.0259 82.8037 76.0259C81.7525 76.0259 80.9004 76.8836 80.9004 77.9415C80.9004 78.9995 81.7525 79.8572 82.8037 79.8572Z" fill="#160D01"/>
<path d="M87.8794 79.8572C88.9306 79.8572 89.7827 78.9995 89.7827 77.9415C89.7827 76.8836 88.9306 76.0259 87.8794 76.0259C86.8282 76.0259 85.9761 76.8836 85.9761 77.9415C85.9761 78.9995 86.8282 79.8572 87.8794 79.8572Z" fill="#160D01"/>
<path d="M92.9551 79.8572C94.0063 79.8572 94.8584 78.9995 94.8584 77.9415C94.8584 76.8836 94.0063 76.0259 92.9551 76.0259C91.9039 76.0259 91.0518 76.8836 91.0518 77.9415C91.0518 78.9995 91.9039 79.8572 92.9551 79.8572Z" fill="#160D01"/>
<path d="M98.0303 76.0259C96.9803 76.0259 96.127 76.8847 96.127 77.9415C96.127 78.9984 96.9803 79.8572 98.0303 79.8572C98.1254 79.8572 98.2174 79.8508 98.3063 79.8349C98.449 79.8157 98.5854 79.7806 98.7155 79.7295V79.7263C99.1183 78.992 99.5085 78.2512 99.8797 77.4978C99.8479 77.3573 99.8004 77.22 99.7369 77.0955C99.426 76.4633 98.7789 76.0259 98.0303 76.0259Z" fill="#160D01"/>
<path d="M11.7466 84.6463C12.7978 84.6463 13.6499 83.7886 13.6499 82.7306C13.6499 81.6726 12.7978 80.8149 11.7466 80.8149C10.6954 80.8149 9.84326 81.6726 9.84326 82.7306C9.84326 83.7886 10.6954 84.6463 11.7466 84.6463Z" fill="#160D01"/>
<path d="M16.8218 84.6463C17.873 84.6463 18.7251 83.7886 18.7251 82.7306C18.7251 81.6726 17.873 80.8149 16.8218 80.8149C15.7706 80.8149 14.9185 81.6726 14.9185 82.7306C14.9185 83.7886 15.7706 84.6463 16.8218 84.6463Z" fill="#160D01"/>
<path d="M21.8975 84.6463C22.9486 84.6463 23.8008 83.7886 23.8008 82.7306C23.8008 81.6726 22.9486 80.8149 21.8975 80.8149C20.8463 80.8149 19.9941 81.6726 19.9941 82.7306C19.9941 83.7886 20.8463 84.6463 21.8975 84.6463Z" fill="#160D01"/>
<path d="M26.9731 84.6463C28.0243 84.6463 28.8765 83.7886 28.8765 82.7306C28.8765 81.6726 28.0243 80.8149 26.9731 80.8149C25.922 80.8149 25.0698 81.6726 25.0698 82.7306C25.0698 83.7886 25.922 84.6463 26.9731 84.6463Z" fill="#160D01"/>
<path d="M32.0483 84.6463C33.0995 84.6463 33.9517 83.7886 33.9517 82.7306C33.9517 81.6726 33.0995 80.8149 32.0483 80.8149C30.9972 80.8149 30.145 81.6726 30.145 82.7306C30.145 83.7886 30.9972 84.6463 32.0483 84.6463Z" fill="#160D01"/>
<path d="M37.124 84.6463C38.1752 84.6463 39.0274 83.7886 39.0274 82.7306C39.0274 81.6726 38.1752 80.8149 37.124 80.8149C36.0729 80.8149 35.2207 81.6726 35.2207 82.7306C35.2207 83.7886 36.0729 84.6463 37.124 84.6463Z" fill="#160D01"/>
<path d="M42.1997 84.6463C43.2509 84.6463 44.103 83.7886 44.103 82.7306C44.103 81.6726 43.2509 80.8149 42.1997 80.8149C41.1485 80.8149 40.2964 81.6726 40.2964 82.7306C40.2964 83.7886 41.1485 84.6463 42.1997 84.6463Z" fill="#160D01"/>
<path d="M47.2749 84.6463C48.3261 84.6463 49.1782 83.7886 49.1782 82.7306C49.1782 81.6726 48.3261 80.8149 47.2749 80.8149C46.2237 80.8149 45.3716 81.6726 45.3716 82.7306C45.3716 83.7886 46.2237 84.6463 47.2749 84.6463Z" fill="#160D01"/>
<path d="M52.3506 84.6463C53.4018 84.6463 54.2539 83.7886 54.2539 82.7306C54.2539 81.6726 53.4018 80.8149 52.3506 80.8149C51.2994 80.8149 50.4473 81.6726 50.4473 82.7306C50.4473 83.7886 51.2994 84.6463 52.3506 84.6463Z" fill="#160D01"/>
<path d="M57.4263 84.6463C58.4775 84.6463 59.3296 83.7886 59.3296 82.7306C59.3296 81.6726 58.4775 80.8149 57.4263 80.8149C56.3751 80.8149 55.5229 81.6726 55.5229 82.7306C55.5229 83.7886 56.3751 84.6463 57.4263 84.6463Z" fill="#160D01"/>
<path d="M62.5015 84.6463C63.5526 84.6463 64.4048 83.7886 64.4048 82.7306C64.4048 81.6726 63.5526 80.8149 62.5015 80.8149C61.4503 80.8149 60.5981 81.6726 60.5981 82.7306C60.5981 83.7886 61.4503 84.6463 62.5015 84.6463Z" fill="#160D01"/>
<path d="M67.5772 84.6463C68.6283 84.6463 69.4805 83.7886 69.4805 82.7306C69.4805 81.6726 68.6283 80.8149 67.5772 80.8149C66.526 80.8149 65.6738 81.6726 65.6738 82.7306C65.6738 83.7886 66.526 84.6463 67.5772 84.6463Z" fill="#160D01"/>
<path d="M72.6528 84.6463C73.704 84.6463 74.5562 83.7886 74.5562 82.7306C74.5562 81.6726 73.704 80.8149 72.6528 80.8149C71.6017 80.8149 70.7495 81.6726 70.7495 82.7306C70.7495 83.7886 71.6017 84.6463 72.6528 84.6463Z" fill="#160D01"/>
<path d="M77.7285 84.6463C78.7797 84.6463 79.6319 83.7886 79.6319 82.7306C79.6319 81.6726 78.7797 80.8149 77.7285 80.8149C76.6773 80.8149 75.8252 81.6726 75.8252 82.7306C75.8252 83.7886 76.6773 84.6463 77.7285 84.6463Z" fill="#160D01"/>
<path d="M82.8037 84.6463C83.8549 84.6463 84.707 83.7886 84.707 82.7306C84.707 81.6726 83.8549 80.8149 82.8037 80.8149C81.7525 80.8149 80.9004 81.6726 80.9004 82.7306C80.9004 83.7886 81.7525 84.6463 82.8037 84.6463Z" fill="#160D01"/>
<path d="M87.8794 84.6463C88.9306 84.6463 89.7827 83.7886 89.7827 82.7306C89.7827 81.6726 88.9306 80.8149 87.8794 80.8149C86.8282 80.8149 85.9761 81.6726 85.9761 82.7306C85.9761 83.7886 86.8282 84.6463 87.8794 84.6463Z" fill="#160D01"/>
<path d="M92.9551 84.6463C94.0063 84.6463 94.8584 83.7886 94.8584 82.7306C94.8584 81.6726 94.0063 80.8149 92.9551 80.8149C91.9039 80.8149 91.0518 81.6726 91.0518 82.7306C91.0518 83.7886 91.9039 84.6463 92.9551 84.6463Z" fill="#160D01"/>
<path d="M97.7289 80.8405C96.8217 80.9842 96.127 81.776 96.127 82.7306C96.127 82.9158 96.1523 83.0978 96.2031 83.267C96.238 83.3883 96.2856 83.5064 96.3427 83.615C96.9549 82.7019 97.5386 81.7696 98.0937 80.8181C98.0747 80.8149 98.0525 80.8149 98.0303 80.8149C97.9256 80.8149 97.8273 80.8245 97.7289 80.8405Z" fill="#160D01"/>
<path d="M11.7465 85.604C11.4515 85.604 11.1723 85.6711 10.9249 85.7924C10.8297 85.8371 10.7409 85.8882 10.6553 85.952C11.4198 86.9673 12.2192 87.9539 13.0503 88.9117C13.1296 88.8383 13.2026 88.7585 13.2628 88.6723C13.5071 88.353 13.6498 87.9539 13.6498 87.5197C13.6498 86.4629 12.7965 85.604 11.7465 85.604Z" fill="#160D01"/>
<path d="M16.8218 89.4353C17.873 89.4353 18.7251 88.5776 18.7251 87.5197C18.7251 86.4617 17.873 85.604 16.8218 85.604C15.7706 85.604 14.9185 86.4617 14.9185 87.5197C14.9185 88.5776 15.7706 89.4353 16.8218 89.4353Z" fill="#160D01"/>
<path d="M21.8975 89.4353C22.9486 89.4353 23.8008 88.5776 23.8008 87.5197C23.8008 86.4617 22.9486 85.604 21.8975 85.604C20.8463 85.604 19.9941 86.4617 19.9941 87.5197C19.9941 88.5776 20.8463 89.4353 21.8975 89.4353Z" fill="#160D01"/>
<path d="M26.9731 89.4353C28.0243 89.4353 28.8765 88.5776 28.8765 87.5197C28.8765 86.4617 28.0243 85.604 26.9731 85.604C25.922 85.604 25.0698 86.4617 25.0698 87.5197C25.0698 88.5776 25.922 89.4353 26.9731 89.4353Z" fill="#160D01"/>
<path d="M32.0483 89.4353C33.0995 89.4353 33.9517 88.5776 33.9517 87.5197C33.9517 86.4617 33.0995 85.604 32.0483 85.604C30.9972 85.604 30.145 86.4617 30.145 87.5197C30.145 88.5776 30.9972 89.4353 32.0483 89.4353Z" fill="#160D01"/>
<path d="M37.124 89.4353C38.1752 89.4353 39.0274 88.5776 39.0274 87.5197C39.0274 86.4617 38.1752 85.604 37.124 85.604C36.0729 85.604 35.2207 86.4617 35.2207 87.5197C35.2207 88.5776 36.0729 89.4353 37.124 89.4353Z" fill="#160D01"/>
<path d="M42.1997 89.4353C43.2509 89.4353 44.103 88.5776 44.103 87.5197C44.103 86.4617 43.2509 85.604 42.1997 85.604C41.1485 85.604 40.2964 86.4617 40.2964 87.5197C40.2964 88.5776 41.1485 89.4353 42.1997 89.4353Z" fill="#160D01"/>
<path d="M47.2749 89.4353C48.3261 89.4353 49.1782 88.5776 49.1782 87.5197C49.1782 86.4617 48.3261 85.604 47.2749 85.604C46.2237 85.604 45.3716 86.4617 45.3716 87.5197C45.3716 88.5776 46.2237 89.4353 47.2749 89.4353Z" fill="#160D01"/>
<path d="M52.3506 89.4353C53.4018 89.4353 54.2539 88.5776 54.2539 87.5197C54.2539 86.4617 53.4018 85.604 52.3506 85.604C51.2994 85.604 50.4473 86.4617 50.4473 87.5197C50.4473 88.5776 51.2994 89.4353 52.3506 89.4353Z" fill="#160D01"/>
<path d="M57.4263 89.4353C58.4775 89.4353 59.3296 88.5776 59.3296 87.5197C59.3296 86.4617 58.4775 85.604 57.4263 85.604C56.3751 85.604 55.5229 86.4617 55.5229 87.5197C55.5229 88.5776 56.3751 89.4353 57.4263 89.4353Z" fill="#160D01"/>
<path d="M62.5015 89.4353C63.5526 89.4353 64.4048 88.5776 64.4048 87.5197C64.4048 86.4617 63.5526 85.604 62.5015 85.604C61.4503 85.604 60.5981 86.4617 60.5981 87.5197C60.5981 88.5776 61.4503 89.4353 62.5015 89.4353Z" fill="#160D01"/>
<path d="M67.5772 89.4353C68.6283 89.4353 69.4805 88.5776 69.4805 87.5197C69.4805 86.4617 68.6283 85.604 67.5772 85.604C66.526 85.604 65.6738 86.4617 65.6738 87.5197C65.6738 88.5776 66.526 89.4353 67.5772 89.4353Z" fill="#160D01"/>
<path d="M72.6528 89.4353C73.704 89.4353 74.5562 88.5776 74.5562 87.5197C74.5562 86.4617 73.704 85.604 72.6528 85.604C71.6017 85.604 70.7495 86.4617 70.7495 87.5197C70.7495 88.5776 71.6017 89.4353 72.6528 89.4353Z" fill="#160D01"/>
<path d="M77.7285 89.4353C78.7797 89.4353 79.6319 88.5776 79.6319 87.5197C79.6319 86.4617 78.7797 85.604 77.7285 85.604C76.6773 85.604 75.8252 86.4617 75.8252 87.5197C75.8252 88.5776 76.6773 89.4353 77.7285 89.4353Z" fill="#160D01"/>
<path d="M82.8037 89.4353C83.8549 89.4353 84.707 88.5776 84.707 87.5197C84.707 86.4617 83.8549 85.604 82.8037 85.604C81.7525 85.604 80.9004 86.4617 80.9004 87.5197C80.9004 88.5776 81.7525 89.4353 82.8037 89.4353Z" fill="#160D01"/>
<path d="M87.8794 89.4353C88.9306 89.4353 89.7827 88.5776 89.7827 87.5197C89.7827 86.4617 88.9306 85.604 87.8794 85.604C86.8282 85.604 85.9761 86.4617 85.9761 87.5197C85.9761 88.5776 86.8282 89.4353 87.8794 89.4353Z" fill="#160D01"/>
<path d="M92.9551 85.604C91.9051 85.604 91.0518 86.4629 91.0518 87.5197C91.0518 88.1263 91.3309 88.6659 91.7687 89.0171C91.8512 89.0841 91.94 89.1448 92.0351 89.1959C92.8631 88.2604 93.6593 87.293 94.4206 86.2968C94.354 86.217 94.2779 86.1404 94.1986 86.0733C93.8655 85.7796 93.4309 85.604 92.9551 85.604Z" fill="#160D01"/>
<path d="M16.8219 90.3931C16.27 90.3931 15.7719 90.6293 15.4262 91.0093C15.3532 91.0891 15.2834 91.1753 15.2295 91.2647C16.105 92.1587 17.0154 93.0207 17.9544 93.8476C18.0401 93.7838 18.1194 93.7135 18.1923 93.6369C18.5222 93.2953 18.7253 92.826 18.7253 92.3087C18.7253 91.2519 17.8719 90.3931 16.8219 90.3931Z" fill="#160D01"/>
<path d="M21.8975 94.2244C22.9486 94.2244 23.8008 93.3667 23.8008 92.3087C23.8008 91.2507 22.9486 90.3931 21.8975 90.3931C20.8463 90.3931 19.9941 91.2507 19.9941 92.3087C19.9941 93.3667 20.8463 94.2244 21.8975 94.2244Z" fill="#160D01"/>
<path d="M26.9731 94.2244C28.0243 94.2244 28.8765 93.3667 28.8765 92.3087C28.8765 91.2507 28.0243 90.3931 26.9731 90.3931C25.922 90.3931 25.0698 91.2507 25.0698 92.3087C25.0698 93.3667 25.922 94.2244 26.9731 94.2244Z" fill="#160D01"/>
<path d="M32.0483 94.2244C33.0995 94.2244 33.9517 93.3667 33.9517 92.3087C33.9517 91.2507 33.0995 90.3931 32.0483 90.3931C30.9972 90.3931 30.145 91.2507 30.145 92.3087C30.145 93.3667 30.9972 94.2244 32.0483 94.2244Z" fill="#160D01"/>
<path d="M37.124 94.2244C38.1752 94.2244 39.0274 93.3667 39.0274 92.3087C39.0274 91.2507 38.1752 90.3931 37.124 90.3931C36.0729 90.3931 35.2207 91.2507 35.2207 92.3087C35.2207 93.3667 36.0729 94.2244 37.124 94.2244Z" fill="#160D01"/>
<path d="M42.1997 94.2244C43.2509 94.2244 44.103 93.3667 44.103 92.3087C44.103 91.2507 43.2509 90.3931 42.1997 90.3931C41.1485 90.3931 40.2964 91.2507 40.2964 92.3087C40.2964 93.3667 41.1485 94.2244 42.1997 94.2244Z" fill="#160D01"/>
<path d="M47.2749 94.2244C48.3261 94.2244 49.1782 93.3667 49.1782 92.3087C49.1782 91.2507 48.3261 90.3931 47.2749 90.3931C46.2237 90.3931 45.3716 91.2507 45.3716 92.3087C45.3716 93.3667 46.2237 94.2244 47.2749 94.2244Z" fill="#160D01"/>
<path d="M52.3506 94.2244C53.4018 94.2244 54.2539 93.3667 54.2539 92.3087C54.2539 91.2507 53.4018 90.3931 52.3506 90.3931C51.2994 90.3931 50.4473 91.2507 50.4473 92.3087C50.4473 93.3667 51.2994 94.2244 52.3506 94.2244Z" fill="#160D01"/>
<path d="M57.4263 94.2244C58.4775 94.2244 59.3296 93.3667 59.3296 92.3087C59.3296 91.2507 58.4775 90.3931 57.4263 90.3931C56.3751 90.3931 55.5229 91.2507 55.5229 92.3087C55.5229 93.3667 56.3751 94.2244 57.4263 94.2244Z" fill="#160D01"/>
<path d="M62.5015 94.2244C63.5526 94.2244 64.4048 93.3667 64.4048 92.3087C64.4048 91.2507 63.5526 90.3931 62.5015 90.3931C61.4503 90.3931 60.5981 91.2507 60.5981 92.3087C60.5981 93.3667 61.4503 94.2244 62.5015 94.2244Z" fill="#160D01"/>
<path d="M67.5772 94.2244C68.6283 94.2244 69.4805 93.3667 69.4805 92.3087C69.4805 91.2507 68.6283 90.3931 67.5772 90.3931C66.526 90.3931 65.6738 91.2507 65.6738 92.3087C65.6738 93.3667 66.526 94.2244 67.5772 94.2244Z" fill="#160D01"/>
<path d="M72.6528 94.2244C73.704 94.2244 74.5562 93.3667 74.5562 92.3087C74.5562 91.2507 73.704 90.3931 72.6528 90.3931C71.6017 90.3931 70.7495 91.2507 70.7495 92.3087C70.7495 93.3667 71.6017 94.2244 72.6528 94.2244Z" fill="#160D01"/>
<path d="M77.7285 94.2244C78.7797 94.2244 79.6319 93.3667 79.6319 92.3087C79.6319 91.2507 78.7797 90.3931 77.7285 90.3931C76.6773 90.3931 75.8252 91.2507 75.8252 92.3087C75.8252 93.3667 76.6773 94.2244 77.7285 94.2244Z" fill="#160D01"/>
<path d="M82.8037 94.2244C83.8549 94.2244 84.707 93.3667 84.707 92.3087C84.707 91.2507 83.8549 90.3931 82.8037 90.3931C81.7525 90.3931 80.9004 91.2507 80.9004 92.3087C80.9004 93.3667 81.7525 94.2244 82.8037 94.2244Z" fill="#160D01"/>
<path d="M87.8794 90.3931C86.8294 90.3931 85.9761 91.2519 85.9761 92.3087C85.9761 92.9792 86.3187 93.5699 86.8357 93.9083C86.9277 93.9722 87.0261 94.0264 87.1276 94.0711C88.0063 93.3081 88.8564 92.5131 89.6812 91.6925C89.6463 91.584 89.5987 91.4786 89.5448 91.3796C89.2181 90.7922 88.5931 90.3931 87.8794 90.3931Z" fill="#160D01"/>
<path d="M21.8974 95.1826C21.4089 95.1826 20.9648 95.3646 20.6317 95.6679C20.5524 95.7382 20.4826 95.8148 20.416 95.8946C21.4153 96.6768 22.4431 97.4207 23.4994 98.1295C23.5565 98.0433 23.6073 97.9507 23.6453 97.855C23.7468 97.6219 23.8008 97.3665 23.8008 97.0983C23.8008 96.0415 22.9474 95.1826 21.8974 95.1826Z" fill="#160D01"/>
<path d="M26.9731 99.0139C28.0243 99.0139 28.8765 98.1563 28.8765 97.0983C28.8765 96.0403 28.0243 95.1826 26.9731 95.1826C25.922 95.1826 25.0698 96.0403 25.0698 97.0983C25.0698 98.1563 25.922 99.0139 26.9731 99.0139Z" fill="#160D01"/>
<path d="M32.0483 99.0139C33.0995 99.0139 33.9517 98.1563 33.9517 97.0983C33.9517 96.0403 33.0995 95.1826 32.0483 95.1826C30.9972 95.1826 30.145 96.0403 30.145 97.0983C30.145 98.1563 30.9972 99.0139 32.0483 99.0139Z" fill="#160D01"/>
<path d="M37.124 99.0139C38.1752 99.0139 39.0274 98.1563 39.0274 97.0983C39.0274 96.0403 38.1752 95.1826 37.124 95.1826C36.0729 95.1826 35.2207 96.0403 35.2207 97.0983C35.2207 98.1563 36.0729 99.0139 37.124 99.0139Z" fill="#160D01"/>
<path d="M42.1997 99.0139C43.2509 99.0139 44.103 98.1563 44.103 97.0983C44.103 96.0403 43.2509 95.1826 42.1997 95.1826C41.1485 95.1826 40.2964 96.0403 40.2964 97.0983C40.2964 98.1563 41.1485 99.0139 42.1997 99.0139Z" fill="#160D01"/>
<path d="M47.2749 99.0139C48.3261 99.0139 49.1782 98.1563 49.1782 97.0983C49.1782 96.0403 48.3261 95.1826 47.2749 95.1826C46.2237 95.1826 45.3716 96.0403 45.3716 97.0983C45.3716 98.1563 46.2237 99.0139 47.2749 99.0139Z" fill="#160D01"/>
<path d="M52.3506 99.0139C53.4018 99.0139 54.2539 98.1563 54.2539 97.0983C54.2539 96.0403 53.4018 95.1826 52.3506 95.1826C51.2994 95.1826 50.4473 96.0403 50.4473 97.0983C50.4473 98.1563 51.2994 99.0139 52.3506 99.0139Z" fill="#160D01"/>
<path d="M57.4263 99.0139C58.4775 99.0139 59.3296 98.1563 59.3296 97.0983C59.3296 96.0403 58.4775 95.1826 57.4263 95.1826C56.3751 95.1826 55.5229 96.0403 55.5229 97.0983C55.5229 98.1563 56.3751 99.0139 57.4263 99.0139Z" fill="#160D01"/>
<path d="M62.5015 99.0139C63.5526 99.0139 64.4048 98.1563 64.4048 97.0983C64.4048 96.0403 63.5526 95.1826 62.5015 95.1826C61.4503 95.1826 60.5981 96.0403 60.5981 97.0983C60.5981 98.1563 61.4503 99.0139 62.5015 99.0139Z" fill="#160D01"/>
<path d="M67.5772 99.0139C68.6283 99.0139 69.4805 98.1563 69.4805 97.0983C69.4805 96.0403 68.6283 95.1826 67.5772 95.1826C66.526 95.1826 65.6738 96.0403 65.6738 97.0983C65.6738 98.1563 66.526 99.0139 67.5772 99.0139Z" fill="#160D01"/>
<path d="M72.6528 99.0139C73.704 99.0139 74.5562 98.1563 74.5562 97.0983C74.5562 96.0403 73.704 95.1826 72.6528 95.1826C71.6017 95.1826 70.7495 96.0403 70.7495 97.0983C70.7495 98.1563 71.6017 99.0139 72.6528 99.0139Z" fill="#160D01"/>
<path d="M77.7285 99.0139C78.7797 99.0139 79.6319 98.1563 79.6319 97.0983C79.6319 96.0403 78.7797 95.1826 77.7285 95.1826C76.6773 95.1826 75.8252 96.0403 75.8252 97.0983C75.8252 98.1563 76.6773 99.0139 77.7285 99.0139Z" fill="#160D01"/>
<path d="M82.8037 95.1826C81.7537 95.1826 80.9004 96.0415 80.9004 97.0983C80.9004 97.4942 81.0178 97.8614 81.224 98.1679C81.2811 98.2509 81.3445 98.3339 81.4175 98.4073C82.4706 97.7145 83.4984 96.9865 84.4945 96.2203C84.4469 96.1277 84.393 96.0415 84.3295 95.9585C83.9869 95.4891 83.4286 95.1826 82.8037 95.1826Z" fill="#160D01"/>
<path d="M28.5083 100.76C28.1847 100.31 27.6676 100.007 27.0776 99.9781C27.0744 99.9749 27.0713 99.9749 27.0681 99.9749C27.0364 99.9717 27.0046 99.9717 26.9729 99.9717C26.8238 99.9717 26.6811 99.9876 26.5415 100.023C27.2711 100.444 28.0102 100.846 28.7589 101.23C28.6986 101.06 28.6161 100.904 28.5083 100.76Z" fill="#160D01"/>
<path d="M32.0483 99.9717C31.0999 99.9717 30.31 100.674 30.1704 101.59C30.1514 101.686 30.145 101.785 30.145 101.887V101.916C31.1855 102.414 32.245 102.877 33.3236 103.308C33.406 103.235 33.4822 103.152 33.5488 103.065C33.8026 102.74 33.9517 102.331 33.9517 101.887C33.9517 100.831 33.0983 99.9717 32.0483 99.9717Z" fill="#160D01"/>
<path d="M37.124 103.803C38.1752 103.803 39.0274 102.945 39.0274 101.887C39.0274 100.829 38.1752 99.9717 37.124 99.9717C36.0729 99.9717 35.2207 100.829 35.2207 101.887C35.2207 102.945 36.0729 103.803 37.124 103.803Z" fill="#160D01"/>
<path d="M42.1997 103.803C43.2509 103.803 44.103 102.945 44.103 101.887C44.103 100.829 43.2509 99.9717 42.1997 99.9717C41.1485 99.9717 40.2964 100.829 40.2964 101.887C40.2964 102.945 41.1485 103.803 42.1997 103.803Z" fill="#160D01"/>
<path d="M47.2749 103.803C48.3261 103.803 49.1782 102.945 49.1782 101.887C49.1782 100.829 48.3261 99.9717 47.2749 99.9717C46.2237 99.9717 45.3716 100.829 45.3716 101.887C45.3716 102.945 46.2237 103.803 47.2749 103.803Z" fill="#160D01"/>
<path d="M52.3506 103.803C53.4018 103.803 54.2539 102.945 54.2539 101.887C54.2539 100.829 53.4018 99.9717 52.3506 99.9717C51.2994 99.9717 50.4473 100.829 50.4473 101.887C50.4473 102.945 51.2994 103.803 52.3506 103.803Z" fill="#160D01"/>
<path d="M57.4263 103.803C58.4775 103.803 59.3296 102.945 59.3296 101.887C59.3296 100.829 58.4775 99.9717 57.4263 99.9717C56.3751 99.9717 55.5229 100.829 55.5229 101.887C55.5229 102.945 56.3751 103.803 57.4263 103.803Z" fill="#160D01"/>
<path d="M62.5015 103.803C63.5526 103.803 64.4048 102.945 64.4048 101.887C64.4048 100.829 63.5526 99.9717 62.5015 99.9717C61.4503 99.9717 60.5981 100.829 60.5981 101.887C60.5981 102.945 61.4503 103.803 62.5015 103.803Z" fill="#160D01"/>
<path d="M67.5772 103.803C68.6283 103.803 69.4805 102.945 69.4805 101.887C69.4805 100.829 68.6283 99.9717 67.5772 99.9717C66.526 99.9717 65.6738 100.829 65.6738 101.887C65.6738 102.945 66.526 103.803 67.5772 103.803Z" fill="#160D01"/>
<path d="M72.6528 99.9717C71.6028 99.9717 70.7495 100.831 70.7495 101.887C70.7495 102.417 70.9652 102.899 71.3142 103.247C71.3966 103.33 71.4886 103.407 71.587 103.474C72.5799 103.088 73.5601 102.673 74.5244 102.229C74.5466 102.12 74.5562 102.005 74.5562 101.887C74.5562 101.884 74.5562 101.884 74.5562 101.881C74.553 100.827 73.6997 99.9717 72.6528 99.9717Z" fill="#160D01"/>
<path d="M77.728 99.9717C76.916 99.9717 76.2212 100.486 75.9484 101.207C75.9009 101.332 75.866 101.463 75.8501 101.597C76.7669 101.143 77.6678 100.665 78.5528 100.16C78.4323 100.103 78.3054 100.055 78.1721 100.026C78.0294 99.9908 77.8803 99.9717 77.728 99.9717Z" fill="#160D01"/>
<path d="M42.1996 104.761C41.6699 104.761 41.1909 104.978 40.8451 105.332C40.7626 105.415 40.6865 105.508 40.623 105.604C41.7555 105.869 42.9039 106.099 44.0649 106.29C44.0395 106.175 44.0078 106.063 43.9634 105.955C43.6811 105.256 42.9959 104.761 42.1996 104.761Z" fill="#160D01"/>
<path d="M47.2752 104.761C46.3965 104.761 45.6542 105.364 45.4384 106.182C45.4099 106.281 45.3909 106.383 45.3813 106.491C46.6312 106.667 47.8937 106.798 49.169 106.881C49.1753 106.814 49.1785 106.747 49.1785 106.676C49.1785 106.638 49.1785 106.6 49.1721 106.561C49.115 105.559 48.2871 104.761 47.2752 104.761Z" fill="#160D01"/>
<path d="M52.3506 104.761C51.3165 104.761 50.4726 105.594 50.4504 106.629C50.4473 106.644 50.4473 106.66 50.4473 106.676C50.4473 106.769 50.4536 106.862 50.4695 106.951C51.1991 106.98 51.9319 106.996 52.6678 106.996C53.1912 106.996 53.7115 106.989 54.2285 106.973C54.2476 106.878 54.2539 106.779 54.2539 106.676V106.651C54.2412 105.607 53.3911 104.761 52.3506 104.761Z" fill="#160D01"/>
<path d="M57.4263 104.761C56.4017 104.761 55.5642 105.578 55.5261 106.6C55.5229 106.625 55.5229 106.651 55.5229 106.676C55.5229 106.756 55.5293 106.836 55.5388 106.916C56.814 106.849 58.0766 106.734 59.3233 106.577C59.3201 106.469 59.3074 106.367 59.2852 106.265C59.098 105.406 58.3367 104.761 57.4263 104.761Z" fill="#160D01"/>
<path d="M62.5017 104.761C61.6643 104.761 60.9505 105.307 60.6999 106.063C60.6618 106.172 60.6365 106.28 60.6206 106.395C61.8134 106.213 62.9934 105.99 64.1576 105.731C64.1005 105.632 64.0371 105.54 63.9673 105.454C63.6183 105.032 63.0917 104.761 62.5017 104.761Z" fill="#160D01"/>
</g>
<defs>
<clipPath id="clip0_148_7536">
<rect width="105" height="106" fill="white" transform="translate(0.00927734 0.995605)"/>
</clipPath>
</defs>
</svg>
