<svg width="93" height="43" viewBox="0 0 93 43" fill="none" xmlns="http://www.w3.org/2000/svg">
<g opacity="0.1" clip-path="url(#clip0_148_8300)">
<path d="M6.00928 12.9956C9.32299 12.9956 12.0093 10.3093 12.0093 6.99561C12.0093 3.6819 9.32299 0.995605 6.00928 0.995605C2.69557 0.995605 0.00927734 3.6819 0.00927734 6.99561C0.00927734 10.3093 2.69557 12.9956 6.00928 12.9956Z" fill="#0E0202"/>
<path d="M22.0093 12.9956C25.323 12.9956 28.0093 10.3093 28.0093 6.99561C28.0093 3.6819 25.323 0.995605 22.0093 0.995605C18.6956 0.995605 16.0093 3.6819 16.0093 6.99561C16.0093 10.3093 18.6956 12.9956 22.0093 12.9956Z" fill="#0E0202"/>
<path d="M38.0093 12.9956C41.323 12.9956 44.0093 10.3093 44.0093 6.99561C44.0093 3.6819 41.323 0.995605 38.0093 0.995605C34.6956 0.995605 32.0093 3.6819 32.0093 6.99561C32.0093 10.3093 34.6956 12.9956 38.0093 12.9956Z" fill="#0E0202"/>
<path d="M22.0093 27.9956C25.323 27.9956 28.0093 25.3093 28.0093 21.9956C28.0093 18.6819 25.323 15.9956 22.0093 15.9956C18.6956 15.9956 16.0093 18.6819 16.0093 21.9956C16.0093 25.3093 18.6956 27.9956 22.0093 27.9956Z" fill="#0E0202"/>
<path d="M38.0093 27.9956C41.323 27.9956 44.0093 25.3093 44.0093 21.9956C44.0093 18.6819 41.323 15.9956 38.0093 15.9956C34.6956 15.9956 32.0093 18.6819 32.0093 21.9956C32.0093 25.3093 34.6956 27.9956 38.0093 27.9956Z" fill="#0E0202"/>
<path d="M54.0093 27.9956C57.323 27.9956 60.0093 25.3093 60.0093 21.9956C60.0093 18.6819 57.323 15.9956 54.0093 15.9956C50.6956 15.9956 48.0093 18.6819 48.0093 21.9956C48.0093 25.3093 50.6956 27.9956 54.0093 27.9956Z" fill="#0E0202"/>
<path d="M22.0093 42.9956C25.323 42.9956 28.0093 40.3093 28.0093 36.9956C28.0093 33.6819 25.323 30.9956 22.0093 30.9956C18.6956 30.9956 16.0093 33.6819 16.0093 36.9956C16.0093 40.3093 18.6956 42.9956 22.0093 42.9956Z" fill="#0E0202"/>
<path d="M38.0093 42.9956C41.323 42.9956 44.0093 40.3093 44.0093 36.9956C44.0093 33.6819 41.323 30.9956 38.0093 30.9956C34.6956 30.9956 32.0093 33.6819 32.0093 36.9956C32.0093 40.3093 34.6956 42.9956 38.0093 42.9956Z" fill="#0E0202"/>
<path d="M54.0093 42.9956C57.323 42.9956 60.0093 40.3093 60.0093 36.9956C60.0093 33.6819 57.323 30.9956 54.0093 30.9956C50.6956 30.9956 48.0093 33.6819 48.0093 36.9956C48.0093 40.3093 50.6956 42.9956 54.0093 42.9956Z" fill="#0E0202"/>
<path d="M70.0093 42.9956C73.323 42.9956 76.0093 40.3093 76.0093 36.9956C76.0093 33.6819 73.323 30.9956 70.0093 30.9956C66.6956 30.9956 64.0093 33.6819 64.0093 36.9956C64.0093 40.3093 66.6956 42.9956 70.0093 42.9956Z" fill="#0E0202"/>
<path d="M86.0093 42.9956C89.323 42.9956 92.0093 40.3093 92.0093 36.9956C92.0093 33.6819 89.323 30.9956 86.0093 30.9956C82.6956 30.9956 80.0093 33.6819 80.0093 36.9956C80.0093 40.3093 82.6956 42.9956 86.0093 42.9956Z" fill="#0E0202"/>
</g>
<defs>
<clipPath id="clip0_148_8300">
<rect width="92" height="42" fill="white" transform="translate(0.00927734 0.995605)"/>
</clipPath>
</defs>
</svg>
