<svg width="47" height="61" viewBox="0 0 47 61" fill="none" xmlns="http://www.w3.org/2000/svg">
<g opacity="0.1" clip-path="url(#clip0_148_8382)">
<path d="M45.8151 13.7959L46.6043 12.1336L23.7568 1.2876C24.6856 2.3149 25.535 3.4 26.3036 4.53353L45.8151 13.7959Z" fill="#160D01"/>
<path d="M44.0969 17.4166L44.8861 15.7543L28.2593 7.86133C28.6828 8.70374 29.0658 9.56548 29.4061 10.4427L44.0969 17.4166Z" fill="#160D01"/>
<path d="M42.378 21.037L43.1672 19.3746L30.3467 13.2886C30.5546 14.0441 30.7328 14.8086 30.8799 15.5786L42.378 21.037Z" fill="#160D01"/>
<path d="M40.6592 24.6574L41.4483 22.9951L31.251 18.1543C31.3199 18.8515 31.3641 19.5515 31.3826 20.2537L40.6592 24.6574Z" fill="#160D01"/>
<path d="M38.9405 28.2786L39.7297 26.6162L31.3467 22.6367C31.3093 23.2874 31.2495 23.9379 31.1671 24.5884L38.9405 28.2786Z" fill="#160D01"/>
<path d="M37.2215 31.899L38.0106 30.2367L30.7964 26.812C30.6699 27.4232 30.5221 28.032 30.3545 28.6391L37.2215 31.899Z" fill="#160D01"/>
<path d="M35.503 35.5196L36.2922 33.8573L29.6899 30.7231C29.4819 31.2976 29.2549 31.8688 29.008 32.4364L35.503 35.5196Z" fill="#160D01"/>
<path d="M33.7844 39.1399L34.5735 37.4776L28.0689 34.3898C27.7804 34.9376 27.4773 35.4727 27.1581 35.9944L33.7844 39.1399Z" fill="#160D01"/>
<path d="M32.0655 42.7609L32.8546 41.0986L25.9444 37.8182C25.5752 38.3296 25.1897 38.8256 24.7905 39.3073L32.0655 42.7609Z" fill="#160D01"/>
<path d="M30.3468 46.381L31.136 44.7187L23.2818 40.9902C22.8234 41.4622 22.3492 41.916 21.8622 42.3532L30.3468 46.381Z" fill="#160D01"/>
<path d="M28.6282 50.0017L29.4173 48.3394L20.0167 43.8768C19.4533 44.3038 18.8751 44.7083 18.2836 45.091L28.6282 50.0017Z" fill="#160D01"/>
<path d="M26.909 53.6222L27.6982 51.9599L16.0176 46.415C15.3172 46.7837 14.6026 47.1244 13.8749 47.4348L26.909 53.6222Z" fill="#160D01"/>
<path d="M25.1908 57.243L25.9799 55.5807L11.0243 48.481C10.1103 48.7647 9.18171 49.0029 8.24163 49.197L25.1908 57.243Z" fill="#160D01"/>
<path d="M23.4718 60.8638L24.261 59.2015L4.32545 49.7378C2.89755 49.8383 1.45502 49.8354 0.00921136 49.7258L23.4718 60.8638Z" fill="#160D01"/>
</g>
<defs>
<clipPath id="clip0_148_8382">
<rect width="25.9721" height="53.9421" fill="white" transform="translate(23.1421 0.995605) rotate(25.3943)"/>
</clipPath>
</defs>
</svg>
