<svg width="50" height="54" viewBox="0 0 50 54" fill="none" xmlns="http://www.w3.org/2000/svg">
<g opacity="0.1" clip-path="url(#clip0_148_8398)">
<path d="M1.57399 17.0436L0.516258 15.7721L17.9922 1.23438C17.4125 2.33596 16.9148 3.47016 16.4983 4.62852L1.57399 17.0436Z" fill="#160D01"/>
<path d="M3.87756 19.8135L2.81982 18.542L15.5376 7.9624C15.3566 8.79034 15.2153 9.62607 15.1145 10.4658L3.87756 19.8135Z" fill="#160D01"/>
<path d="M6.18107 22.5825L5.12334 21.311L14.9297 13.1533C14.9171 13.8575 14.9324 14.5629 14.9759 15.2662L6.18107 22.5825Z" fill="#160D01"/>
<path d="M8.48487 25.3518L7.42713 24.0803L15.2271 17.5918C15.3225 18.2143 15.4401 18.8336 15.5805 19.4492L8.48487 25.3518Z" fill="#160D01"/>
<path d="M10.7887 28.1217L9.73094 26.8502L16.1431 21.5161C16.3206 22.0743 16.5178 22.6275 16.7345 23.1755L10.7887 28.1217Z" fill="#160D01"/>
<path d="M13.0928 30.8907L12.0351 29.6192L17.5532 25.0288C17.7996 25.5328 18.0641 26.03 18.3454 26.5212L13.0928 30.8907Z" fill="#160D01"/>
<path d="M15.3964 33.6605L14.3386 32.389L19.3887 28.188C19.6979 28.6418 20.0229 29.0886 20.3644 29.5277L15.3964 33.6605Z" fill="#160D01"/>
<path d="M17.7003 36.4297L16.6425 35.1582L21.6179 31.0193C21.9913 31.432 22.3744 31.8303 22.7687 32.2134L17.7003 36.4297Z" fill="#160D01"/>
<path d="M20.0038 39.1989L18.9461 37.9274L24.2317 33.5305C24.6672 33.8934 25.1134 34.2394 25.5685 34.5699L20.0038 39.1989Z" fill="#160D01"/>
<path d="M22.3081 41.9681L21.2504 40.6966L27.2581 35.699C27.7624 36.0078 28.2765 36.2972 28.798 36.5694L22.3081 41.9681Z" fill="#160D01"/>
<path d="M24.6115 44.7375L23.5538 43.466L30.7443 37.4844C31.33 37.7306 31.9237 37.9539 32.524 38.1553L24.6115 44.7375Z" fill="#160D01"/>
<path d="M26.9152 47.507L25.8574 46.2354L34.7918 38.8032C35.4839 38.968 36.1821 39.1054 36.8849 39.2134L26.9152 47.507Z" fill="#160D01"/>
<path d="M29.2188 50.2764L28.1611 49.0049L39.6006 39.4887C40.4597 39.5319 41.3214 39.5323 42.1832 39.4917L29.2188 50.2764Z" fill="#160D01"/>
<path d="M31.5229 53.0459L30.4651 51.7744L45.7137 39.0895C46.9795 38.8586 48.2349 38.5345 49.4694 38.1167L31.5229 53.0459Z" fill="#160D01"/>
</g>
<defs>
<clipPath id="clip0_148_8398">
<rect width="23.3443" height="48.4844" fill="white" transform="matrix(-0.768773 0.639522 0.639522 0.768773 18.4624 0.843262)"/>
</clipPath>
</defs>
</svg>
