<svg width="109" height="102" viewBox="0 0 109 102" fill="none" xmlns="http://www.w3.org/2000/svg">
<path opacity="0.2" d="M102.073 12C105.386 12 108.073 9.31371 108.073 6C108.073 2.68629 105.386 0 102.073 0C98.759 0 96.0728 2.68629 96.0728 6C96.0728 9.31371 98.759 12 102.073 12Z" fill="#EA4343"/>
<path opacity="0.2" d="M102.073 27C105.386 27 108.073 24.3137 108.073 21C108.073 17.6863 105.386 15 102.073 15C98.759 15 96.0728 17.6863 96.0728 21C96.0728 24.3137 98.759 27 102.073 27Z" fill="#EA4343"/>
<path opacity="0.2" d="M86.0728 42C89.3865 42 92.0728 39.3137 92.0728 36C92.0728 32.6863 89.3865 30 86.0728 30C82.759 30 80.0728 32.6863 80.0728 36C80.0728 39.3137 82.759 42 86.0728 42Z" fill="#EA4343"/>
<path opacity="0.2" d="M102.073 42C105.386 42 108.073 39.3137 108.073 36C108.073 32.6863 105.386 30 102.073 30C98.759 30 96.0728 32.6863 96.0728 36C96.0728 39.3137 98.759 42 102.073 42Z" fill="#EA4343"/>
<path opacity="0.2" d="M70.0728 57C73.3865 57 76.0728 54.3137 76.0728 51C76.0728 47.6863 73.3865 45 70.0728 45C66.759 45 64.0728 47.6863 64.0728 51C64.0728 54.3137 66.759 57 70.0728 57Z" fill="#EA4343"/>
<path opacity="0.2" d="M86.0728 57C89.3865 57 92.0728 54.3137 92.0728 51C92.0728 47.6863 89.3865 45 86.0728 45C82.759 45 80.0728 47.6863 80.0728 51C80.0728 54.3137 82.759 57 86.0728 57Z" fill="#EA4343"/>
<path opacity="0.2" d="M102.073 57C105.386 57 108.073 54.3137 108.073 51C108.073 47.6863 105.386 45 102.073 45C98.759 45 96.0728 47.6863 96.0728 51C96.0728 54.3137 98.759 57 102.073 57Z" fill="#EA4343"/>
<path opacity="0.2" d="M54.0728 72C57.3865 72 60.0728 69.3137 60.0728 66C60.0728 62.6863 57.3865 60 54.0728 60C50.759 60 48.0728 62.6863 48.0728 66C48.0728 69.3137 50.759 72 54.0728 72Z" fill="#EA4343"/>
<path opacity="0.2" d="M70.0728 72C73.3865 72 76.0728 69.3137 76.0728 66C76.0728 62.6863 73.3865 60 70.0728 60C66.759 60 64.0728 62.6863 64.0728 66C64.0728 69.3137 66.759 72 70.0728 72Z" fill="#EA4343"/>
<path opacity="0.2" d="M86.0728 72C89.3865 72 92.0728 69.3137 92.0728 66C92.0728 62.6863 89.3865 60 86.0728 60C82.759 60 80.0728 62.6863 80.0728 66C80.0728 69.3137 82.759 72 86.0728 72Z" fill="#EA4343"/>
<path opacity="0.2" d="M102.073 72C105.386 72 108.073 69.3137 108.073 66C108.073 62.6863 105.386 60 102.073 60C98.759 60 96.0728 62.6863 96.0728 66C96.0728 69.3137 98.759 72 102.073 72Z" fill="#EA4343"/>
<path opacity="0.2" d="M38.0728 87C41.3865 87 44.0728 84.3137 44.0728 81C44.0728 77.6863 41.3865 75 38.0728 75C34.759 75 32.0728 77.6863 32.0728 81C32.0728 84.3137 34.759 87 38.0728 87Z" fill="#EA4343"/>
<path opacity="0.2" d="M54.0728 87C57.3865 87 60.0728 84.3137 60.0728 81C60.0728 77.6863 57.3865 75 54.0728 75C50.759 75 48.0728 77.6863 48.0728 81C48.0728 84.3137 50.759 87 54.0728 87Z" fill="#EA4343"/>
<path opacity="0.2" d="M70.0728 87C73.3865 87 76.0728 84.3137 76.0728 81C76.0728 77.6863 73.3865 75 70.0728 75C66.759 75 64.0728 77.6863 64.0728 81C64.0728 84.3137 66.759 87 70.0728 87Z" fill="#EA4343"/>
<path opacity="0.2" d="M86.0728 87C89.3865 87 92.0728 84.3137 92.0728 81C92.0728 77.6863 89.3865 75 86.0728 75C82.759 75 80.0728 77.6863 80.0728 81C80.0728 84.3137 82.759 87 86.0728 87Z" fill="#EA4343"/>
<path opacity="0.2" d="M102.073 87C105.386 87 108.073 84.3137 108.073 81C108.073 77.6863 105.386 75 102.073 75C98.759 75 96.0728 77.6863 96.0728 81C96.0728 84.3137 98.759 87 102.073 87Z" fill="#EA4343"/>
<path opacity="0.2" d="M6.07275 102C9.38646 102 12.0728 99.3137 12.0728 96C12.0728 92.6863 9.38646 90 6.07275 90C2.75905 90 0.0727539 92.6863 0.0727539 96C0.0727539 99.3137 2.75905 102 6.07275 102Z" fill="#EA4343"/>
<path opacity="0.2" d="M22.0728 102C25.3865 102 28.0728 99.3137 28.0728 96C28.0728 92.6863 25.3865 90 22.0728 90C18.759 90 16.0728 92.6863 16.0728 96C16.0728 99.3137 18.759 102 22.0728 102Z" fill="#EA4343"/>
<path opacity="0.2" d="M38.0728 102C41.3865 102 44.0728 99.3137 44.0728 96C44.0728 92.6863 41.3865 90 38.0728 90C34.759 90 32.0728 92.6863 32.0728 96C32.0728 99.3137 34.759 102 38.0728 102Z" fill="#EA4343"/>
<path opacity="0.2" d="M54.0728 102C57.3865 102 60.0728 99.3137 60.0728 96C60.0728 92.6863 57.3865 90 54.0728 90C50.759 90 48.0728 92.6863 48.0728 96C48.0728 99.3137 50.759 102 54.0728 102Z" fill="#EA4343"/>
<path opacity="0.2" d="M70.0728 102C73.3865 102 76.0728 99.3137 76.0728 96C76.0728 92.6863 73.3865 90 70.0728 90C66.759 90 64.0728 92.6863 64.0728 96C64.0728 99.3137 66.759 102 70.0728 102Z" fill="#EA4343"/>
<path opacity="0.2" d="M86.0728 102C89.3865 102 92.0728 99.3137 92.0728 96C92.0728 92.6863 89.3865 90 86.0728 90C82.759 90 80.0728 92.6863 80.0728 96C80.0728 99.3137 82.759 102 86.0728 102Z" fill="#EA4343"/>
<path opacity="0.2" d="M102.073 102C105.386 102 108.073 99.3137 108.073 96C108.073 92.6863 105.386 90 102.073 90C98.759 90 96.0728 92.6863 96.0728 96C96.0728 99.3137 98.759 102 102.073 102Z" fill="#EA4343"/>
</svg>
