<svg width="93" height="42" viewBox="0 0 93 42" fill="none" xmlns="http://www.w3.org/2000/svg">
<g opacity="0.1" clip-path="url(#clip0_288_1677)">
<path d="M6.4502 12C9.7639 12 12.4502 9.31371 12.4502 6C12.4502 2.68629 9.7639 0 6.4502 0C3.13649 0 0.450195 2.68629 0.450195 6C0.450195 9.31371 3.13649 12 6.4502 12Z" fill="#EA4343"/>
<path d="M22.4502 12C25.7639 12 28.4502 9.31371 28.4502 6C28.4502 2.68629 25.7639 0 22.4502 0C19.1365 0 16.4502 2.68629 16.4502 6C16.4502 9.31371 19.1365 12 22.4502 12Z" fill="#EA4343"/>
<path d="M38.4502 12C41.7639 12 44.4502 9.31371 44.4502 6C44.4502 2.68629 41.7639 0 38.4502 0C35.1365 0 32.4502 2.68629 32.4502 6C32.4502 9.31371 35.1365 12 38.4502 12Z" fill="#EA4343"/>
<path d="M22.4502 27C25.7639 27 28.4502 24.3137 28.4502 21C28.4502 17.6863 25.7639 15 22.4502 15C19.1365 15 16.4502 17.6863 16.4502 21C16.4502 24.3137 19.1365 27 22.4502 27Z" fill="#EA4343"/>
<path d="M38.4502 27C41.7639 27 44.4502 24.3137 44.4502 21C44.4502 17.6863 41.7639 15 38.4502 15C35.1365 15 32.4502 17.6863 32.4502 21C32.4502 24.3137 35.1365 27 38.4502 27Z" fill="#EA4343"/>
<path d="M54.4502 27C57.7639 27 60.4502 24.3137 60.4502 21C60.4502 17.6863 57.7639 15 54.4502 15C51.1365 15 48.4502 17.6863 48.4502 21C48.4502 24.3137 51.1365 27 54.4502 27Z" fill="#EA4343"/>
<path d="M22.4502 42C25.7639 42 28.4502 39.3137 28.4502 36C28.4502 32.6863 25.7639 30 22.4502 30C19.1365 30 16.4502 32.6863 16.4502 36C16.4502 39.3137 19.1365 42 22.4502 42Z" fill="#EA4343"/>
<path d="M38.4502 42C41.7639 42 44.4502 39.3137 44.4502 36C44.4502 32.6863 41.7639 30 38.4502 30C35.1365 30 32.4502 32.6863 32.4502 36C32.4502 39.3137 35.1365 42 38.4502 42Z" fill="#EA4343"/>
<path d="M54.4502 42C57.7639 42 60.4502 39.3137 60.4502 36C60.4502 32.6863 57.7639 30 54.4502 30C51.1365 30 48.4502 32.6863 48.4502 36C48.4502 39.3137 51.1365 42 54.4502 42Z" fill="#EA4343"/>
<path d="M70.4502 42C73.7639 42 76.4502 39.3137 76.4502 36C76.4502 32.6863 73.7639 30 70.4502 30C67.1365 30 64.4502 32.6863 64.4502 36C64.4502 39.3137 67.1365 42 70.4502 42Z" fill="#EA4343"/>
<path d="M86.4502 42C89.7639 42 92.4502 39.3137 92.4502 36C92.4502 32.6863 89.7639 30 86.4502 30C83.1365 30 80.4502 32.6863 80.4502 36C80.4502 39.3137 83.1365 42 86.4502 42Z" fill="#EA4343"/>
</g>
<defs>
<clipPath id="clip0_288_1677">
<rect width="92" height="42" fill="white" transform="translate(0.450195)"/>
</clipPath>
</defs>
</svg>
