<svg width="109" height="102" viewBox="0 0 109 102" fill="none" xmlns="http://www.w3.org/2000/svg">
<path opacity="0.2" d="M6.07227 12C2.75856 12 0.0722656 9.31371 0.0722656 6C0.0722656 2.68629 2.75856 0 6.07227 0C9.38597 0 12.0723 2.68629 12.0723 6C12.0723 9.31371 9.38597 12 6.07227 12Z" fill="#EA4343"/>
<path opacity="0.2" d="M6.07227 27C2.75856 27 0.0722656 24.3137 0.0722656 21C0.0722656 17.6863 2.75856 15 6.07227 15C9.38597 15 12.0723 17.6863 12.0723 21C12.0723 24.3137 9.38597 27 6.07227 27Z" fill="#EA4343"/>
<path opacity="0.2" d="M22.0723 42C18.7586 42 16.0723 39.3137 16.0723 36C16.0723 32.6863 18.7586 30 22.0723 30C25.386 30 28.0723 32.6863 28.0723 36C28.0723 39.3137 25.386 42 22.0723 42Z" fill="#EA4343"/>
<path opacity="0.2" d="M6.07227 42C2.75856 42 0.0722656 39.3137 0.0722656 36C0.0722656 32.6863 2.75856 30 6.07227 30C9.38597 30 12.0723 32.6863 12.0723 36C12.0723 39.3137 9.38597 42 6.07227 42Z" fill="#EA4343"/>
<path opacity="0.2" d="M38.0723 57C34.7586 57 32.0723 54.3137 32.0723 51C32.0723 47.6863 34.7586 45 38.0723 45C41.386 45 44.0723 47.6863 44.0723 51C44.0723 54.3137 41.386 57 38.0723 57Z" fill="#EA4343"/>
<path opacity="0.2" d="M22.0723 57C18.7586 57 16.0723 54.3137 16.0723 51C16.0723 47.6863 18.7586 45 22.0723 45C25.386 45 28.0723 47.6863 28.0723 51C28.0723 54.3137 25.386 57 22.0723 57Z" fill="#EA4343"/>
<path opacity="0.2" d="M6.07227 57C2.75856 57 0.0722656 54.3137 0.0722656 51C0.0722656 47.6863 2.75856 45 6.07227 45C9.38597 45 12.0723 47.6863 12.0723 51C12.0723 54.3137 9.38597 57 6.07227 57Z" fill="#EA4343"/>
<path opacity="0.2" d="M54.0723 72C50.7586 72 48.0723 69.3137 48.0723 66C48.0723 62.6863 50.7586 60 54.0723 60C57.386 60 60.0723 62.6863 60.0723 66C60.0723 69.3137 57.386 72 54.0723 72Z" fill="#EA4343"/>
<path opacity="0.2" d="M38.0723 72C34.7586 72 32.0723 69.3137 32.0723 66C32.0723 62.6863 34.7586 60 38.0723 60C41.386 60 44.0723 62.6863 44.0723 66C44.0723 69.3137 41.386 72 38.0723 72Z" fill="#EA4343"/>
<path opacity="0.2" d="M22.0723 72C18.7586 72 16.0723 69.3137 16.0723 66C16.0723 62.6863 18.7586 60 22.0723 60C25.386 60 28.0723 62.6863 28.0723 66C28.0723 69.3137 25.386 72 22.0723 72Z" fill="#EA4343"/>
<path opacity="0.2" d="M6.07227 72C2.75856 72 0.0722656 69.3137 0.0722656 66C0.0722656 62.6863 2.75856 60 6.07227 60C9.38597 60 12.0723 62.6863 12.0723 66C12.0723 69.3137 9.38597 72 6.07227 72Z" fill="#EA4343"/>
<path opacity="0.2" d="M70.0723 87C66.7586 87 64.0723 84.3137 64.0723 81C64.0723 77.6863 66.7586 75 70.0723 75C73.386 75 76.0723 77.6863 76.0723 81C76.0723 84.3137 73.386 87 70.0723 87Z" fill="#EA4343"/>
<path opacity="0.2" d="M54.0723 87C50.7586 87 48.0723 84.3137 48.0723 81C48.0723 77.6863 50.7586 75 54.0723 75C57.386 75 60.0723 77.6863 60.0723 81C60.0723 84.3137 57.386 87 54.0723 87Z" fill="#EA4343"/>
<path opacity="0.2" d="M38.0723 87C34.7586 87 32.0723 84.3137 32.0723 81C32.0723 77.6863 34.7586 75 38.0723 75C41.386 75 44.0723 77.6863 44.0723 81C44.0723 84.3137 41.386 87 38.0723 87Z" fill="#EA4343"/>
<path opacity="0.2" d="M22.0723 87C18.7586 87 16.0723 84.3137 16.0723 81C16.0723 77.6863 18.7586 75 22.0723 75C25.386 75 28.0723 77.6863 28.0723 81C28.0723 84.3137 25.386 87 22.0723 87Z" fill="#EA4343"/>
<path opacity="0.2" d="M6.07227 87C2.75856 87 0.0722656 84.3137 0.0722656 81C0.0722656 77.6863 2.75856 75 6.07227 75C9.38597 75 12.0723 77.6863 12.0723 81C12.0723 84.3137 9.38597 87 6.07227 87Z" fill="#EA4343"/>
<path opacity="0.2" d="M102.072 102C98.7586 102 96.0723 99.3137 96.0723 96C96.0723 92.6863 98.7586 90 102.072 90C105.386 90 108.072 92.6863 108.072 96C108.072 99.3137 105.386 102 102.072 102Z" fill="#EA4343"/>
<path opacity="0.2" d="M86.0723 102C82.7586 102 80.0723 99.3137 80.0723 96C80.0723 92.6863 82.7586 90 86.0723 90C89.386 90 92.0723 92.6863 92.0723 96C92.0723 99.3137 89.386 102 86.0723 102Z" fill="#EA4343"/>
<path opacity="0.2" d="M70.0723 102C66.7586 102 64.0723 99.3137 64.0723 96C64.0723 92.6863 66.7586 90 70.0723 90C73.386 90 76.0723 92.6863 76.0723 96C76.0723 99.3137 73.386 102 70.0723 102Z" fill="#EA4343"/>
<path opacity="0.2" d="M54.0723 102C50.7586 102 48.0723 99.3137 48.0723 96C48.0723 92.6863 50.7586 90 54.0723 90C57.386 90 60.0723 92.6863 60.0723 96C60.0723 99.3137 57.386 102 54.0723 102Z" fill="#EA4343"/>
<path opacity="0.2" d="M38.0723 102C34.7586 102 32.0723 99.3137 32.0723 96C32.0723 92.6863 34.7586 90 38.0723 90C41.386 90 44.0723 92.6863 44.0723 96C44.0723 99.3137 41.386 102 38.0723 102Z" fill="#EA4343"/>
<path opacity="0.2" d="M22.0723 102C18.7586 102 16.0723 99.3137 16.0723 96C16.0723 92.6863 18.7586 90 22.0723 90C25.386 90 28.0723 92.6863 28.0723 96C28.0723 99.3137 25.386 102 22.0723 102Z" fill="#EA4343"/>
<path opacity="0.2" d="M6.07227 102C2.75856 102 0.0722656 99.3137 0.0722656 96C0.0722656 92.6863 2.75856 90 6.07227 90C9.38597 90 12.0723 92.6863 12.0723 96C12.0723 99.3137 9.38597 102 6.07227 102Z" fill="#EA4343"/>
</svg>
