<svg width="120" height="121" viewBox="0 0 120 121" fill="none" xmlns="http://www.w3.org/2000/svg">
<g opacity="0.1" clip-path="url(#clip0_288_5600)">
<path d="M8.0539 65.195C9.09275 65.3476 9.81216 66.3214 9.65854 67.367C9.53555 68.2041 8.89129 68.8355 8.10766 68.9753C8.00887 68.9931 7.90786 69.0041 7.80197 69.0046C7.59404 67.7575 7.43238 66.501 7.31744 65.232C7.41763 65.2048 7.5191 65.1906 7.62278 65.1833C7.76284 65.1684 7.90639 65.1733 8.0539 65.195Z" fill="#F99303"/>
<path d="M77.5025 11.5027C76.7147 11.3869 76.1088 10.7977 75.9311 10.0649C75.9029 9.951 75.8878 9.83583 75.8794 9.71842C77.0002 10.0767 78.103 10.4711 79.1849 10.8979C79.1082 10.9834 79.0194 11.064 78.9257 11.1341C78.5321 11.4345 78.0266 11.5797 77.5025 11.5027Z" fill="#F99303"/>
<path d="M74.6065 9.32874C74.5813 9.43476 74.5476 9.53307 74.5049 9.62685C74.1727 10.4042 73.3506 10.8933 72.4812 10.7655C71.48 10.6184 70.7769 9.70838 70.8662 8.7082C70.8655 8.66937 70.871 8.63146 70.8766 8.59355C70.8868 8.52406 70.8997 8.45818 70.9157 8.39277C72.1653 8.66028 73.3954 8.97332 74.6065 9.32874Z" fill="#F99303"/>
<path d="M67.4705 7.76998C68.1987 7.87696 68.9213 7.99928 69.639 8.13377C69.6417 8.22452 69.6345 8.31705 69.6211 8.40866C69.6187 8.42445 69.6164 8.44025 69.611 8.45558C69.4386 9.47582 68.4826 10.1776 67.4595 10.0273C66.43 9.87604 65.7119 8.91536 65.8511 7.88057L65.8548 7.8553C65.8697 7.75422 65.8904 7.65722 65.9231 7.56522C66.437 7.62459 66.9527 7.69389 67.4705 7.76998Z" fill="#F99303"/>
<path d="M62.4379 9.28914C61.5371 9.1568 60.8776 8.40804 60.8173 7.5311C60.8102 7.42679 60.8125 7.32386 60.8251 7.216C62.0813 7.24244 63.3472 7.31225 64.6186 7.43129C64.6164 7.51164 64.6111 7.59154 64.5995 7.67051C64.5958 7.69578 64.592 7.72105 64.5852 7.74586C64.399 8.75116 63.4516 9.43809 62.4379 9.28914Z" fill="#F99303"/>
<path d="M57.4164 8.55189C56.8326 8.46612 56.3511 8.12107 56.0671 7.65338C56.0106 7.55795 55.9613 7.45712 55.9192 7.35089C57.1086 7.26426 58.3086 7.21468 59.5151 7.20801C59.4827 7.31942 59.4418 7.42313 59.3884 7.525C59.0305 8.23722 58.2449 8.67363 57.4164 8.55189Z" fill="#F99303"/>
<path d="M86.0733 14.2307C86.4506 13.9763 86.9205 13.855 87.4069 13.9264C88.4364 14.0777 89.1518 15.0348 89.0157 16.07L89.0116 16.0984C88.9967 16.1995 88.9761 16.2965 88.9433 16.3885C88.672 17.2748 87.7884 17.855 86.85 17.7171C85.8111 17.5644 85.0917 16.5907 85.2454 15.5451C85.3099 15.106 85.5168 14.7233 85.8152 14.438C85.8936 14.3624 85.981 14.2914 86.0733 14.2307Z" fill="#F99303"/>
<path d="M81.828 16.9788C80.788 16.826 80.0696 15.8536 80.2234 14.8068C80.3772 13.76 81.3449 13.0354 82.385 13.1882C83.425 13.341 84.1434 14.3134 83.9896 15.3602C83.8358 16.4069 82.868 17.1316 81.828 16.9788Z" fill="#F99303"/>
<path d="M76.8065 16.2415C75.7665 16.0887 75.0481 15.1163 75.2019 14.0695C75.3557 13.0227 76.3235 12.2981 77.3635 12.4509C78.4035 12.6037 79.1219 13.5761 78.9681 14.6229C78.8143 15.6696 77.8465 16.3943 76.8065 16.2415Z" fill="#F99303"/>
<path d="M71.785 15.5032C70.745 15.3504 70.0266 14.378 70.1804 13.3312C70.3342 12.2845 71.302 11.5598 72.342 11.7126C73.382 11.8654 74.1004 12.8378 73.9466 13.8846C73.7928 14.9313 72.8251 15.656 71.785 15.5032Z" fill="#F99303"/>
<path d="M66.7636 14.7659C65.7235 14.6131 65.0051 13.6407 65.1589 12.5939C65.3127 11.5472 66.2805 10.8225 67.3205 10.9753C68.3605 11.1281 69.0789 12.1005 68.9251 13.1473C68.7713 14.194 67.8036 14.9187 66.7636 14.7659Z" fill="#F99303"/>
<path d="M61.7416 14.0276C60.7016 13.8748 59.9832 12.9024 60.137 11.8556C60.2908 10.8089 61.2585 10.0842 62.2985 10.237C63.3385 10.3898 64.057 11.3622 63.9032 12.409C63.7494 13.4557 62.7816 14.1804 61.7416 14.0276Z" fill="#F99303"/>
<path d="M56.7201 13.2903C55.6801 13.1375 54.9617 12.1651 55.1155 11.1183C55.2693 10.0716 56.237 9.34688 57.277 9.49969C58.3171 9.65249 59.0355 10.6249 58.8817 11.6717C58.7279 12.7184 57.7601 13.4431 56.7201 13.2903Z" fill="#F99303"/>
<path d="M51.6986 12.552C50.6586 12.3992 49.9402 11.4268 50.094 10.38C50.2478 9.33329 51.2155 8.6086 52.2556 8.76141C53.2956 8.91421 54.014 9.88665 53.8602 10.9334C53.7064 11.9802 52.7386 12.7048 51.6986 12.552Z" fill="#F99303"/>
<path d="M48.2403 8.50424C48.3278 8.58487 48.4077 8.67405 48.4772 8.76817C48.7719 9.16321 48.9152 9.67156 48.8382 10.1959C48.6846 11.2415 47.7154 11.9672 46.6766 11.8146C45.6409 11.6624 44.921 10.6918 45.071 9.64889C45.0715 9.64573 45.0715 9.64573 45.072 9.64257C45.0891 9.52569 45.1153 9.41336 45.153 9.30919C46.1716 9.01029 47.2018 8.74213 48.2403 8.50424Z" fill="#F99303"/>
<path d="M41.6553 11.0771C41.5046 11.0549 41.3599 11.0143 41.2238 10.9588C41.0961 10.911 40.9776 10.8452 40.8666 10.7708C41.8156 10.4003 42.7766 10.0575 43.7495 9.74219C43.7143 9.87255 43.6608 9.99699 43.5956 10.1133C43.2208 10.7875 42.4587 11.1951 41.6553 11.0771Z" fill="#F99303"/>
<path d="M95.0402 20.7823C95.9823 21.6371 96.891 22.5225 97.7659 23.4417C97.6884 23.511 97.6082 23.5766 97.5196 23.6346C97.1459 23.8863 96.6801 24.0018 96.1968 23.9307C95.1579 23.7781 94.4385 22.8043 94.5921 21.7588C94.6311 21.4934 94.7216 21.2485 94.8559 21.0327C94.9075 20.9435 94.9712 20.8592 95.0402 20.7823Z" fill="#F99303"/>
<path d="M91.1752 23.1927C90.1352 23.0399 89.4168 22.0674 89.5705 21.0207C89.7243 19.9739 90.6921 19.2492 91.7321 19.402C92.7721 19.5548 93.4906 20.5273 93.3368 21.574C93.183 22.6208 92.2152 23.3455 91.1752 23.1927Z" fill="#F99303"/>
<path d="M86.1537 22.4554C85.1137 22.3026 84.3953 21.3301 84.5491 20.2834C84.7029 19.2366 85.6706 18.5119 86.7106 18.6647C87.7507 18.8175 88.4691 19.79 88.3153 20.8367C88.1615 21.8835 87.1937 22.6082 86.1537 22.4554Z" fill="#F99303"/>
<path d="M81.1317 21.7171C80.0917 21.5643 79.3733 20.5918 79.5271 19.5451C79.6809 18.4983 80.6487 17.7736 81.6887 17.9264C82.7287 18.0793 83.4471 19.0517 83.2933 20.0984C83.1395 21.1452 82.1717 21.8699 81.1317 21.7171Z" fill="#F99303"/>
<path d="M76.1102 20.9798C75.0702 20.827 74.3518 19.8545 74.5056 18.8078C74.6594 17.761 75.6272 17.0363 76.6672 17.1891C77.7072 17.3419 78.4256 18.3144 78.2718 19.3611C78.118 20.4079 77.1503 21.1326 76.1102 20.9798Z" fill="#F99303"/>
<path d="M71.0888 20.2415C70.0488 20.0887 69.3303 19.1163 69.4841 18.0695C69.6379 17.0227 70.6057 16.2981 71.6457 16.4509C72.6857 16.6037 73.4041 17.5761 73.2503 18.6229C73.0965 19.6696 72.1288 20.3943 71.0888 20.2415Z" fill="#F99303"/>
<path d="M66.0673 19.5042C65.0273 19.3514 64.3088 18.3789 64.4626 17.3322C64.6164 16.2854 65.5842 15.5608 66.6242 15.7136C67.6642 15.8664 68.3826 16.8388 68.2289 17.8855C68.0751 18.9323 67.1073 19.657 66.0673 19.5042Z" fill="#F99303"/>
<path d="M61.0453 18.7659C60.0053 18.6131 59.2869 17.6407 59.4407 16.5939C59.5945 15.5472 60.5622 14.8225 61.6022 14.9753C62.6423 15.1281 63.3607 16.1005 63.2069 17.1473C63.0531 18.194 62.0853 18.9187 61.0453 18.7659Z" fill="#F99303"/>
<path d="M56.0238 18.0286C54.9838 17.8758 54.2654 16.9034 54.4192 15.8566C54.573 14.8099 55.5407 14.0852 56.5808 14.238C57.6208 14.3908 58.3392 15.3632 58.1854 16.41C58.0316 17.4567 57.0638 18.1814 56.0238 18.0286Z" fill="#F99303"/>
<path d="M51.0023 17.2903C49.9623 17.1375 49.2439 16.1651 49.3977 15.1183C49.5515 14.0716 50.5193 13.3469 51.5593 13.4997C52.5993 13.6525 53.3177 14.6249 53.1639 15.6717C53.0101 16.7184 52.0423 17.4431 51.0023 17.2903Z" fill="#F99303"/>
<path d="M45.9808 16.553C44.9408 16.4002 44.2224 15.4278 44.3762 14.381C44.53 13.3343 45.4978 12.6096 46.5378 12.7624C47.5778 12.9152 48.2962 13.8876 48.1424 14.9344C47.9886 15.9811 47.0209 16.7058 45.9808 16.553Z" fill="#F99303"/>
<path d="M40.9589 15.8147C39.9189 15.6619 39.2004 14.6895 39.3542 13.6427C39.508 12.596 40.4758 11.8713 41.5158 12.0241C42.5558 12.1769 43.2742 13.1493 43.1205 14.1961C42.9667 15.2428 41.9989 15.9675 40.9589 15.8147Z" fill="#F99303"/>
<path d="M35.9377 15.0769C35.3194 14.986 34.8116 14.6016 34.5408 14.0874C34.4901 13.9961 34.4493 13.903 34.4157 13.8044C35.5126 13.1911 36.6353 12.6203 37.778 12.0879C37.8395 12.1712 37.8902 12.2625 37.9346 12.353C38.0941 12.6862 38.1568 13.0665 38.0993 13.4582C37.9456 14.5038 36.9765 15.2295 35.9377 15.0769Z" fill="#F99303"/>
<path d="M99.9041 25.824C100.249 25.6359 100.659 25.5541 101.079 25.6159C102.118 25.7685 102.838 26.7423 102.684 27.7879C102.628 28.1701 102.466 28.5078 102.225 28.7756C102.158 28.8563 102.077 28.9314 101.993 28.9998C101.596 29.3254 101.068 29.4868 100.522 29.4065C99.4835 29.2539 98.7641 28.2801 98.9177 27.2345C98.9929 26.7228 99.262 26.288 99.6381 25.9979C99.7214 25.9327 99.8101 25.8747 99.9041 25.824Z" fill="#F99303"/>
<path d="M95.5009 28.6692C94.4609 28.5164 93.7424 27.544 93.8962 26.4972C94.05 25.4505 95.0178 24.7258 96.0578 24.8786C97.0978 25.0314 97.8162 26.0038 97.6624 27.0506C97.5087 28.0973 96.5409 28.822 95.5009 28.6692Z" fill="#F99303"/>
<path d="M90.4789 27.9309C89.4389 27.7781 88.7205 26.8057 88.8743 25.759C89.0281 24.7122 89.9958 23.9875 91.0358 24.1403C92.0758 24.2931 92.7943 25.2656 92.6405 26.3123C92.4867 27.3591 91.5189 28.0837 90.4789 27.9309Z" fill="#F99303"/>
<path d="M85.4574 27.1936C84.4174 27.0408 83.699 26.0684 83.8528 25.0216C84.0066 23.9749 84.9743 23.2502 86.0144 23.403C87.0544 23.5558 87.7728 24.5282 87.619 25.575C87.4652 26.6218 86.4974 27.3464 85.4574 27.1936Z" fill="#F99303"/>
<path d="M80.4359 26.4554C79.3959 26.3026 78.6775 25.3301 78.8313 24.2834C78.9851 23.2366 79.9529 22.5119 80.9929 22.6647C82.0329 22.8175 82.7513 23.79 82.5975 24.8367C82.4437 25.8835 81.4759 26.6082 80.4359 26.4554Z" fill="#F99303"/>
<path d="M75.4144 25.7181C74.3744 25.5652 73.656 24.5928 73.8098 23.5461C73.9636 22.4993 74.9314 21.7746 75.9714 21.9274C77.0114 22.0802 77.7298 23.0527 77.576 24.0994C77.4222 25.1462 76.4545 25.8709 75.4144 25.7181Z" fill="#F99303"/>
<path d="M70.3925 24.9798C69.3525 24.827 68.634 23.8545 68.7878 22.8078C68.9416 21.761 69.9094 21.0363 70.9494 21.1891C71.9894 21.3419 72.7078 22.3144 72.554 23.3611C72.4003 24.4079 71.4325 25.1326 70.3925 24.9798Z" fill="#F99303"/>
<path d="M65.371 24.2425C64.331 24.0897 63.6125 23.1172 63.7663 22.0705C63.9201 21.0237 64.8879 20.299 65.9279 20.4518C66.9679 20.6046 67.6864 21.5771 67.5326 22.6238C67.3788 23.6706 66.411 24.3953 65.371 24.2425Z" fill="#F99303"/>
<path d="M60.3495 23.5042C59.3095 23.3514 58.5911 22.3789 58.7449 21.3322C58.8987 20.2854 59.8664 19.5608 60.9064 19.7136C61.9465 19.8664 62.6649 20.8388 62.5111 21.8855C62.3573 22.9323 61.3895 23.657 60.3495 23.5042Z" fill="#F99303"/>
<path d="M55.328 22.7669C54.288 22.6141 53.5696 21.6416 53.7234 20.5949C53.8772 19.5481 54.8449 18.8234 55.885 18.9763C56.925 19.1291 57.6434 20.1015 57.4896 21.1482C57.3358 22.195 56.368 22.9197 55.328 22.7669Z" fill="#F99303"/>
<path d="M50.306 22.0286C49.266 21.8758 48.5476 20.9034 48.7014 19.8566C48.8552 18.8099 49.823 18.0852 50.863 18.238C51.903 18.3908 52.6214 19.3632 52.4676 20.41C52.3138 21.4567 51.3461 22.1814 50.306 22.0286Z" fill="#F99303"/>
<path d="M45.2846 21.2913C44.2445 21.1385 43.5261 20.1661 43.6799 19.1193C43.8337 18.0725 44.8015 17.3479 45.8415 17.5007C46.8815 17.6535 47.5999 18.6259 47.4461 19.6727C47.2923 20.7194 46.3246 21.4441 45.2846 21.2913Z" fill="#F99303"/>
<path d="M40.2626 20.553C39.2226 20.4002 38.5041 19.4278 38.6579 18.381C38.8117 17.3343 39.7795 16.6096 40.8195 16.7624C41.8595 16.9152 42.578 17.8876 42.4242 18.9344C42.2704 19.9811 41.3026 20.7058 40.2626 20.553Z" fill="#F99303"/>
<path d="M35.2416 19.8157C34.2016 19.6629 33.4832 18.6905 33.6369 17.6437C33.7907 16.597 34.7585 15.8723 35.7985 16.0251C36.8385 16.1779 37.557 17.1503 37.4032 18.1971C37.2494 19.2438 36.2816 19.9685 35.2416 19.8157Z" fill="#F99303"/>
<path d="M30.2199 19.0772C29.5138 18.9734 28.9535 18.4877 28.7156 17.859C28.6766 17.7532 28.6449 17.6421 28.6261 17.5296C29.5614 16.8377 30.5181 16.1747 31.4984 15.5475C31.5923 15.6064 31.6818 15.6744 31.7635 15.751C32.2259 16.161 32.479 16.7952 32.3815 17.4585C32.2279 18.5041 31.2588 19.2298 30.2199 19.0772Z" fill="#F99303"/>
<path d="M104.039 31.4204C104.722 32.4889 105.369 33.5812 105.978 34.6968C105.884 34.7475 105.789 34.7852 105.688 34.8156C105.426 34.8996 105.14 34.9254 104.848 34.8825C103.809 34.7299 103.089 33.7561 103.243 32.7105C103.306 32.2809 103.505 31.9068 103.794 31.6264C103.866 31.5499 103.949 31.4815 104.039 31.4204Z" fill="#F99303"/>
<path d="M99.8261 34.1448C98.7861 33.992 98.0676 33.0196 98.2214 31.9728C98.3752 30.9261 99.343 30.2014 100.383 30.3542C101.423 30.507 102.141 31.4794 101.988 32.5262C101.834 33.5729 100.866 34.2976 99.8261 34.1448Z" fill="#F99303"/>
<path d="M94.8046 33.4075C93.7646 33.2547 93.0461 32.2823 93.1999 31.2355C93.3537 30.1888 94.3215 29.4641 95.3615 29.6169C96.4015 29.7697 97.12 30.7421 96.9662 31.7889C96.8124 32.8356 95.8446 33.5603 94.8046 33.4075Z" fill="#F99303"/>
<path d="M89.7831 32.6692C88.7431 32.5164 88.0247 31.544 88.1785 30.4972C88.3323 29.4505 89.3 28.7258 90.34 28.8786C91.38 29.0314 92.0985 30.0038 91.9447 31.0506C91.7909 32.0973 90.8231 32.822 89.7831 32.6692Z" fill="#F99303"/>
<path d="M84.7611 31.9319C83.7211 31.7791 83.0027 30.8067 83.1565 29.7599C83.3103 28.7132 84.2781 27.9885 85.3181 28.1413C86.3581 28.2941 87.0765 29.2665 86.9227 30.3133C86.7689 31.36 85.8011 32.0847 84.7611 31.9319Z" fill="#F99303"/>
<path d="M79.7396 31.1936C78.6996 31.0408 77.9812 30.0684 78.135 29.0216C78.2888 27.9749 79.2566 27.2502 80.2966 27.403C81.3366 27.5558 82.055 28.5282 81.9012 29.575C81.7474 30.6218 80.7796 31.3464 79.7396 31.1936Z" fill="#F99303"/>
<path d="M74.7182 30.4563C73.6781 30.3035 72.9597 29.3311 73.1135 28.2843C73.2673 27.2376 74.2351 26.5129 75.2751 26.6657C76.3151 26.8185 77.0335 27.7909 76.8797 28.8377C76.7259 29.8844 75.7582 30.6091 74.7182 30.4563Z" fill="#F99303"/>
<path d="M69.6967 29.7181C68.6567 29.5652 67.9382 28.5928 68.092 27.5461C68.2458 26.4993 69.2136 25.7746 70.2536 25.9274C71.2936 26.0802 72.012 27.0527 71.8582 28.0994C71.7045 29.1462 70.7367 29.8709 69.6967 29.7181Z" fill="#F99303"/>
<path d="M64.6747 28.9807C63.6347 28.8279 62.9163 27.8555 63.07 26.8088C63.2238 25.762 64.1916 25.0373 65.2316 25.1901C66.2716 25.3429 66.9901 26.3154 66.8363 27.3621C66.6825 28.4089 65.7147 29.1336 64.6747 28.9807Z" fill="#F99303"/>
<path d="M59.6532 28.2425C58.6132 28.0897 57.8948 27.1172 58.0486 26.0705C58.2024 25.0237 59.1701 24.299 60.2102 24.4518C61.2502 24.6046 61.9686 25.5771 61.8148 26.6238C61.661 27.6706 60.6932 28.3953 59.6532 28.2425Z" fill="#F99303"/>
<path d="M54.6317 27.5052C53.5917 27.3524 52.8733 26.3799 53.0271 25.3332C53.1809 24.2864 54.1487 23.5617 55.1887 23.7145C56.2287 23.8673 56.9471 24.8398 56.7933 25.8865C56.6395 26.9333 55.6717 27.658 54.6317 27.5052Z" fill="#F99303"/>
<path d="M49.6102 26.7669C48.5702 26.6141 47.8518 25.6416 48.0056 24.5949C48.1594 23.5481 49.1272 22.8234 50.1672 22.9763C51.2072 23.1291 51.9256 24.1015 51.7718 25.1482C51.618 26.195 50.6503 26.9197 49.6102 26.7669Z" fill="#F99303"/>
<path d="M44.5883 26.0296C43.5483 25.8768 42.8298 24.9043 42.9836 23.8576C43.1374 22.8108 44.1052 22.0861 45.1452 22.2389C46.1852 22.3918 46.9036 23.3642 46.7498 24.4109C46.5961 25.4577 45.6283 26.1824 44.5883 26.0296Z" fill="#F99303"/>
<path d="M39.5668 25.2913C38.5268 25.1385 37.8083 24.1661 37.9621 23.1193C38.1159 22.0725 39.0837 21.3479 40.1237 21.5007C41.1637 21.6535 41.8822 22.6259 41.7284 23.6727C41.5746 24.7194 40.6068 25.4441 39.5668 25.2913Z" fill="#F99303"/>
<path d="M34.5453 24.554C33.5053 24.4012 32.7869 23.4287 32.9407 22.382C33.0945 21.3352 34.0622 20.6106 35.1022 20.7634C36.1423 20.9162 36.8607 21.8886 36.7069 22.9354C36.5531 23.9821 35.5853 24.7068 34.5453 24.554Z" fill="#F99303"/>
<path d="M29.5233 23.8157C28.4833 23.6629 27.7649 22.6905 27.9187 21.6437C28.0725 20.597 29.0403 19.8723 30.0803 20.0251C31.1203 20.1779 31.8387 21.1503 31.6849 22.1971C31.5311 23.2438 30.5633 23.9685 29.5233 23.8157Z" fill="#F99303"/>
<path d="M24.502 23.0778C24.0312 23.0086 23.6268 22.7717 23.3399 22.4327C23.2712 22.3548 23.207 22.268 23.1527 22.1793C24.0508 21.3044 24.9791 20.463 25.9343 19.6578C26.021 19.7222 26.1001 19.7951 26.1719 19.8735C26.554 20.2846 26.7517 20.859 26.6636 21.4592C26.5099 22.5048 25.5408 23.2305 24.502 23.0778Z" fill="#F99303"/>
<path d="M104.152 39.6214C103.112 39.4686 102.393 38.4961 102.547 37.4494C102.701 36.4026 103.669 35.6779 104.709 35.8307C105.749 35.9835 106.467 36.956 106.313 38.0027C106.16 39.0495 105.192 39.7742 104.152 39.6214Z" fill="#F99303"/>
<path d="M99.1298 38.8831C98.0898 38.7303 97.3713 37.7579 97.5251 36.7111C97.6789 35.6643 98.6467 34.9397 99.6867 35.0925C100.727 35.2453 101.445 36.2177 101.291 37.2645C101.138 38.3112 100.17 39.0359 99.1298 38.8831Z" fill="#F99303"/>
<path d="M94.1083 38.1458C93.0683 37.993 92.3499 37.0205 92.5037 35.9738C92.6575 34.927 93.6252 34.2024 94.6652 34.3552C95.7052 34.508 96.4237 35.4804 96.2699 36.5272C96.1161 37.5739 95.1483 38.2986 94.1083 38.1458Z" fill="#F99303"/>
<path d="M89.0868 37.4075C88.0468 37.2547 87.3284 36.2823 87.4822 35.2355C87.636 34.1888 88.6037 33.4641 89.6437 33.6169C90.6838 33.7697 91.4022 34.7421 91.2484 35.7889C91.0946 36.8356 90.1268 37.5603 89.0868 37.4075Z" fill="#F99303"/>
<path d="M84.0653 36.6702C83.0253 36.5174 82.3069 35.545 82.4607 34.4982C82.6145 33.4515 83.5823 32.7268 84.6223 32.8796C85.6623 33.0324 86.3807 34.0048 86.2269 35.0516C86.0731 36.0983 85.1053 36.823 84.0653 36.6702Z" fill="#F99303"/>
<path d="M79.0433 35.9319C78.0033 35.7791 77.2849 34.8067 77.4387 33.7599C77.5925 32.7132 78.5603 31.9885 79.6003 32.1413C80.6403 32.2941 81.3587 33.2665 81.2049 34.3133C81.0511 35.36 80.0834 36.0847 79.0433 35.9319Z" fill="#F99303"/>
<path d="M74.0219 35.1946C72.9819 35.0418 72.2634 34.0694 72.4172 33.0226C72.571 31.9759 73.5388 31.2512 74.5788 31.404C75.6188 31.5568 76.3372 32.5292 76.1834 33.576C76.0296 34.6227 75.0619 35.3474 74.0219 35.1946Z" fill="#F99303"/>
<path d="M69.0004 34.4563C67.9604 34.3035 67.242 33.3311 67.3957 32.2843C67.5495 31.2376 68.5173 30.5129 69.5573 30.6657C70.5973 30.8185 71.3158 31.7909 71.162 32.8377C71.0082 33.8845 70.0404 34.6091 69.0004 34.4563Z" fill="#F99303"/>
<path d="M63.9784 33.719C62.9384 33.5662 62.22 32.5938 62.3738 31.547C62.5276 30.5003 63.4953 29.7756 64.5353 29.9284C65.5754 30.0812 66.2938 31.0536 66.14 32.1004C65.9862 33.1471 65.0184 33.8718 63.9784 33.719Z" fill="#F99303"/>
<path d="M58.9569 32.9807C57.9169 32.8279 57.1985 31.8555 57.3523 30.8088C57.5061 29.762 58.4739 29.0373 59.5139 29.1901C60.5539 29.3429 61.2723 30.3154 61.1185 31.3621C60.9647 32.4089 59.9969 33.1336 58.9569 32.9807Z" fill="#F99303"/>
<path d="M53.9354 32.2434C52.8954 32.0906 52.177 31.1182 52.3308 30.0715C52.4846 29.0247 53.4524 28.3 54.4924 28.4528C55.5324 28.6056 56.2508 29.5781 56.097 30.6248C55.9432 31.6716 54.9754 32.3963 53.9354 32.2434Z" fill="#F99303"/>
<path d="M48.9139 31.5052C47.8739 31.3524 47.1555 30.3799 47.3093 29.3332C47.4631 28.2864 48.4309 27.5617 49.4709 27.7145C50.5109 27.8673 51.2293 28.8398 51.0755 29.8865C50.9217 30.9333 49.954 31.658 48.9139 31.5052Z" fill="#F99303"/>
<path d="M43.892 30.7679C42.852 30.6151 42.1335 29.6426 42.2873 28.5959C42.4411 27.5491 43.4089 26.8244 44.4489 26.9772C45.4889 27.13 46.2074 28.1025 46.0536 29.1492C45.8998 30.196 44.932 30.9207 43.892 30.7679Z" fill="#F99303"/>
<path d="M38.8705 30.0296C37.8305 29.8768 37.1121 28.9043 37.2659 27.8576C37.4196 26.8108 38.3874 26.0861 39.4274 26.2389C40.4674 26.3918 41.1859 27.3642 41.0321 28.4109C40.8783 29.4577 39.9105 30.1824 38.8705 30.0296Z" fill="#F99303"/>
<path d="M33.849 29.2923C32.809 29.1395 32.0906 28.167 32.2444 27.1203C32.3982 26.0735 33.3659 25.3488 34.406 25.5016C35.446 25.6544 36.1644 26.6269 36.0106 27.6736C35.8568 28.7204 34.889 29.4451 33.849 29.2923Z" fill="#F99303"/>
<path d="M28.8275 28.554C27.7875 28.4012 27.0691 27.4288 27.2229 26.382C27.3767 25.3352 28.3445 24.6106 29.3845 24.7634C30.4245 24.9162 31.1429 25.8886 30.9891 26.9354C30.8353 27.9821 29.8675 28.7068 28.8275 28.554Z" fill="#F99303"/>
<path d="M23.8056 27.8167C22.7655 27.6639 22.0471 26.6914 22.2009 25.6447C22.3547 24.5979 23.3225 23.8733 24.3625 24.0261C25.4025 24.1789 26.1209 25.1513 25.9671 26.198C25.8133 27.2448 24.8456 27.9695 23.8056 27.8167Z" fill="#F99303"/>
<path d="M19.086 27.0971C18.9863 27.0986 18.8876 27.0938 18.7841 27.0786C18.7621 27.0754 18.7401 27.0721 18.7218 27.0662C19.4093 26.2056 20.1223 25.368 20.8608 24.5536C20.9015 24.6693 20.9314 24.7931 20.9483 24.9182C20.9739 25.093 20.9726 25.2767 20.9457 25.46C20.8069 26.4045 20.0045 27.0869 19.086 27.0971Z" fill="#F99303"/>
<path d="M108.681 41.2867C108.79 41.2835 108.899 41.2865 109.012 41.3031L109.034 41.3063C110.073 41.459 110.792 42.4327 110.639 43.4783C110.578 43.8921 110.389 44.2581 110.118 44.5345C110.042 44.6137 109.957 44.6884 109.868 44.7527C109.483 45.035 108.989 45.1721 108.477 45.097C107.438 44.9443 106.719 43.9705 106.872 42.925C107.008 41.9994 107.784 41.3228 108.681 41.2867Z" fill="#F99303"/>
<path d="M103.455 44.3597C102.415 44.2068 101.697 43.2344 101.851 42.1877C102.005 41.1409 102.972 40.4162 104.012 40.569C105.052 40.7218 105.771 41.6943 105.617 42.741C105.463 43.7878 104.495 44.5125 103.455 44.3597Z" fill="#F99303"/>
<path d="M98.434 43.6214C97.394 43.4686 96.6755 42.4961 96.8293 41.4494C96.9831 40.4026 97.9509 39.6779 98.9909 39.8307C100.031 39.9835 100.749 40.956 100.596 42.0027C100.442 43.0495 99.474 43.7742 98.434 43.6214Z" fill="#F99303"/>
<path d="M93.412 42.8841C92.372 42.7313 91.6536 41.7588 91.8074 40.7121C91.9612 39.6653 92.9289 38.9406 93.9689 39.0934C95.009 39.2462 95.7274 40.2187 95.5736 41.2654C95.4198 42.3122 94.452 43.0369 93.412 42.8841Z" fill="#F99303"/>
<path d="M88.3905 42.1458C87.3505 41.993 86.6321 41.0205 86.7859 39.9738C86.9397 38.927 87.9074 38.2024 88.9475 38.3552C89.9875 38.508 90.7059 39.4804 90.5521 40.5271C90.3983 41.5739 89.4305 42.2986 88.3905 42.1458Z" fill="#F99303"/>
<path d="M83.369 41.4085C82.329 41.2557 81.6106 40.2832 81.7644 39.2365C81.9182 38.1897 82.886 37.465 83.926 37.6179C84.966 37.7707 85.6844 38.7431 85.5306 39.7898C85.3768 40.8366 84.409 41.5613 83.369 41.4085Z" fill="#F99303"/>
<path d="M78.3471 40.6702C77.307 40.5174 76.5886 39.545 76.7424 38.4982C76.8962 37.4515 77.864 36.7268 78.904 36.8796C79.944 37.0324 80.6624 38.0048 80.5086 39.0516C80.3548 40.0983 79.3871 40.823 78.3471 40.6702Z" fill="#F99303"/>
<path d="M73.3256 39.9329C72.2856 39.7801 71.5671 38.8077 71.7209 37.7609C71.8747 36.7142 72.8425 35.9895 73.8825 36.1423C74.9225 36.2951 75.6409 37.2675 75.4872 38.3143C75.3334 39.361 74.3656 40.0857 73.3256 39.9329Z" fill="#F99303"/>
<path d="M68.3041 39.1946C67.2641 39.0418 66.5457 38.0694 66.6995 37.0226C66.8533 35.9759 67.821 35.2512 68.861 35.404C69.901 35.5568 70.6195 36.5292 70.4657 37.576C70.3119 38.6227 69.3441 39.3474 68.3041 39.1946Z" fill="#F99303"/>
<path d="M63.2826 38.4573C62.2426 38.3045 61.5242 37.3321 61.678 36.2853C61.8318 35.2386 62.7995 34.5139 63.8395 34.6667C64.8796 34.8195 65.598 35.7919 65.4442 36.8387C65.2904 37.8854 64.3226 38.6101 63.2826 38.4573Z" fill="#F99303"/>
<path d="M58.2606 37.719C57.2206 37.5662 56.5022 36.5938 56.656 35.547C56.8098 34.5003 57.7776 33.7756 58.8176 33.9284C59.8576 34.0812 60.576 35.0536 60.4222 36.1004C60.2684 37.1471 59.3006 37.8718 58.2606 37.719Z" fill="#F99303"/>
<path d="M53.2391 36.9817C52.1991 36.8289 51.4807 35.8565 51.6345 34.8097C51.7883 33.763 52.7561 33.0383 53.7961 33.1911C54.8361 33.3439 55.5545 34.3163 55.4007 35.3631C55.2469 36.4098 54.2792 37.1345 53.2391 36.9817Z" fill="#F99303"/>
<path d="M48.2177 36.2434C47.1776 36.0906 46.4592 35.1182 46.613 34.0714C46.7668 33.0247 47.7346 32.3 48.7746 32.4528C49.8146 32.6056 50.533 33.5781 50.3792 34.6248C50.2254 35.6716 49.2577 36.3962 48.2177 36.2434Z" fill="#F99303"/>
<path d="M43.1962 35.5061C42.1562 35.3533 41.4377 34.3809 41.5915 33.3341C41.7453 32.2874 42.7131 31.5627 43.7531 31.7155C44.7931 31.8683 45.5116 32.8407 45.3578 33.8875C45.204 34.9343 44.2362 35.6589 43.1962 35.5061Z" fill="#F99303"/>
<path d="M38.1742 34.7679C37.1342 34.615 36.4158 33.6426 36.5696 32.5959C36.7234 31.5491 37.6911 30.8244 38.7311 30.9772C39.7712 31.13 40.4896 32.1025 40.3358 33.1492C40.182 34.196 39.2142 34.9207 38.1742 34.7679Z" fill="#F99303"/>
<path d="M33.1527 34.0306C32.1127 33.8777 31.3943 32.9053 31.5481 31.8586C31.7019 30.8118 32.6696 30.0871 33.7097 30.2399C34.7497 30.3927 35.4681 31.3652 35.3143 32.4119C35.1605 33.4587 34.1927 34.1834 33.1527 34.0306Z" fill="#F99303"/>
<path d="M28.1312 33.2923C27.0912 33.1395 26.3728 32.167 26.5266 31.1203C26.6804 30.0735 27.6482 29.3488 28.6882 29.5016C29.7282 29.6544 30.4466 30.6269 30.2928 31.6736C30.139 32.7204 29.1713 33.4451 28.1312 33.2923Z" fill="#F99303"/>
<path d="M23.1093 32.555C22.0693 32.4022 21.3508 31.4297 21.5046 30.383C21.6584 29.3362 22.6262 28.6115 23.6662 28.7643C24.7062 28.9171 25.4246 29.8896 25.2708 30.9363C25.117 31.9831 24.1493 32.7078 23.1093 32.555Z" fill="#F99303"/>
<path d="M18.0883 31.8167C17.3476 31.7079 16.7709 31.181 16.5552 30.5104C16.5106 30.378 16.4835 30.2352 16.4725 30.0916C16.9492 29.4001 17.4429 28.7239 17.9483 28.056L17.9487 28.0528C18.0848 28.0212 18.2249 28.0063 18.3689 28.0081C18.4591 28.0052 18.5511 28.0122 18.6452 28.0261C19.6841 28.1787 20.4035 29.1525 20.2498 30.198C20.0962 31.2436 19.1271 31.9693 18.0883 31.8167Z" fill="#F99303"/>
<path d="M107.781 49.8352C106.741 49.6824 106.022 48.71 106.176 47.6632C106.33 46.6165 107.298 45.8918 108.338 46.0446C109.378 46.1974 110.096 47.1699 109.942 48.2166C109.788 49.2634 108.821 49.988 107.781 49.8352Z" fill="#F99303"/>
<path d="M102.759 49.0979C101.719 48.9451 101.001 47.9727 101.155 46.9259C101.308 45.8792 102.276 45.1545 103.316 45.3073C104.356 45.4601 105.075 46.4325 104.921 47.4793C104.767 48.5261 103.799 49.2507 102.759 49.0979Z" fill="#F99303"/>
<path d="M97.7377 48.3597C96.6977 48.2069 95.9793 47.2344 96.1331 46.1877C96.2868 45.1409 97.2546 44.4162 98.2946 44.569C99.3346 44.7218 100.053 45.6943 99.8993 46.741C99.7455 47.7878 98.7777 48.5125 97.7377 48.3597Z" fill="#F99303"/>
<path d="M92.7162 47.6224C91.6762 47.4695 90.9578 46.4971 91.1116 45.4504C91.2654 44.4036 92.2331 43.6789 93.2731 43.8317C94.3132 43.9845 95.0316 44.957 94.8778 46.0037C94.724 47.0505 93.7562 47.7752 92.7162 47.6224Z" fill="#F99303"/>
<path d="M87.6942 46.8841C86.6542 46.7313 85.9358 45.7588 86.0896 44.7121C86.2434 43.6653 87.2112 42.9406 88.2512 43.0934C89.2912 43.2462 90.0096 44.2187 89.8558 45.2654C89.702 46.3122 88.7342 47.0369 87.6942 46.8841Z" fill="#F99303"/>
<path d="M82.6727 46.1468C81.6327 45.994 80.9143 45.0215 81.0681 43.9748C81.2219 42.928 82.1897 42.2033 83.2297 42.3561C84.2697 42.5089 84.9881 43.4814 84.8343 44.5281C84.6805 45.5749 83.7128 46.2996 82.6727 46.1468Z" fill="#F99303"/>
<path d="M77.6513 45.4085C76.6112 45.2557 75.8928 44.2832 76.0466 43.2365C76.2004 42.1897 77.1682 41.465 78.2082 41.6179C79.2482 41.7707 79.9666 42.7431 79.8128 43.7898C79.659 44.8366 78.6913 45.5613 77.6513 45.4085Z" fill="#F99303"/>
<path d="M72.6293 44.6712C71.5893 44.5184 70.8709 43.5459 71.0247 42.4992C71.1784 41.4524 72.1462 40.7277 73.1862 40.8805C74.2262 41.0334 74.9447 42.0058 74.7909 43.0525C74.6371 44.0993 73.6693 44.824 72.6293 44.6712Z" fill="#F99303"/>
<path d="M67.6078 43.9329C66.5678 43.7801 65.8494 42.8077 66.0032 41.7609C66.157 40.7142 67.1247 39.9895 68.1647 40.1423C69.2048 40.2951 69.9232 41.2675 69.7694 42.3143C69.6156 43.361 68.6478 44.0857 67.6078 43.9329Z" fill="#F99303"/>
<path d="M62.5863 43.1956C61.5463 43.0428 60.8279 42.0704 60.9817 41.0236C61.1355 39.9768 62.1032 39.2522 63.1433 39.405C64.1833 39.5578 64.9017 40.5302 64.7479 41.577C64.5941 42.6237 63.6263 43.3484 62.5863 43.1956Z" fill="#F99303"/>
<path d="M57.5643 42.4573C56.5243 42.3045 55.8059 41.3321 55.9597 40.2853C56.1135 39.2386 57.0813 38.5139 58.1213 38.6667C59.1613 38.8195 59.8797 39.7919 59.7259 40.8387C59.5721 41.8854 58.6044 42.6101 57.5643 42.4573Z" fill="#F99303"/>
<path d="M52.5433 41.72C51.5033 41.5672 50.7849 40.5948 50.9387 39.548C51.0925 38.5013 52.0603 37.7766 53.1003 37.9294C54.1403 38.0822 54.8587 39.0546 54.7049 40.1014C54.5511 41.1481 53.5834 41.8728 52.5433 41.72Z" fill="#F99303"/>
<path d="M47.5214 40.9817C46.4814 40.8289 45.7629 39.8565 45.9167 38.8097C46.0705 37.763 47.0383 37.0383 48.0783 37.1911C49.1183 37.3439 49.8367 38.3163 49.683 39.3631C49.5292 40.4098 48.5614 41.1345 47.5214 40.9817Z" fill="#F99303"/>
<path d="M42.4999 40.2444C41.4599 40.0916 40.7415 39.1192 40.8952 38.0724C41.049 37.0257 42.0168 36.301 43.0568 36.4538C44.0968 36.6066 44.8153 37.579 44.6615 38.6258C44.5077 39.6725 43.5399 40.3972 42.4999 40.2444Z" fill="#F99303"/>
<path d="M37.4779 39.5061C36.4379 39.3533 35.7195 38.3809 35.8733 37.3341C36.0271 36.2874 36.9948 35.5627 38.0349 35.7155C39.0749 35.8683 39.7933 36.8407 39.6395 37.8875C39.4857 38.9343 38.5179 39.6589 37.4779 39.5061Z" fill="#F99303"/>
<path d="M32.4564 38.7688C31.4164 38.616 30.698 37.6436 30.8518 36.5968C31.0056 35.5501 31.9734 34.8254 33.0134 34.9782C34.0534 35.131 34.7718 36.1034 34.618 37.1502C34.4642 38.197 33.4964 38.9216 32.4564 38.7688Z" fill="#F99303"/>
<path d="M27.4349 38.0306C26.3949 37.8777 25.6765 36.9053 25.8303 35.8586C25.9841 34.8118 26.9519 34.0871 27.9919 34.2399C29.0319 34.3927 29.7503 35.3652 29.5965 36.4119C29.4427 37.4587 28.475 38.1834 27.4349 38.0306Z" fill="#F99303"/>
<path d="M22.4135 37.2932C21.3735 37.1404 20.655 36.168 20.8088 35.1213C20.9626 34.0745 21.9304 33.3498 22.9704 33.5026C24.0104 33.6554 24.7288 34.6279 24.575 35.6746C24.4212 36.7214 23.4535 37.4461 22.4135 37.2932Z" fill="#F99303"/>
<path d="M17.392 36.555C16.352 36.4022 15.6336 35.4297 15.7874 34.383C15.9411 33.3362 16.9089 32.6115 17.9489 32.7643C18.9889 32.9171 19.7074 33.8896 19.5536 34.9363C19.3998 35.9831 18.432 36.7078 17.392 36.555Z" fill="#F99303"/>
<path d="M111.474 51.7373C111.565 51.6861 111.661 51.6422 111.762 51.6087C111.964 52.8355 112.118 54.0748 112.227 55.3234C112.188 55.3242 112.147 55.3182 112.106 55.3122C112.04 55.3025 111.975 55.2897 111.913 55.2741C110.98 55.037 110.358 54.1195 110.502 53.1402C110.593 52.5211 110.968 52.0148 111.474 51.7373Z" fill="#F99303"/>
<path d="M107.085 54.5735C106.045 54.4207 105.326 53.4483 105.48 52.4015C105.634 51.3548 106.602 50.6301 107.642 50.7829C108.682 50.9357 109.4 51.9081 109.246 52.9549C109.093 54.0016 108.125 54.7263 107.085 54.5735Z" fill="#F99303"/>
<path d="M102.063 53.8362C101.023 53.6834 100.304 52.711 100.458 51.6642C100.612 50.6175 101.58 49.8928 102.62 50.0456C103.66 50.1984 104.378 51.1708 104.224 52.2176C104.071 53.2643 103.103 53.989 102.063 53.8362Z" fill="#F99303"/>
<path d="M97.0414 53.0979C96.0014 52.9451 95.283 51.9727 95.4368 50.9259C95.5906 49.8792 96.5583 49.1545 97.5983 49.3073C98.6384 49.4601 99.3568 50.4325 99.203 51.4793C99.0492 52.5261 98.0814 53.2507 97.0414 53.0979Z" fill="#F99303"/>
<path d="M92.0199 52.3606C90.9799 52.2078 90.2615 51.2354 90.4153 50.1886C90.5691 49.1419 91.5368 48.4172 92.5769 48.57C93.6169 48.7228 94.3353 49.6952 94.1815 50.742C94.0277 51.7887 93.0599 52.5134 92.0199 52.3606Z" fill="#F99303"/>
<path d="M86.9979 51.6223C85.9579 51.4695 85.2395 50.4971 85.3933 49.4504C85.5471 48.4036 86.5149 47.6789 87.5549 47.8317C88.5949 47.9845 89.3133 48.957 89.1595 50.0037C89.0057 51.0505 88.0379 51.7752 86.9979 51.6223Z" fill="#F99303"/>
<path d="M81.9765 50.885C80.9364 50.7322 80.218 49.7598 80.3718 48.7131C80.5256 47.6663 81.4934 46.9416 82.5334 47.0944C83.5734 47.2472 84.2918 48.2197 84.138 49.2664C83.9842 50.3132 83.0165 51.0378 81.9765 50.885Z" fill="#F99303"/>
<path d="M76.955 50.1468C75.915 49.994 75.1965 49.0215 75.3503 47.9748C75.5041 46.928 76.4719 46.2033 77.5119 46.3561C78.5519 46.5089 79.2703 47.4814 79.1165 48.5281C78.9628 49.5749 77.995 50.2996 76.955 50.1468Z" fill="#F99303"/>
<path d="M71.9335 49.4095C70.8935 49.2567 70.1751 48.2842 70.3289 47.2375C70.4826 46.1907 71.4504 45.466 72.4904 45.6188C73.5304 45.7716 74.2489 46.7441 74.0951 47.7908C73.9413 48.8376 72.9735 49.5623 71.9335 49.4095Z" fill="#F99303"/>
<path d="M66.912 48.6712C65.872 48.5184 65.1536 47.5459 65.3074 46.4992C65.4612 45.4524 66.4289 44.7277 67.4689 44.8805C68.509 45.0334 69.2274 46.0058 69.0736 47.0525C68.9198 48.0993 67.952 48.824 66.912 48.6712Z" fill="#F99303"/>
<path d="M61.89 47.9339C60.85 47.7811 60.1316 46.8086 60.2854 45.7619C60.4392 44.7151 61.407 43.9904 62.447 44.1432C63.487 44.296 64.2054 45.2685 64.0516 46.3152C63.8978 47.362 62.93 48.0867 61.89 47.9339Z" fill="#F99303"/>
<path d="M56.8685 47.1956C55.8285 47.0428 55.1101 46.0704 55.2639 45.0236C55.4177 43.9768 56.3855 43.2522 57.4255 43.405C58.4655 43.5578 59.1839 44.5302 59.0301 45.577C58.8763 46.6237 57.9086 47.3484 56.8685 47.1956Z" fill="#F99303"/>
<path d="M51.8471 46.4583C50.807 46.3055 50.0886 45.333 50.2424 44.2863C50.3962 43.2395 51.364 42.5149 52.404 42.6677C53.444 42.8205 54.1624 43.7929 54.0086 44.8397C53.8548 45.8864 52.8871 46.6111 51.8471 46.4583Z" fill="#F99303"/>
<path d="M46.8251 45.72C45.7851 45.5672 45.0666 44.5948 45.2204 43.548C45.3742 42.5013 46.342 41.7766 47.382 41.9294C48.422 42.0822 49.1405 43.0546 48.9867 44.1014C48.8329 45.1481 47.8651 45.8728 46.8251 45.72Z" fill="#F99303"/>
<path d="M41.8036 44.9827C40.7636 44.8299 40.0452 43.8575 40.199 42.8107C40.3528 41.764 41.3205 41.0393 42.3605 41.1921C43.4006 41.3449 44.119 42.3173 43.9652 43.3641C43.8114 44.4108 42.8436 45.1355 41.8036 44.9827Z" fill="#F99303"/>
<path d="M36.7821 44.2444C35.7421 44.0916 35.0237 43.1192 35.1775 42.0724C35.3313 41.0257 36.299 40.301 37.3391 40.4538C38.3791 40.6066 39.0975 41.579 38.9437 42.6258C38.7899 43.6725 37.8221 44.3972 36.7821 44.2444Z" fill="#F99303"/>
<path d="M31.7606 43.5071C30.7206 43.3543 30.0022 42.3819 30.156 41.3351C30.3098 40.2884 31.2776 39.5637 32.3176 39.7165C33.3576 39.8693 34.076 40.8417 33.9222 41.8885C33.7684 42.9352 32.8006 43.6599 31.7606 43.5071Z" fill="#F99303"/>
<path d="M26.7387 42.7688C25.6986 42.616 24.9802 41.6436 25.134 40.5968C25.2878 39.5501 26.2556 38.8254 27.2956 38.9782C28.3356 39.131 29.054 40.1034 28.9002 41.1502C28.7464 42.197 27.7787 42.9216 26.7387 42.7688Z" fill="#F99303"/>
<path d="M21.7172 42.0315C20.6772 41.8787 19.9587 40.9063 20.1125 39.8595C20.2663 38.8128 21.2341 38.0881 22.2741 38.2409C23.3141 38.3937 24.0326 39.3661 23.8788 40.4129C23.725 41.4596 22.7572 42.1843 21.7172 42.0315Z" fill="#F99303"/>
<path d="M16.6957 41.2932C15.6557 41.1404 14.9373 40.168 15.0911 39.1213C15.2449 38.0745 16.2126 37.3498 17.2526 37.5026C18.2926 37.6554 19.0111 38.6279 18.8573 39.6746C18.7035 40.7214 17.7357 41.4461 16.6957 41.2932Z" fill="#F99303"/>
<path d="M11.674 40.5551C11.5265 40.5334 11.3876 40.4969 11.2577 40.4423C11.1606 40.4054 11.0674 40.3627 10.9793 40.3078L12.5285 36.834C12.6298 36.865 12.7234 36.9046 12.8129 36.95C13.5232 37.3093 13.9586 38.0994 13.8356 38.9364C13.682 39.982 12.7129 40.7077 11.674 40.5551Z" fill="#F99303"/>
<path d="M111.967 56.259L111.995 56.2632C112.105 56.2825 112.21 56.3076 112.311 56.3418L112.31 56.345C112.393 57.5285 112.437 58.7129 112.44 59.9106C112.341 59.9573 112.236 59.9935 112.127 60.0162L112.126 60.0194C111.897 60.0728 111.655 60.0856 111.41 60.0497C110.371 59.897 109.652 58.9233 109.805 57.8777C109.959 56.8321 110.928 56.1064 111.967 56.259Z" fill="#F99303"/>
<path d="M106.389 59.3118C105.349 59.159 104.63 58.1866 104.784 57.1398C104.938 56.0931 105.905 55.3684 106.946 55.5212C107.986 55.674 108.704 56.6464 108.55 57.6932C108.396 58.7399 107.429 59.4646 106.389 59.3118Z" fill="#F99303"/>
<path d="M101.367 58.5745C100.327 58.4217 99.6086 57.4493 99.7624 56.4025C99.9162 55.3558 100.884 54.6311 101.924 54.7839C102.964 54.9367 103.682 55.9091 103.529 56.9559C103.375 58.0026 102.407 58.7273 101.367 58.5745Z" fill="#F99303"/>
<path d="M96.3451 57.8362C95.3051 57.6834 94.5867 56.711 94.7405 55.6642C94.8943 54.6175 95.862 53.8928 96.9021 54.0456C97.9421 54.1984 98.6605 55.1708 98.5067 56.2176C98.3529 57.2643 97.3851 57.989 96.3451 57.8362Z" fill="#F99303"/>
<path d="M91.3236 57.0989C90.2836 56.9461 89.5652 55.9737 89.719 54.9269C89.8728 53.8802 90.8406 53.1555 91.8806 53.3083C92.9206 53.4611 93.639 54.4335 93.4852 55.4803C93.3314 56.527 92.3636 57.2517 91.3236 57.0989Z" fill="#F99303"/>
<path d="M86.3021 56.3606C85.2621 56.2078 84.5437 55.2354 84.6975 54.1886C84.8513 53.1419 85.8191 52.4172 86.8591 52.57C87.8991 52.7228 88.6175 53.6952 88.4637 54.742C88.3099 55.7887 87.3421 56.5134 86.3021 56.3606Z" fill="#F99303"/>
<path d="M81.2802 55.6233C80.2402 55.4705 79.5217 54.4981 79.6755 53.4513C79.8293 52.4046 80.7971 51.6799 81.8371 51.8327C82.8771 51.9855 83.5955 52.9579 83.4417 54.0047C83.2879 55.0514 82.3202 55.7761 81.2802 55.6233Z" fill="#F99303"/>
<path d="M76.2587 54.885C75.2187 54.7322 74.5002 53.7598 74.654 52.7131C74.8078 51.6663 75.7756 50.9416 76.8156 51.0944C77.8556 51.2472 78.5741 52.2197 78.4203 53.2664C78.2665 54.3132 77.2987 55.0378 76.2587 54.885Z" fill="#F99303"/>
<path d="M71.2372 54.1477C70.1972 53.9949 69.4788 53.0225 69.6326 51.9757C69.7864 50.929 70.7541 50.2043 71.7941 50.3571C72.8342 50.5099 73.5526 51.4824 73.3988 52.5291C73.245 53.5759 72.2772 54.3005 71.2372 54.1477Z" fill="#F99303"/>
<path d="M66.2157 53.4095C65.1757 53.2567 64.4573 52.2842 64.6111 51.2375C64.7649 50.1907 65.7326 49.466 66.7727 49.6188C67.8127 49.7716 68.5311 50.7441 68.3773 51.7908C68.2235 52.8376 67.2557 53.5623 66.2157 53.4095Z" fill="#F99303"/>
<path d="M61.1937 52.6722C60.1537 52.5193 59.4353 51.5469 59.5891 50.5002C59.7429 49.4534 60.7107 48.7287 61.7507 48.8815C62.7907 49.0343 63.5091 50.0068 63.3553 51.0535C63.2015 52.1003 62.2337 52.825 61.1937 52.6722Z" fill="#F99303"/>
<path d="M56.1723 51.9339C55.1322 51.7811 54.4138 50.8086 54.5676 49.7619C54.7214 48.7151 55.6892 47.9904 56.7292 48.1432C57.7692 48.296 58.4876 49.2685 58.3338 50.3152C58.18 51.362 57.2123 52.0867 56.1723 51.9339Z" fill="#F99303"/>
<path d="M51.1508 51.1966C50.1108 51.0438 49.3923 50.0713 49.5461 49.0246C49.6999 47.9778 50.6677 47.2531 51.7077 47.4059C52.7477 47.5587 53.4661 48.5312 53.3123 49.5779C53.1586 50.6247 52.1908 51.3494 51.1508 51.1966Z" fill="#F99303"/>
<path d="M46.1293 50.4583C45.0893 50.3055 44.3708 49.333 44.5246 48.2863C44.6784 47.2395 45.6462 46.5149 46.6862 46.6677C47.7262 46.8205 48.4447 47.7929 48.2909 48.8397C48.1371 49.8864 47.1693 50.6111 46.1293 50.4583Z" fill="#F99303"/>
<path d="M41.1073 49.721C40.0673 49.5682 39.3489 48.5957 39.5027 47.549C39.6565 46.5022 40.6242 45.7775 41.6643 45.9304C42.7043 46.0832 43.4227 47.0556 43.2689 48.1023C43.1151 49.1491 42.1473 49.8738 41.1073 49.721Z" fill="#F99303"/>
<path d="M36.0858 48.9827C35.0458 48.8299 34.3274 47.8575 34.4812 46.8107C34.635 45.764 35.6028 45.0393 36.6428 45.1921C37.6828 45.3449 38.4012 46.3173 38.2474 47.3641C38.0936 48.4108 37.1258 49.1355 36.0858 48.9827Z" fill="#F99303"/>
<path d="M31.0643 48.2454C30.0243 48.0926 29.3059 47.1202 29.4597 46.0734C29.6135 45.0266 30.5813 44.302 31.6213 44.4548C32.6613 44.6076 33.3797 45.58 33.2259 46.6268C33.0721 47.6735 32.1044 48.3982 31.0643 48.2454Z" fill="#F99303"/>
<path d="M26.0424 47.5071C25.0024 47.3543 24.2839 46.3819 24.4377 45.3351C24.5915 44.2884 25.5593 43.5637 26.5993 43.7165C27.6393 43.8693 28.3577 44.8417 28.204 45.8885C28.0502 46.9352 27.0824 47.6599 26.0424 47.5071Z" fill="#F99303"/>
<path d="M21.0209 46.7698C19.9809 46.617 19.2625 45.6446 19.4163 44.5978C19.57 43.5511 20.5378 42.8264 21.5778 42.9792C22.6178 43.132 23.3363 44.1044 23.1825 45.1512C23.0287 46.1979 22.0609 46.9226 21.0209 46.7698Z" fill="#F99303"/>
<path d="M15.9994 46.0315C14.9594 45.8787 14.241 44.9063 14.3948 43.8595C14.5486 42.8128 15.5163 42.0881 16.5563 42.2409C17.5964 42.3937 18.3148 43.3661 18.161 44.4129C18.0072 45.4596 17.0394 46.1843 15.9994 46.0315Z" fill="#F99303"/>
<path d="M10.9779 45.2942C10.4883 45.2223 10.07 44.9704 9.78283 44.612L10.4532 41.6642C10.5742 41.6045 10.7023 41.562 10.8348 41.533C11.0576 41.4787 11.2932 41.4681 11.5349 41.5036C12.5737 41.6562 13.2931 42.63 13.1395 43.6756C12.9859 44.7212 12.0168 45.4469 10.9779 45.2942Z" fill="#F99303"/>
<path d="M111.271 60.9974C111.585 61.0435 111.869 61.1627 112.109 61.34C112.222 61.4211 112.326 61.5172 112.417 61.6177L112.417 61.6208C112.388 62.5137 112.34 63.4102 112.268 64.3129C112.165 64.4043 112.05 64.4874 111.932 64.5539L111.931 64.557C111.574 64.7627 111.15 64.8522 110.714 64.7881C109.675 64.6354 108.956 63.6617 109.109 62.6161C109.263 61.5705 110.232 60.8448 111.271 60.9974Z" fill="#F99303"/>
<path d="M105.692 64.0501C104.652 63.8973 103.934 62.9248 104.088 61.8781C104.241 60.8313 105.209 60.1067 106.249 60.2595C107.289 60.4123 108.008 61.3847 107.854 62.4314C107.7 63.4782 106.732 64.2029 105.692 64.0501Z" fill="#F99303"/>
<path d="M100.671 63.3128C99.6308 63.16 98.9124 62.1875 99.0662 61.1408C99.22 60.094 100.188 59.3693 101.228 59.5222C102.268 59.675 102.986 60.6474 102.832 61.6941C102.679 62.7409 101.711 63.4656 100.671 63.3128Z" fill="#F99303"/>
<path d="M95.6488 62.5745C94.6088 62.4217 93.8904 61.4493 94.0442 60.4025C94.198 59.3558 95.1658 58.6311 96.2058 58.7839C97.2458 58.9367 97.9642 59.9091 97.8104 60.9559C97.6566 62.0026 96.6888 62.7273 95.6488 62.5745Z" fill="#F99303"/>
<path d="M90.6273 61.8372C89.5873 61.6844 88.8689 60.712 89.0227 59.6652C89.1765 58.6184 90.1443 57.8938 91.1843 58.0466C92.2243 58.1994 92.9427 59.1718 92.7889 60.2186C92.6351 61.2653 91.6673 61.99 90.6273 61.8372Z" fill="#F99303"/>
<path d="M85.6058 61.0989C84.5658 60.9461 83.8474 59.9737 84.0012 58.9269C84.155 57.8802 85.1228 57.1555 86.1628 57.3083C87.2028 57.4611 87.9212 58.4335 87.7674 59.4803C87.6136 60.527 86.6459 61.2517 85.6058 61.0989Z" fill="#F99303"/>
<path d="M80.5844 60.3616C79.5444 60.2088 78.8259 59.2364 78.9797 58.1896C79.1335 57.1429 80.1013 56.4182 81.1413 56.571C82.1813 56.7238 82.8997 57.6962 82.7459 58.743C82.5921 59.7897 81.6244 60.5144 80.5844 60.3616Z" fill="#F99303"/>
<path d="M75.5624 59.6233C74.5224 59.4705 73.804 58.4981 73.9578 57.4513C74.1115 56.4046 75.0793 55.6799 76.1193 55.8327C77.1593 55.9855 77.8778 56.9579 77.724 58.0047C77.5702 59.0514 76.6024 59.7761 75.5624 59.6233Z" fill="#F99303"/>
<path d="M70.5409 58.886C69.5009 58.7332 68.7825 57.7608 68.9363 56.714C69.0901 55.6673 70.0578 54.9426 71.0979 55.0954C72.1379 55.2482 72.8563 56.2206 72.7025 57.2674C72.5487 58.3141 71.5809 59.0388 70.5409 58.886Z" fill="#F99303"/>
<path d="M65.5194 58.1477C64.4794 57.9949 63.761 57.0225 63.9148 55.9757C64.0686 54.929 65.0364 54.2043 66.0764 54.3571C67.1164 54.5099 67.8348 55.4823 67.681 56.5291C67.5272 57.5759 66.5594 58.3005 65.5194 58.1477Z" fill="#F99303"/>
<path d="M60.4979 57.4104C59.4579 57.2576 58.7395 56.2852 58.8933 55.2384C59.0471 54.1917 60.0149 53.467 61.0549 53.6198C62.0949 53.7726 62.8133 54.745 62.6595 55.7918C62.5057 56.8385 61.5379 57.5632 60.4979 57.4104Z" fill="#F99303"/>
<path d="M55.476 56.6722C54.436 56.5193 53.7175 55.5469 53.8713 54.5002C54.0251 53.4534 54.9929 52.7287 56.0329 52.8815C57.0729 53.0343 57.7913 54.0068 57.6375 55.0535C57.4837 56.1003 56.516 56.825 55.476 56.6722Z" fill="#F99303"/>
<path d="M50.4545 55.9348C49.4145 55.782 48.696 54.8096 48.8498 53.7629C49.0036 52.7161 49.9714 51.9914 51.0114 52.1442C52.0514 52.297 52.7699 53.2695 52.6161 54.3162C52.4623 55.363 51.4945 56.0877 50.4545 55.9348Z" fill="#F99303"/>
<path d="M45.433 55.1966C44.393 55.0438 43.6746 54.0713 43.8284 53.0246C43.9821 51.9778 44.9499 51.2531 45.9899 51.4059C47.0299 51.5587 47.7484 52.5312 47.5946 53.5779C47.4408 54.6247 46.473 55.3494 45.433 55.1966Z" fill="#F99303"/>
<path d="M40.411 54.4593C39.371 54.3065 38.6526 53.334 38.8064 52.2873C38.9602 51.2405 39.928 50.5158 40.968 50.6686C42.008 50.8214 42.7264 51.7939 42.5726 52.8406C42.4188 53.8874 41.451 54.6121 40.411 54.4593Z" fill="#F99303"/>
<path d="M35.3895 53.721C34.3495 53.5682 33.6311 52.5957 33.7849 51.549C33.9387 50.5022 34.9065 49.7775 35.9465 49.9304C36.9865 50.0832 37.7049 51.0556 37.5511 52.1023C37.3973 53.1491 36.4295 53.8738 35.3895 53.721Z" fill="#F99303"/>
<path d="M30.3681 52.9837C29.328 52.8309 28.6096 51.8584 28.7634 50.8117C28.9172 49.7649 29.885 49.0402 30.925 49.193C31.965 49.3459 32.6834 50.3183 32.5296 51.365C32.3758 52.4118 31.4081 53.1365 30.3681 52.9837Z" fill="#F99303"/>
<path d="M25.3466 52.2454C24.3066 52.0926 23.5881 51.1202 23.7419 50.0734C23.8957 49.0266 24.8635 48.302 25.9035 48.4548C26.9435 48.6076 27.6619 49.58 27.5081 50.6268C27.3544 51.6735 26.3866 52.3982 25.3466 52.2454Z" fill="#F99303"/>
<path d="M20.3246 51.5081C19.2846 51.3553 18.5662 50.3828 18.72 49.3361C18.8738 48.2893 19.8415 47.5647 20.8815 47.7175C21.9216 47.8703 22.64 48.8427 22.4862 49.8895C22.3324 50.9362 21.3646 51.6609 20.3246 51.5081Z" fill="#F99303"/>
<path d="M15.3031 50.7698C14.2631 50.617 13.5447 49.6446 13.6985 48.5978C13.8523 47.5511 14.8201 46.8264 15.8601 46.9792C16.9001 47.132 17.6185 48.1044 17.4647 49.1512C17.3109 50.1979 16.3431 50.9226 15.3031 50.7698Z" fill="#F99303"/>
<path d="M10.2816 50.0325C9.50642 49.9186 8.90754 49.3466 8.71812 48.6281C8.71858 48.625 8.71858 48.625 8.71858 48.625C8.85024 48.0344 8.99131 47.4452 9.14447 46.861C9.55548 46.3987 10.1826 46.1455 10.8386 46.2419C11.8774 46.3945 12.5968 47.3683 12.4432 48.4139C12.2896 49.4594 11.3205 50.1851 10.2816 50.0325Z" fill="#F99303"/>
<path d="M110.575 65.7362C111.049 65.8059 111.456 66.0464 111.743 66.3854C111.849 66.5108 111.941 66.6501 112.012 66.7994C111.966 67.1541 111.918 67.5083 111.866 67.8621C111.814 68.2159 111.758 68.5692 111.7 68.9221C111.589 69.0446 111.461 69.1516 111.323 69.241C110.951 69.4832 110.492 69.5965 110.018 69.5269C108.979 69.3742 108.26 68.4005 108.413 67.3549C108.567 66.3093 109.536 65.5836 110.575 65.7362Z" fill="#F99303"/>
<path d="M104.996 68.7884C103.956 68.6356 103.238 67.6631 103.391 66.6164C103.545 65.5696 104.513 64.8449 105.553 64.9977C106.593 65.1505 107.311 66.123 107.158 67.1697C107.004 68.2165 106.036 68.9412 104.996 68.7884Z" fill="#F99303"/>
<path d="M99.9745 68.0511C98.9345 67.8983 98.2161 66.9258 98.3699 65.8791C98.5237 64.8323 99.4914 64.1076 100.531 64.2604C101.571 64.4132 102.29 65.3857 102.136 66.4324C101.982 67.4792 101.015 68.2039 99.9745 68.0511Z" fill="#F99303"/>
<path d="M94.953 67.3128C93.913 67.16 93.1946 66.1875 93.3484 65.1408C93.5022 64.094 94.47 63.3693 95.51 63.5222C96.55 63.675 97.2684 64.6474 97.1146 65.6941C96.9608 66.7409 95.993 67.4656 94.953 67.3128Z" fill="#F99303"/>
<path d="M89.9315 66.5755C88.8915 66.4227 88.1731 65.4502 88.3269 64.4035C88.4807 63.3567 89.4485 62.632 90.4885 62.7848C91.5285 62.9377 92.2469 63.9101 92.0931 64.9568C91.9393 66.0036 90.9715 66.7283 89.9315 66.5755Z" fill="#F99303"/>
<path d="M84.9096 65.8372C83.8695 65.6844 83.1511 64.712 83.3049 63.6652C83.4587 62.6184 84.4265 61.8938 85.4665 62.0466C86.5065 62.1994 87.2249 63.1718 87.0711 64.2186C86.9173 65.2653 85.9496 65.99 84.9096 65.8372Z" fill="#F99303"/>
<path d="M79.8881 65.0999C78.8481 64.9471 78.1296 63.9746 78.2834 62.9279C78.4372 61.8811 79.405 61.1565 80.445 61.3093C81.485 61.4621 82.2034 62.4345 82.0497 63.4813C81.8959 64.528 80.9281 65.2527 79.8881 65.0999Z" fill="#F99303"/>
<path d="M74.8666 64.3616C73.8266 64.2088 73.1082 63.2364 73.262 62.1896C73.4157 61.1429 74.3835 60.4182 75.4235 60.571C76.4635 60.7238 77.182 61.6962 77.0282 62.743C76.8744 63.7897 75.9066 64.5144 74.8666 64.3616Z" fill="#F99303"/>
<path d="M69.8446 63.6243C68.8046 63.4715 68.0862 62.4991 68.24 61.4523C68.3938 60.4056 69.3616 59.6809 70.4016 59.8337C71.4416 59.9865 72.16 60.9589 72.0062 62.0057C71.8524 63.0524 70.8846 63.7771 69.8446 63.6243Z" fill="#F99303"/>
<path d="M64.8231 62.886C63.7831 62.7332 63.0647 61.7608 63.2185 60.714C63.3723 59.6673 64.3401 58.9426 65.3801 59.0954C66.4201 59.2482 67.1385 60.2206 66.9847 61.2674C66.8309 62.3141 65.8631 63.0388 64.8231 62.886Z" fill="#F99303"/>
<path d="M59.8016 62.1487C58.7616 61.9959 58.0432 61.0235 58.197 59.9767C58.3508 58.93 59.3186 58.2053 60.3586 58.3581C61.3986 58.5109 62.117 59.4833 61.9632 60.5301C61.8094 61.5768 60.8417 62.3015 59.8016 62.1487Z" fill="#F99303"/>
<path d="M54.7797 61.4104C53.7397 61.2576 53.0212 60.2852 53.175 59.2384C53.3288 58.1917 54.2966 57.467 55.3366 57.6198C56.3766 57.7726 57.0951 58.745 56.9413 59.7918C56.7875 60.8386 55.8197 61.5632 54.7797 61.4104Z" fill="#F99303"/>
<path d="M49.7587 60.6731C48.7187 60.5203 48.0002 59.5479 48.154 58.5011C48.3078 57.4544 49.2756 56.7297 50.3156 56.8825C51.3556 57.0353 52.0741 58.0077 51.9203 59.0545C51.7665 60.1012 50.7987 60.8259 49.7587 60.6731Z" fill="#F99303"/>
<path d="M44.7367 59.9348C43.6967 59.782 42.9783 58.8096 43.1321 57.7629C43.2859 56.7161 44.2536 55.9914 45.2936 56.1442C46.3337 56.297 47.0521 57.2695 46.8983 58.3162C46.7445 59.363 45.7767 60.0877 44.7367 59.9348Z" fill="#F99303"/>
<path d="M39.7152 59.1975C38.6752 59.0447 37.9568 58.0723 38.1106 57.0256C38.2644 55.9788 39.2321 55.2541 40.2722 55.4069C41.3122 55.5597 42.0306 56.5322 41.8768 57.5789C41.723 58.6257 40.7552 59.3503 39.7152 59.1975Z" fill="#F99303"/>
<path d="M34.6932 58.4593C33.6532 58.3065 32.9348 57.334 33.0886 56.2873C33.2424 55.2405 34.2102 54.5158 35.2502 54.6686C36.2902 54.8214 37.0086 55.7939 36.8548 56.8406C36.701 57.8874 35.7333 58.6121 34.6932 58.4593Z" fill="#F99303"/>
<path d="M29.6718 57.722C28.6317 57.5692 27.9133 56.5967 28.0671 55.55C28.2209 54.5032 29.1887 53.7785 30.2287 53.9313C31.2687 54.0841 31.9871 55.0566 31.8333 56.1033C31.6795 57.1501 30.7118 57.8748 29.6718 57.722Z" fill="#F99303"/>
<path d="M24.6503 56.9837C23.6103 56.8309 22.8919 55.8584 23.0456 54.8117C23.1994 53.7649 24.1672 53.0402 25.2072 53.193C26.2472 53.3459 26.9657 54.3183 26.8119 55.365C26.6581 56.4118 25.6903 57.1365 24.6503 56.9837Z" fill="#F99303"/>
<path d="M19.6288 56.2464C18.5888 56.0936 17.8704 55.1211 18.0242 54.0744C18.178 53.0276 19.1457 52.3029 20.1857 52.4557C21.2258 52.6085 21.9442 53.581 21.7904 54.6277C21.6366 55.6745 20.6688 56.3992 19.6288 56.2464Z" fill="#F99303"/>
<path d="M14.6073 55.5081C13.5673 55.3553 12.8489 54.3829 13.0027 53.3361C13.1565 52.2893 14.1243 51.5647 15.1643 51.7175C16.2043 51.8703 16.9227 52.8427 16.7689 53.8895C16.6151 54.9362 15.6473 55.6609 14.6073 55.5081Z" fill="#F99303"/>
<path d="M9.58534 54.7708C8.54534 54.618 7.82692 53.6455 7.98071 52.5988C8.13451 51.552 9.10228 50.8274 10.1423 50.9802C11.1823 51.133 11.9007 52.1054 11.7469 53.1522C11.5931 54.1989 10.6254 54.9236 9.58534 54.7708Z" fill="#F99303"/>
<path d="M109.878 70.474C110.315 70.5381 110.695 70.7456 110.978 71.0453L110.977 71.0485C111.072 71.1463 111.158 71.259 111.23 71.3761C111.039 72.2613 110.828 73.1338 110.598 73.9972L110.598 74.0004C110.482 74.0705 110.354 74.1324 110.222 74.1776C109.941 74.2783 109.635 74.3108 109.321 74.2646C108.283 74.112 107.563 73.1382 107.717 72.0926C107.87 71.0471 108.84 70.3214 109.878 70.474Z" fill="#F99303"/>
<path d="M104.3 73.5267C103.26 73.3739 102.541 72.4014 102.695 71.3547C102.849 70.3079 103.817 69.5832 104.857 69.736C105.897 69.8888 106.615 70.8613 106.461 71.908C106.307 72.9548 105.34 73.6795 104.3 73.5267Z" fill="#F99303"/>
<path d="M99.2782 72.7894C98.2382 72.6365 97.5198 71.6641 97.6736 70.6174C97.8274 69.5706 98.7951 68.8459 99.8352 68.9987C100.875 69.1515 101.594 70.124 101.44 71.1707C101.286 72.2175 100.318 72.9422 99.2782 72.7894Z" fill="#F99303"/>
<path d="M94.2567 72.0511C93.2167 71.8983 92.4983 70.9258 92.6521 69.8791C92.8059 68.8323 93.7737 68.1076 94.8137 68.2604C95.8537 68.4132 96.5721 69.3857 96.4183 70.4324C96.2645 71.4792 95.2967 72.2039 94.2567 72.0511Z" fill="#F99303"/>
<path d="M89.2352 71.3138C88.1952 71.161 87.4768 70.1885 87.6306 69.1418C87.7844 68.095 88.7522 67.3703 89.7922 67.5231C90.8322 67.6759 91.5506 68.6484 91.3968 69.6951C91.243 70.7419 90.2753 71.4666 89.2352 71.3138Z" fill="#F99303"/>
<path d="M84.2133 70.5755C83.1733 70.4227 82.4548 69.4502 82.6086 68.4035C82.7624 67.3567 83.7302 66.632 84.7702 66.7848C85.8102 66.9377 86.5286 67.9101 86.3748 68.9568C86.2211 70.0036 85.2533 70.7283 84.2133 70.5755Z" fill="#F99303"/>
<path d="M79.1918 69.8382C78.1518 69.6854 77.4334 68.7129 77.5871 67.6662C77.7409 66.6194 78.7087 65.8947 79.7487 66.0475C80.7887 66.2003 81.5072 67.1728 81.3534 68.2195C81.1996 69.2663 80.2318 69.991 79.1918 69.8382Z" fill="#F99303"/>
<path d="M74.1703 69.0999C73.1303 68.9471 72.4119 67.9747 72.5657 66.9279C72.7195 65.8811 73.6872 65.1565 74.7272 65.3093C75.7673 65.4621 76.4857 66.4345 76.3319 67.4813C76.1781 68.528 75.2103 69.2527 74.1703 69.0999Z" fill="#F99303"/>
<path d="M69.1488 68.3626C68.1088 68.2098 67.3904 67.2374 67.5442 66.1906C67.698 65.1438 68.6658 64.4192 69.7058 64.572C70.7458 64.7248 71.4642 65.6972 71.3104 66.744C71.1566 67.7907 70.1888 68.5154 69.1488 68.3626Z" fill="#F99303"/>
<path d="M64.1268 67.6243C63.0868 67.4715 62.3684 66.4991 62.5222 65.4523C62.676 64.4056 63.6438 63.6809 64.6838 63.8337C65.7238 63.9865 66.4422 64.9589 66.2884 66.0057C66.1346 67.0524 65.1669 67.7771 64.1268 67.6243Z" fill="#F99303"/>
<path d="M59.1054 66.887C58.0653 66.7342 57.3469 65.7618 57.5007 64.715C57.6545 63.6683 58.6223 62.9436 59.6623 63.0964C60.7023 63.2492 61.4207 64.2216 61.2669 65.2684C61.1131 66.3151 60.1454 67.0398 59.1054 66.887Z" fill="#F99303"/>
<path d="M54.0839 66.1487C53.0439 65.9959 52.3254 65.0235 52.4792 63.9767C52.633 62.93 53.6008 62.2053 54.6408 62.3581C55.6808 62.5109 56.3992 63.4833 56.2455 64.5301C56.0917 65.5768 55.1239 66.3015 54.0839 66.1487Z" fill="#F99303"/>
<path d="M49.0624 65.4114C48.0224 65.2586 47.304 64.2862 47.4578 63.2394C47.6115 62.1927 48.5793 61.468 49.6193 61.6208C50.6593 61.7736 51.3778 62.746 51.224 63.7928C51.0702 64.8395 50.1024 65.5642 49.0624 65.4114Z" fill="#F99303"/>
<path d="M44.0404 64.6731C43.0004 64.5203 42.282 63.5479 42.4358 62.5011C42.5896 61.4544 43.5573 60.7297 44.5974 60.8825C45.6374 61.0353 46.3558 62.0077 46.202 63.0545C46.0482 64.1013 45.0804 64.8259 44.0404 64.6731Z" fill="#F99303"/>
<path d="M39.0189 63.9358C37.9789 63.783 37.2605 62.8106 37.4143 61.7638C37.5681 60.7171 38.5359 59.9924 39.5759 60.1452C40.6159 60.298 41.3343 61.2704 41.1805 62.3172C41.0267 63.364 40.0589 64.0886 39.0189 63.9358Z" fill="#F99303"/>
<path d="M33.997 63.1976C32.9569 63.0448 32.2385 62.0723 32.3923 61.0256C32.5461 59.9788 33.5139 59.2541 34.5539 59.4069C35.5939 59.5597 36.3123 60.5322 36.1585 61.5789C36.0047 62.6257 35.037 63.3504 33.997 63.1976Z" fill="#F99303"/>
<path d="M28.976 62.4603C27.9359 62.3074 27.2175 61.335 27.3713 60.2883C27.5251 59.2415 28.4929 58.5168 29.5329 58.6696C30.5729 58.8224 31.2913 59.7949 31.1375 60.8416C30.9837 61.8884 30.016 62.6131 28.976 62.4603Z" fill="#F99303"/>
<path d="M23.954 61.722C22.914 61.5692 22.1956 60.5967 22.3494 59.55C22.5032 58.5032 23.4709 57.7785 24.5109 57.9313C25.5509 58.0841 26.2694 59.0566 26.1156 60.1033C25.9618 61.1501 24.994 61.8748 23.954 61.722Z" fill="#F99303"/>
<path d="M18.9325 60.9847C17.8925 60.8319 17.1741 59.8594 17.3279 58.8127C17.4817 57.7659 18.4494 57.0412 19.4895 57.194C20.5295 57.3468 21.2479 58.3193 21.0941 59.366C20.9403 60.4128 19.9725 61.1375 18.9325 60.9847Z" fill="#F99303"/>
<path d="M13.911 60.2464C12.871 60.0936 12.1526 59.1211 12.3064 58.0744C12.4602 57.0276 13.428 56.3029 14.468 56.4557C15.508 56.6085 16.2264 57.581 16.0726 58.6277C15.9188 59.6745 14.951 60.3992 13.911 60.2464Z" fill="#F99303"/>
<path d="M7.54461 56.6137C7.93267 55.9802 8.67079 55.6045 9.446 55.7184C10.4848 55.8711 11.2043 56.8449 11.0506 57.8904C10.897 58.936 9.9279 59.6617 8.88905 59.5091C8.23311 59.4127 7.70528 58.9899 7.44465 58.4288C7.28788 58.0992 7.2278 57.7225 7.28442 57.3371C7.32294 57.0749 7.41343 56.83 7.54461 56.6137C7.54414 56.6169 7.54414 56.6169 7.54461 56.6137Z" fill="#F99303"/>
<path d="M109.182 75.2122C109.427 75.2481 109.655 75.3301 109.86 75.4472L109.859 75.4504C109.957 75.5035 110.047 75.5683 110.129 75.6417C109.781 76.7878 109.398 77.9095 108.979 79.0192L108.978 79.0224C108.872 79.0261 108.764 79.0199 108.654 79.0069L108.625 79.0028C107.586 78.8502 106.867 77.8764 107.021 76.8308C107.174 75.7852 108.143 75.0595 109.182 75.2122Z" fill="#F99303"/>
<path d="M103.604 78.2649C102.564 78.1121 101.845 77.1397 101.999 76.0929C102.153 75.0462 103.121 74.3215 104.161 74.4743C105.201 74.6271 105.919 75.5995 105.765 76.6463C105.612 77.693 104.644 78.4177 103.604 78.2649Z" fill="#F99303"/>
<path d="M98.5824 77.5276C97.5424 77.3748 96.824 76.4024 96.9778 75.3556C97.1316 74.3089 98.0993 73.5842 99.1394 73.737C100.179 73.8898 100.898 74.8622 100.744 75.909C100.59 76.9557 99.6224 77.6804 98.5824 77.5276Z" fill="#F99303"/>
<path d="M93.5604 76.7893C92.5204 76.6365 91.802 75.6641 91.9558 74.6173C92.1096 73.5706 93.0774 72.8459 94.1174 72.9987C95.1574 73.1515 95.8758 74.124 95.722 75.1707C95.5682 76.2175 94.6005 76.9421 93.5604 76.7893Z" fill="#F99303"/>
<path d="M88.539 76.052C87.4989 75.8992 86.7805 74.9268 86.9343 73.88C87.0881 72.8333 88.0559 72.1086 89.0959 72.2614C90.1359 72.4142 90.8543 73.3866 90.7005 74.4334C90.5467 75.4801 89.579 76.2048 88.539 76.052Z" fill="#F99303"/>
<path d="M83.5175 75.3137C82.4775 75.1609 81.759 74.1885 81.9128 73.1418C82.0666 72.095 83.0344 71.3703 84.0744 71.5231C85.1144 71.6759 85.8328 72.6484 85.679 73.6951C85.5253 74.7419 84.5575 75.4666 83.5175 75.3137Z" fill="#F99303"/>
<path d="M78.4955 74.5764C77.4555 74.4236 76.7371 73.4512 76.8909 72.4045C77.0447 71.3577 78.0124 70.633 79.0524 70.7858C80.0925 70.9386 80.8109 71.9111 80.6571 72.9578C80.5033 74.0046 79.5355 74.7292 78.4955 74.5764Z" fill="#F99303"/>
<path d="M73.474 73.8382C72.434 73.6854 71.7156 72.7129 71.8694 71.6662C72.0232 70.6194 72.9909 69.8947 74.031 70.0475C75.071 70.2003 75.7894 71.1728 75.6356 72.2195C75.4818 73.2663 74.514 73.991 73.474 73.8382Z" fill="#F99303"/>
<path d="M68.4525 73.1009C67.4125 72.9481 66.6941 71.9756 66.8479 70.9289C67.0017 69.8821 67.9695 69.1574 69.0095 69.3102C70.0495 69.463 70.7679 70.4355 70.6141 71.4822C70.4603 72.529 69.4925 73.2537 68.4525 73.1009Z" fill="#F99303"/>
<path d="M63.431 72.3626C62.391 72.2098 61.6726 71.2373 61.8264 70.1906C61.9802 69.1438 62.948 68.4192 63.988 68.572C65.028 68.7248 65.7464 69.6972 65.5926 70.7439C65.4388 71.7907 64.4711 72.5154 63.431 72.3626Z" fill="#F99303"/>
<path d="M58.4091 71.6253C57.3691 71.4725 56.6506 70.5 56.8044 69.4533C56.9582 68.4065 57.926 67.6818 58.966 67.8346C60.006 67.9875 60.7244 68.9599 60.5707 70.0066C60.4169 71.0534 59.4491 71.7781 58.4091 71.6253Z" fill="#F99303"/>
<path d="M53.3876 70.887C52.3476 70.7342 51.6292 69.7618 51.783 68.715C51.9367 67.6683 52.9045 66.9436 53.9445 67.0964C54.9845 67.2492 55.703 68.2216 55.5492 69.2684C55.3954 70.3151 54.4276 71.0398 53.3876 70.887Z" fill="#F99303"/>
<path d="M48.3661 70.1497C47.3261 69.9969 46.6077 69.0244 46.7615 67.9777C46.9153 66.9309 47.883 66.2063 48.923 66.3591C49.9631 66.5119 50.6815 67.4843 50.5277 68.5311C50.3739 69.5778 49.4061 70.3025 48.3661 70.1497Z" fill="#F99303"/>
<path d="M43.3446 69.4114C42.3046 69.2586 41.5862 68.2862 41.74 67.2394C41.8938 66.1927 42.8615 65.468 43.9016 65.6208C44.9416 65.7736 45.66 66.746 45.5062 67.7928C45.3524 68.8395 44.3846 69.5642 43.3446 69.4114Z" fill="#F99303"/>
<path d="M38.3226 68.6741C37.2826 68.5213 36.5642 67.5489 36.718 66.5021C36.8718 65.4554 37.8396 64.7307 38.8796 64.8835C39.9196 65.0363 40.638 66.0087 40.4842 67.0555C40.3304 68.1022 39.3627 68.8269 38.3226 68.6741Z" fill="#F99303"/>
<path d="M33.3012 67.9358C32.2611 67.783 31.5427 66.8106 31.6965 65.7638C31.8503 64.7171 32.8181 63.9924 33.8581 64.1452C34.8981 64.298 35.6165 65.2704 35.4627 66.3172C35.3089 67.3639 34.3412 68.0886 33.3012 67.9358Z" fill="#F99303"/>
<path d="M28.2797 67.1985C27.2397 67.0457 26.5212 66.0733 26.675 65.0265C26.8288 63.9798 27.7966 63.2551 28.8366 63.4079C29.8766 63.5607 30.5951 64.5331 30.4413 65.5799C30.2875 66.6266 29.3197 67.3513 28.2797 67.1985Z" fill="#F99303"/>
<path d="M23.2577 66.4602C22.2177 66.3074 21.4993 65.335 21.6531 64.2882C21.8069 63.2415 22.7746 62.5168 23.8146 62.6696C24.8547 62.8224 25.5731 63.7948 25.4193 64.8416C25.2655 65.8884 24.2977 66.613 23.2577 66.4602Z" fill="#F99303"/>
<path d="M18.2362 65.7229C17.1962 65.5701 16.4778 64.5977 16.6316 63.5509C16.7854 62.5042 17.7532 61.7795 18.7932 61.9323C19.8332 62.0851 20.5516 63.0575 20.3978 64.1043C20.244 65.151 19.2762 65.8757 18.2362 65.7229Z" fill="#F99303"/>
<path d="M13.2147 64.9846C12.1747 64.8318 11.4563 63.8594 11.6101 62.8127C11.7639 61.7659 12.7317 61.0412 13.7717 61.194C14.8117 61.3468 15.5301 62.3193 15.3763 63.366C15.2225 64.4128 14.2547 65.1375 13.2147 64.9846Z" fill="#F99303"/>
<path d="M8.75019 60.4567C9.78904 60.6094 10.5085 61.5831 10.3548 62.6287C10.2012 63.6743 9.2321 64.4 8.19325 64.2473C7.95159 64.2118 7.72897 64.1339 7.53122 64.0178C7.41264 63.9519 7.30221 63.8744 7.2035 63.7824C7.14514 62.8703 7.11013 61.9519 7.09804 61.0304C7.18961 60.9309 7.29548 60.8432 7.40937 60.7664C7.78753 60.5057 8.26059 60.3848 8.75019 60.4567Z" fill="#F99303"/>
<path d="M108.29 79.9321C108.354 79.935 108.42 79.9415 108.486 79.9512C108.527 79.9572 108.568 79.9632 108.605 79.9751C108.142 81.1398 107.637 82.2823 107.091 83.3993C107.004 83.3381 106.925 83.2683 106.852 83.1932C106.448 82.782 106.234 82.189 106.325 81.5699C106.469 80.5906 107.328 79.8908 108.29 79.9321Z" fill="#F99303"/>
<path d="M102.908 83.0032C101.868 82.8504 101.149 81.878 101.303 80.8312C101.457 79.7845 102.425 79.0598 103.465 79.2126C104.505 79.3654 105.223 80.3378 105.069 81.3846C104.915 82.4313 103.948 83.156 102.908 83.0032Z" fill="#F99303"/>
<path d="M97.8861 82.2659C96.8461 82.1131 96.1277 81.1407 96.2815 80.0939C96.4353 79.0472 97.4031 78.3225 98.4431 78.4753C99.4831 78.6281 100.201 79.6005 100.048 80.6473C99.8939 81.694 98.9261 82.4187 97.8861 82.2659Z" fill="#F99303"/>
<path d="M92.8641 81.5276C91.8241 81.3748 91.1057 80.4024 91.2595 79.3556C91.4133 78.3089 92.3811 77.5842 93.4211 77.737C94.4611 77.8898 95.1795 78.8622 95.0257 79.909C94.8719 80.9557 93.9042 81.6804 92.8641 81.5276Z" fill="#F99303"/>
<path d="M87.8427 80.7903C86.8027 80.6375 86.0842 79.6651 86.238 78.6183C86.3918 77.5716 87.3596 76.8469 88.3996 76.9997C89.4396 77.1525 90.158 78.1249 90.0042 79.1717C89.8504 80.2184 88.8827 80.9431 87.8427 80.7903Z" fill="#F99303"/>
<path d="M82.8212 80.052C81.7812 79.8992 81.0627 78.9268 81.2165 77.88C81.3703 76.8333 82.3381 76.1086 83.3781 76.2614C84.4181 76.4142 85.1366 77.3866 84.9828 78.4334C84.829 79.4802 83.8612 80.2049 82.8212 80.052Z" fill="#F99303"/>
<path d="M77.7997 79.3147C76.7597 79.1619 76.0413 78.1895 76.1951 77.1427C76.3489 76.096 77.3166 75.3713 78.3566 75.5241C79.3967 75.6769 80.1151 76.6493 79.9613 77.6961C79.8075 78.7429 78.8397 79.4675 77.7997 79.3147Z" fill="#F99303"/>
<path d="M72.7777 78.5765C71.7377 78.4237 71.0193 77.4512 71.1731 76.4045C71.3269 75.3577 72.2947 74.633 73.3347 74.7858C74.3747 74.9386 75.0931 75.9111 74.9393 76.9578C74.7855 78.0046 73.8177 78.7293 72.7777 78.5765Z" fill="#F99303"/>
<path d="M67.7562 77.8392C66.7162 77.6864 65.9978 76.7139 66.1516 75.6672C66.3054 74.6204 67.2732 73.8957 68.3132 74.0485C69.3532 74.2013 70.0716 75.1738 69.9178 76.2205C69.764 77.2673 68.7962 77.992 67.7562 77.8392Z" fill="#F99303"/>
<path d="M62.7348 77.1009C61.6947 76.9481 60.9763 75.9756 61.1301 74.9289C61.2839 73.8821 62.2517 73.1574 63.2917 73.3102C64.3317 73.463 65.0501 74.4355 64.8963 75.4822C64.7425 76.529 63.7748 77.2537 62.7348 77.1009Z" fill="#F99303"/>
<path d="M57.7133 76.3636C56.6732 76.2108 55.9548 75.2383 56.1086 74.1916C56.2624 73.1448 57.2302 72.4201 58.2702 72.5729C59.3102 72.7257 60.0286 73.6982 59.8748 74.7449C59.7211 75.7917 58.7533 76.5164 57.7133 76.3636Z" fill="#F99303"/>
<path d="M52.6913 75.6253C51.6513 75.4725 50.9329 74.5 51.0867 73.4533C51.2405 72.4065 52.2082 71.6818 53.2482 71.8347C54.2883 71.9875 55.0067 72.9599 54.8529 74.0066C54.6991 75.0534 53.7313 75.7781 52.6913 75.6253Z" fill="#F99303"/>
<path d="M47.6698 74.888C46.6298 74.7352 45.9114 73.7627 46.0652 72.716C46.219 71.6692 47.1867 70.9445 48.2268 71.0973C49.2668 71.2502 49.9852 72.2226 49.8314 73.2693C49.6776 74.3161 48.7098 75.0408 47.6698 74.888Z" fill="#F99303"/>
<path d="M42.6483 74.1497C41.6083 73.9969 40.8899 73.0245 41.0437 71.9777C41.1975 70.9309 42.1653 70.2063 43.2053 70.3591C44.2453 70.5119 44.9637 71.4843 44.8099 72.5311C44.6561 73.5778 43.6883 74.3025 42.6483 74.1497Z" fill="#F99303"/>
<path d="M37.6264 73.4124C36.5863 73.2596 35.8679 72.2872 36.0217 71.2404C36.1755 70.1936 37.1433 69.469 38.1833 69.6218C39.2233 69.7746 39.9417 70.747 39.7879 71.7938C39.6341 72.8405 38.6664 73.5652 37.6264 73.4124Z" fill="#F99303"/>
<path d="M32.6049 72.6741C31.5649 72.5213 30.8464 71.5489 31.0002 70.5021C31.154 69.4554 32.1218 68.7307 33.1618 68.8835C34.2018 69.0363 34.9202 70.0087 34.7664 71.0555C34.6127 72.1022 33.6449 72.8269 32.6049 72.6741Z" fill="#F99303"/>
<path d="M27.5834 71.9368C26.5434 71.784 25.8249 70.8116 25.9787 69.7648C26.1325 68.7181 27.1003 67.9934 28.1403 68.1462C29.1803 68.299 29.8988 69.2714 29.745 70.3182C29.5912 71.3649 28.6234 72.0896 27.5834 71.9368Z" fill="#F99303"/>
<path d="M22.5619 71.1985C21.5219 71.0457 20.8035 70.0733 20.9573 69.0265C21.1111 67.9798 22.0788 67.2551 23.1188 67.4079C24.1589 67.5607 24.8773 68.5331 24.7235 69.5799C24.5697 70.6266 23.6019 71.3513 22.5619 71.1985Z" fill="#F99303"/>
<path d="M17.5399 70.4612C16.4999 70.3084 15.7815 69.336 15.9353 68.2892C16.0891 67.2425 17.0569 66.5178 18.0969 66.6706C19.1369 66.8234 19.8553 67.7958 19.7015 68.8426C19.5477 69.8893 18.5799 70.614 17.5399 70.4612Z" fill="#F99303"/>
<path d="M12.5184 69.7229C11.4784 69.5701 10.76 68.5977 10.9138 67.5509C11.0676 66.5042 12.0354 65.7795 13.0754 65.9323C14.1154 66.0851 14.8338 67.0575 14.68 68.1043C14.5262 69.1511 13.5585 69.8758 12.5184 69.7229Z" fill="#F99303"/>
<path d="M102.211 87.7415C101.171 87.5887 100.453 86.6163 100.607 85.5695C100.76 84.5227 101.728 83.7981 102.768 83.9509C103.808 84.1037 104.527 85.0761 104.373 86.1229C104.219 87.1696 103.251 87.8943 102.211 87.7415Z" fill="#F99303"/>
<path d="M97.1898 87.0042C96.1498 86.8514 95.4314 85.8789 95.5852 84.8322C95.739 83.7854 96.7068 83.0608 97.7468 83.2136C98.7868 83.3664 99.5052 84.3388 99.3514 85.3856C99.1976 86.4323 98.2298 87.157 97.1898 87.0042Z" fill="#F99303"/>
<path d="M92.1683 86.2659C91.1283 86.1131 90.4099 85.1407 90.5637 84.0939C90.7175 83.0472 91.6853 82.3225 92.7253 82.4753C93.7653 82.6281 94.4837 83.6005 94.3299 84.6473C94.1761 85.694 93.2084 86.4187 92.1683 86.2659Z" fill="#F99303"/>
<path d="M87.1464 85.5286C86.1064 85.3758 85.3879 84.4034 85.5417 83.3566C85.6955 82.3099 86.6633 81.5852 87.7033 81.738C88.7433 81.8908 89.4617 82.8632 89.308 83.91C89.1542 84.9567 88.1864 85.6814 87.1464 85.5286Z" fill="#F99303"/>
<path d="M82.1249 84.7903C81.0849 84.6375 80.3665 83.6651 80.5203 82.6183C80.674 81.5716 81.6418 80.8469 82.6818 80.9997C83.7218 81.1525 84.4403 82.1249 84.2865 83.1717C84.1327 84.2184 83.1649 84.9431 82.1249 84.7903Z" fill="#F99303"/>
<path d="M77.1034 84.053C76.0634 83.9002 75.345 82.9278 75.4988 81.881C75.6526 80.8343 76.6203 80.1096 77.6604 80.2624C78.7004 80.4152 79.4188 81.3876 79.265 82.4344C79.1112 83.4811 78.1434 84.2058 77.1034 84.053Z" fill="#F99303"/>
<path d="M72.0814 83.3147C71.0414 83.1619 70.323 82.1895 70.4768 81.1427C70.6306 80.096 71.5984 79.3713 72.6384 79.5241C73.6784 79.6769 74.3968 80.6493 74.243 81.6961C74.0892 82.7429 73.1214 83.4675 72.0814 83.3147Z" fill="#F99303"/>
<path d="M67.06 82.5774C66.0199 82.4246 65.3015 81.4522 65.4553 80.4054C65.6091 79.3587 66.5769 78.634 67.6169 78.7868C68.6569 78.9396 69.3753 79.912 69.2215 80.9588C69.0677 82.0055 68.1 82.7302 67.06 82.5774Z" fill="#F99303"/>
<path d="M62.0385 81.8392C60.9985 81.6863 60.28 80.7139 60.4338 79.6672C60.5876 78.6204 61.5554 77.8957 62.5954 78.0485C63.6354 78.2013 64.3538 79.1738 64.2 80.2205C64.0462 81.2673 63.0785 81.992 62.0385 81.8392Z" fill="#F99303"/>
<path d="M57.017 81.1018C55.977 80.949 55.2585 79.9766 55.4123 78.9298C55.5661 77.8831 56.5339 77.1584 57.5739 77.3112C58.6139 77.464 59.3324 78.4365 59.1786 79.4832C59.0248 80.53 58.057 81.2547 57.017 81.1018Z" fill="#F99303"/>
<path d="M51.995 80.3636C50.955 80.2108 50.2366 79.2383 50.3904 78.1916C50.5442 77.1448 51.5119 76.4201 52.552 76.5729C53.592 76.7257 54.3104 77.6982 54.1566 78.7449C54.0028 79.7917 53.035 80.5164 51.995 80.3636Z" fill="#F99303"/>
<path d="M46.9735 79.6263C45.9335 79.4735 45.2151 78.501 45.3689 77.4543C45.5227 76.4075 46.4905 75.6828 47.5305 75.8356C48.5705 75.9884 49.2889 76.9609 49.1351 78.0076C48.9813 79.0544 48.0135 79.7791 46.9735 79.6263Z" fill="#F99303"/>
<path d="M41.952 78.888C40.912 78.7352 40.1936 77.7627 40.3474 76.716C40.5012 75.6692 41.469 74.9445 42.509 75.0973C43.549 75.2502 44.2674 76.2226 44.1136 77.2693C43.9598 78.3161 42.992 79.0408 41.952 78.888Z" fill="#F99303"/>
<path d="M36.9306 78.1507C35.8905 77.9979 35.1721 77.0254 35.3259 75.9787C35.4797 74.9319 36.4475 74.2072 37.4875 74.36C38.5275 74.5128 39.2459 75.4853 39.0921 76.532C38.9383 77.5788 37.9706 78.3035 36.9306 78.1507Z" fill="#F99303"/>
<path d="M31.9086 77.4124C30.8686 77.2596 30.1501 76.2872 30.3039 75.2404C30.4577 74.1936 31.4255 73.469 32.4655 73.6218C33.5055 73.7746 34.224 74.747 34.0702 75.7938C33.9164 76.8405 32.9486 77.5652 31.9086 77.4124Z" fill="#F99303"/>
<path d="M26.8871 76.6751C25.8471 76.5223 25.1287 75.5498 25.2825 74.5031C25.4363 73.4563 26.404 72.7316 27.444 72.8845C28.4841 73.0373 29.2025 74.0097 29.0487 75.0564C28.8949 76.1032 27.9271 76.8279 26.8871 76.6751Z" fill="#F99303"/>
<path d="M21.8656 75.9368C20.8256 75.784 20.1072 74.8116 20.261 73.7648C20.4148 72.7181 21.3825 71.9934 22.4226 72.1462C23.4626 72.299 24.181 73.2714 24.0272 74.3182C23.8734 75.3649 22.9056 76.0896 21.8656 75.9368Z" fill="#F99303"/>
<path d="M16.8436 75.1995C15.8036 75.0467 15.0852 74.0743 15.239 73.0275C15.3928 71.9808 16.3606 71.2561 17.4006 71.4089C18.4406 71.5617 19.159 72.5341 19.0052 73.5809C18.8514 74.6276 17.8837 75.3523 16.8436 75.1995Z" fill="#F99303"/>
<path d="M11.8226 74.4612C10.7826 74.3084 10.0642 73.336 10.218 72.2892C10.3718 71.2425 11.3396 70.5178 12.3796 70.6706C13.4196 70.8234 14.138 71.7958 13.9842 72.8426C13.8304 73.8893 12.8627 74.614 11.8226 74.4612Z" fill="#F99303"/>
<path d="M8.96229 72.1051C8.93769 72.2725 8.89204 72.4304 8.82897 72.576C8.77309 72.7163 8.69978 72.8443 8.61171 72.9636C8.38248 72.0361 8.18022 71.0996 8.00492 70.1541C8.13559 70.2249 8.25405 70.3133 8.36439 70.4134C8.81375 70.8248 9.05836 71.4512 8.96229 72.1051Z" fill="#F99303"/>
<path d="M102.072 88.69C102.584 88.7651 103.018 89.0387 103.305 89.4197C103.373 89.5071 103.432 89.603 103.482 89.7006C102.849 90.6499 102.184 91.5752 101.493 92.4774C101.38 92.4608 101.276 92.4324 101.172 92.3978C100.323 92.1054 99.7748 91.2341 99.9108 90.3086C100.064 89.263 101.033 88.5373 102.072 88.69Z" fill="#F99303"/>
<path d="M96.4935 91.7425C95.4535 91.5897 94.7351 90.6172 94.8889 89.5705C95.0427 88.5237 96.0105 87.799 97.0505 87.9518C98.0905 88.1046 98.8089 89.0771 98.6551 90.1238C98.5013 91.1706 97.5336 91.8953 96.4935 91.7425Z" fill="#F99303"/>
<path d="M91.4721 91.0042C90.432 90.8514 89.7136 89.879 89.8674 88.8322C90.0212 87.7854 90.989 87.0608 92.029 87.2136C93.069 87.3664 93.7874 88.3388 93.6336 89.3856C93.4798 90.4323 92.5121 91.157 91.4721 91.0042Z" fill="#F99303"/>
<path d="M86.4506 90.2669C85.4106 90.1141 84.6921 89.1417 84.8459 88.0949C84.9997 87.0481 85.9675 86.3234 87.0075 86.4763C88.0475 86.6291 88.7659 87.6015 88.6122 88.6482C88.4584 89.695 87.4906 90.4197 86.4506 90.2669Z" fill="#F99303"/>
<path d="M81.4286 89.5286C80.3886 89.3758 79.6702 88.4034 79.824 87.3566C79.9778 86.3099 80.9455 85.5852 81.9855 85.738C83.0256 85.8908 83.744 86.8632 83.5902 87.91C83.4364 88.9567 82.4686 89.6814 81.4286 89.5286Z" fill="#F99303"/>
<path d="M76.4071 88.7913C75.3671 88.6385 74.6487 87.6661 74.8025 86.6193C74.9563 85.5726 75.924 84.8479 76.9641 85.0007C78.0041 85.1535 78.7225 86.1259 78.5687 87.1727C78.4149 88.2194 77.4471 88.9441 76.4071 88.7913Z" fill="#F99303"/>
<path d="M71.3856 88.053C70.3456 87.9002 69.6272 86.9278 69.781 85.881C69.9348 84.8343 70.9026 84.1096 71.9426 84.2624C72.9826 84.4152 73.701 85.3876 73.5472 86.4344C73.3934 87.4811 72.4256 88.2058 71.3856 88.053Z" fill="#F99303"/>
<path d="M66.3637 87.3157C65.3237 87.1629 64.6052 86.1905 64.759 85.1437C64.9128 84.097 65.8806 83.3723 66.9206 83.5251C67.9606 83.6779 68.679 84.6503 68.5252 85.6971C68.3714 86.7438 67.4037 87.4685 66.3637 87.3157Z" fill="#F99303"/>
<path d="M61.3422 86.5774C60.3022 86.4246 59.5837 85.4522 59.7375 84.4054C59.8913 83.3587 60.8591 82.634 61.8991 82.7868C62.9391 82.9396 63.6576 83.912 63.5038 84.9588C63.35 86.0056 62.3822 86.7302 61.3422 86.5774Z" fill="#F99303"/>
<path d="M56.3207 85.8401C55.2807 85.6873 54.5622 84.7149 54.716 83.6681C54.8698 82.6214 55.8376 81.8967 56.8776 82.0495C57.9176 82.2023 58.6361 83.1747 58.4823 84.2215C58.3285 85.2682 57.3607 85.9929 56.3207 85.8401Z" fill="#F99303"/>
<path d="M51.2987 85.1019C50.2587 84.949 49.5403 83.9766 49.6941 82.9299C49.8479 81.8831 50.8157 81.1584 51.8557 81.3112C52.8957 81.464 53.6141 82.4365 53.4603 83.4832C53.3065 84.53 52.3387 85.2547 51.2987 85.1019Z" fill="#F99303"/>
<path d="M46.2777 84.3645C45.2377 84.2117 44.5193 83.2393 44.6731 82.1925C44.8269 81.1458 45.7947 80.4211 46.8347 80.5739C47.8747 80.7267 48.5931 81.6991 48.4393 82.7459C48.2855 83.7927 47.3177 84.5174 46.2777 84.3645Z" fill="#F99303"/>
<path d="M41.2557 83.6263C40.2157 83.4735 39.4973 82.501 39.6511 81.4543C39.8049 80.4075 40.7727 79.6828 41.8127 79.8356C42.8527 79.9884 43.5711 80.9609 43.4173 82.0076C43.2635 83.0544 42.2958 83.7791 41.2557 83.6263Z" fill="#F99303"/>
<path d="M36.2343 82.889C35.1942 82.7362 34.4758 81.7637 34.6296 80.717C34.7834 79.6702 35.7512 78.9455 36.7912 79.0983C37.8312 79.2511 38.5496 80.2236 38.3958 81.2703C38.242 82.3171 37.2743 83.0418 36.2343 82.889Z" fill="#F99303"/>
<path d="M31.2123 82.1507C30.1723 81.9979 29.4539 81.0254 29.6076 79.9787C29.7614 78.9319 30.7292 78.2072 31.7692 78.36C32.8092 78.5128 33.5277 79.4853 33.3739 80.532C33.2201 81.5788 32.2523 82.3035 31.2123 82.1507Z" fill="#F99303"/>
<path d="M26.1908 81.4134C25.1508 81.2606 24.4324 80.2881 24.5862 79.2414C24.74 78.1946 25.7077 77.4699 26.7477 77.6227C27.7878 77.7755 28.5062 78.748 28.3524 79.7947C28.1986 80.8415 27.2308 81.5662 26.1908 81.4134Z" fill="#F99303"/>
<path d="M21.1693 80.6751C20.1293 80.5223 19.4109 79.5499 19.5647 78.5031C19.7185 77.4563 20.6863 76.7316 21.7263 76.8845C22.7663 77.0373 23.4847 78.0097 23.3309 79.0565C23.1771 80.1032 22.2093 80.8279 21.1693 80.6751Z" fill="#F99303"/>
<path d="M16.1478 79.9378C15.1078 79.785 14.3894 78.8125 14.5432 77.7658C14.697 76.719 15.6648 75.9943 16.7048 76.1472C17.7448 76.3 18.4632 77.2724 18.3094 78.3191C18.1556 79.3659 17.1879 80.0906 16.1478 79.9378Z" fill="#F99303"/>
<path d="M11.6833 75.4089C12.7221 75.5615 13.4416 76.5353 13.2879 77.5809C13.1343 78.6265 12.1652 79.3521 11.1264 79.1995C11.0322 79.1857 10.9421 79.166 10.8566 79.1373C10.7181 79.0976 10.5883 79.043 10.467 78.9736L10.4675 78.9704C10.1756 78.1853 9.89727 77.3957 9.6396 76.5963C9.69141 76.4619 9.75843 76.333 9.83931 76.219C10.2388 75.6387 10.9426 75.3 11.6833 75.4089Z" fill="#F99303"/>
<path d="M95.7973 96.4807C94.7572 96.3279 94.0388 95.3555 94.1926 94.3088C94.3464 93.262 95.3142 92.5373 96.3542 92.6901C97.3942 92.8429 98.1126 93.8154 97.9588 94.8621C97.805 95.9089 96.8373 96.6335 95.7973 96.4807Z" fill="#F99303"/>
<path d="M90.7758 95.7425C89.7358 95.5897 89.0173 94.6172 89.1711 93.5705C89.3249 92.5237 90.2927 91.799 91.3327 91.9518C92.3727 92.1046 93.0911 93.0771 92.9373 94.1238C92.7836 95.1706 91.8158 95.8953 90.7758 95.7425Z" fill="#F99303"/>
<path d="M85.7543 95.0052C84.7143 94.8524 83.9959 93.8799 84.1497 92.8332C84.3034 91.7864 85.2712 91.0617 86.3112 91.2145C87.3512 91.3673 88.0697 92.3398 87.9159 93.3865C87.7621 94.4333 86.7943 95.158 85.7543 95.0052Z" fill="#F99303"/>
<path d="M80.7323 94.2669C79.6923 94.1141 78.9739 93.1416 79.1277 92.0949C79.2815 91.0481 80.2492 90.3234 81.2893 90.4763C82.3293 90.6291 83.0477 91.6015 82.8939 92.6482C82.7401 93.695 81.7723 94.4197 80.7323 94.2669Z" fill="#F99303"/>
<path d="M75.7108 93.5296C74.6708 93.3768 73.9524 92.4043 74.1062 91.3576C74.26 90.3108 75.2278 89.5861 76.2678 89.7389C77.3078 89.8918 78.0262 90.8642 77.8724 91.9109C77.7186 92.9577 76.7508 93.6824 75.7108 93.5296Z" fill="#F99303"/>
<path d="M70.6893 92.7913C69.6493 92.6385 68.9309 91.6661 69.0847 90.6193C69.2385 89.5725 70.2063 88.8479 71.2463 89.0007C72.2863 89.1535 73.0047 90.1259 72.8509 91.1727C72.6971 92.2194 71.7294 92.9441 70.6893 92.7913Z" fill="#F99303"/>
<path d="M65.6679 92.054C64.6279 91.9012 63.9094 90.9287 64.0632 89.882C64.217 88.8352 65.1848 88.1106 66.2248 88.2634C67.2648 88.4162 67.9832 89.3886 67.8294 90.4354C67.6756 91.4821 66.7079 92.2068 65.6679 92.054Z" fill="#F99303"/>
<path d="M60.6464 91.3157C59.6064 91.1629 58.8879 90.1905 59.0417 89.1437C59.1955 88.097 60.1633 87.3723 61.2033 87.5251C62.2433 87.6779 62.9617 88.6503 62.808 89.6971C62.6542 90.7438 61.6864 91.4685 60.6464 91.3157Z" fill="#F99303"/>
<path d="M55.6244 90.5784C54.5844 90.4256 53.866 89.4532 54.0198 88.4064C54.1736 87.3597 55.1413 86.635 56.1813 86.7878C57.2214 86.9406 57.9398 87.913 57.786 88.9598C57.6322 90.0065 56.6644 90.7312 55.6244 90.5784Z" fill="#F99303"/>
<path d="M50.6029 89.8401C49.5629 89.6873 48.8445 88.7149 48.9983 87.6681C49.1521 86.6214 50.1199 85.8967 51.1599 86.0495C52.1999 86.2023 52.9183 87.1747 52.7645 88.2215C52.6107 89.2682 51.6429 89.9929 50.6029 89.8401Z" fill="#F99303"/>
<path d="M45.5814 89.1028C44.5414 88.95 43.823 87.9776 43.9768 86.9308C44.1306 85.8841 45.0984 85.1594 46.1384 85.3122C47.1784 85.465 47.8968 86.4374 47.743 87.4842C47.5892 88.5309 46.6214 89.2556 45.5814 89.1028Z" fill="#F99303"/>
<path d="M40.5595 88.3645C39.5194 88.2117 38.801 87.2393 38.9548 86.1925C39.1086 85.1458 40.0764 84.4211 41.1164 84.5739C42.1564 84.7267 42.8748 85.6991 42.721 86.7459C42.5672 87.7927 41.5995 88.5173 40.5595 88.3645Z" fill="#F99303"/>
<path d="M35.538 87.6272C34.498 87.4744 33.7795 86.502 33.9333 85.4552C34.0871 84.4085 35.0549 83.6838 36.0949 83.8366C37.1349 83.9894 37.8534 84.9618 37.6996 86.0086C37.5458 87.0553 36.578 87.78 35.538 87.6272Z" fill="#F99303"/>
<path d="M30.5165 86.8889C29.4765 86.7361 28.7581 85.7637 28.9119 84.717C29.0656 83.6702 30.0334 82.9455 31.0734 83.0983C32.1134 83.2511 32.8319 84.2236 32.6781 85.2703C32.5243 86.3171 31.5565 87.0418 30.5165 86.8889Z" fill="#F99303"/>
<path d="M25.495 86.1516C24.455 85.9988 23.7366 85.0264 23.8904 83.9797C24.0442 82.9329 25.0119 82.2082 26.0519 82.361C27.092 82.5138 27.8104 83.4863 27.6566 84.533C27.5028 85.5798 26.535 86.3044 25.495 86.1516Z" fill="#F99303"/>
<path d="M20.473 85.4134C19.433 85.2606 18.7146 84.2881 18.8684 83.2414C19.0222 82.1946 19.99 81.4699 21.03 81.6227C22.07 81.7755 22.7884 82.748 22.6346 83.7947C22.4808 84.8415 21.513 85.5662 20.473 85.4134Z" fill="#F99303"/>
<path d="M15.4516 84.6761C14.4115 84.5233 13.6931 83.5508 13.8469 82.5041C14.0007 81.4573 14.9685 80.7326 16.0085 80.8854C17.0485 81.0382 17.7669 82.0107 17.6131 83.0574C17.4593 84.1042 16.4916 84.8289 15.4516 84.6761Z" fill="#F99303"/>
<path d="M11.2815 80.2162C12.1582 80.4903 12.7304 81.3746 12.5916 82.3191C12.5647 82.5024 12.5132 82.6787 12.4384 82.8388C12.3862 82.9537 12.3219 83.0637 12.2497 83.1628C11.7767 82.1704 11.3347 81.1631 10.9238 80.1411C10.9431 80.1407 10.965 80.1439 10.987 80.1471C11.0906 80.1624 11.1865 80.1861 11.2815 80.2162Z" fill="#F99303"/>
<path d="M95.6581 97.4283C95.95 97.4712 96.2165 97.5781 96.4436 97.7341C96.5313 97.7921 96.6117 97.8556 96.6872 97.9312C95.7832 98.8246 94.8489 99.6845 93.8874 100.511C93.8196 100.427 93.759 100.338 93.7119 100.244C93.5167 99.8921 93.4335 99.4765 93.4966 99.0469C93.6502 98.0013 94.6193 97.2757 95.6581 97.4283Z" fill="#F99303"/>
<path d="M90.0795 100.481C89.0395 100.328 88.3211 99.3555 88.4748 98.3088C88.6286 97.262 89.5964 96.5373 90.6364 96.6901C91.6764 96.8429 92.3949 97.8154 92.2411 98.8621C92.0873 99.9089 91.1195 100.634 90.0795 100.481Z" fill="#F99303"/>
<path d="M85.058 99.7434C84.018 99.5906 83.2996 98.6182 83.4534 97.5714C83.6072 96.5247 84.5749 95.8 85.6149 95.9528C86.655 96.1056 87.3734 97.0781 87.2196 98.1248C87.0658 99.1716 86.098 99.8962 85.058 99.7434Z" fill="#F99303"/>
<path d="M80.0365 99.0052C78.9965 98.8523 78.2781 97.8799 78.4319 96.8332C78.5857 95.7864 79.5534 95.0617 80.5935 95.2145C81.6335 95.3673 82.3519 96.3398 82.1981 97.3865C82.0443 98.4333 81.0765 99.158 80.0365 99.0052Z" fill="#F99303"/>
<path d="M75.015 98.2678C73.975 98.115 73.2566 97.1426 73.4104 96.0959C73.5642 95.0491 74.532 94.3244 75.572 94.4772C76.612 94.63 77.3304 95.6025 77.1766 96.6492C77.0228 97.696 76.055 98.4207 75.015 98.2678Z" fill="#F99303"/>
<path d="M69.9931 97.5296C68.953 97.3768 68.2346 96.4043 68.3884 95.3576C68.5422 94.3108 69.51 93.5861 70.55 93.7389C71.59 93.8918 72.3084 94.8642 72.1546 95.9109C72.0008 96.9577 71.0331 97.6824 69.9931 97.5296Z" fill="#F99303"/>
<path d="M64.9716 96.7923C63.9316 96.6395 63.2131 95.667 63.3669 94.6203C63.5207 93.5735 64.4885 92.8488 65.5285 93.0016C66.5685 93.1544 67.2869 94.1269 67.1332 95.1736C66.9794 96.2204 66.0116 96.9451 64.9716 96.7923Z" fill="#F99303"/>
<path d="M59.9501 96.054C58.9101 95.9012 58.1917 94.9287 58.3455 93.882C58.4993 92.8352 59.467 92.1106 60.507 92.2634C61.547 92.4162 62.2655 93.3886 62.1117 94.4353C61.9579 95.4821 60.9901 96.2068 59.9501 96.054Z" fill="#F99303"/>
<path d="M54.9281 95.3167C53.8881 95.1639 53.1697 94.1914 53.3235 93.1447C53.4773 92.0979 54.445 91.3733 55.4851 91.5261C56.5251 91.6789 57.2435 92.6513 57.0897 93.698C56.9359 94.7448 55.9681 95.4695 54.9281 95.3167Z" fill="#F99303"/>
<path d="M49.9066 94.5784C48.8666 94.4256 48.1482 93.4532 48.302 92.4064C48.4558 91.3597 49.4236 90.635 50.4636 90.7878C51.5036 90.9406 52.222 91.913 52.0682 92.9598C51.9144 94.0065 50.9466 94.7312 49.9066 94.5784Z" fill="#F99303"/>
<path d="M44.8851 93.8411C43.8451 93.6883 43.1267 92.7159 43.2805 91.6691C43.4343 90.6224 44.4021 89.8977 45.4421 90.0505C46.4821 90.2033 47.2005 91.1757 47.0467 92.2225C46.8929 93.2692 45.9252 93.9939 44.8851 93.8411Z" fill="#F99303"/>
<path d="M39.8637 93.1028C38.8236 92.95 38.1052 91.9776 38.259 90.9308C38.4128 89.8841 39.3806 89.1594 40.4206 89.3122C41.4606 89.465 42.179 90.4374 42.0252 91.4842C41.8714 92.5309 40.9037 93.2556 39.8637 93.1028Z" fill="#F99303"/>
<path d="M34.8417 92.3655C33.8017 92.2127 33.0833 91.2403 33.237 90.1935C33.3908 89.1468 34.3586 88.4221 35.3986 88.5749C36.4386 88.7277 37.1571 89.7001 37.0033 90.7469C36.8495 91.7936 35.8817 92.5183 34.8417 92.3655Z" fill="#F99303"/>
<path d="M29.8202 91.6272C28.7802 91.4744 28.0618 90.502 28.2156 89.4552C28.3694 88.4085 29.3371 87.6838 30.3771 87.8366C31.4172 87.9894 32.1356 88.9618 31.9818 90.0086C31.828 91.0553 30.8602 91.78 29.8202 91.6272Z" fill="#F99303"/>
<path d="M24.7987 90.8899C23.7587 90.7371 23.0403 89.7647 23.1941 88.7179C23.3479 87.6712 24.3156 86.9465 25.3557 87.0993C26.3957 87.2521 27.1141 88.2245 26.9603 89.2713C26.8065 90.318 25.8387 91.0427 24.7987 90.8899Z" fill="#F99303"/>
<path d="M19.7772 90.1516C18.7372 89.9988 18.0188 89.0264 18.1726 87.9796C18.3264 86.9329 19.2942 86.2082 20.3342 86.361C21.3742 86.5138 22.0926 87.4863 21.9388 88.533C21.785 89.5798 20.8172 90.3044 19.7772 90.1516Z" fill="#F99303"/>
<path d="M15.3122 85.6237C16.3511 85.7763 17.0705 86.7501 16.9168 87.7957C16.8287 88.3959 16.474 88.8892 15.9899 89.173C15.8985 89.2273 15.8018 89.2744 15.7002 89.3112C15.0171 88.2653 14.3699 87.1924 13.7615 86.0961C13.839 86.0269 13.9255 85.9621 14.0137 85.9073C14.3859 85.6651 14.8414 85.5545 15.3122 85.6237Z" fill="#F99303"/>
<path d="M89.9401 101.429C90.4862 101.509 90.9446 101.815 91.2315 102.241C91.292 102.331 91.3486 102.426 91.3889 102.523C90.3927 103.28 89.3667 104 88.3175 104.682C88.242 104.606 88.1738 104.525 88.1127 104.439C87.836 104.053 87.7033 103.559 87.7785 103.047C87.9321 102.002 88.9012 101.276 89.9401 101.429Z" fill="#F99303"/>
<path d="M84.3617 104.482C83.3217 104.329 82.6033 103.356 82.7571 102.31C82.9109 101.263 83.8786 100.538 84.9187 100.691C85.9587 100.844 86.6771 101.816 86.5233 102.863C86.3695 103.91 85.4017 104.635 84.3617 104.482Z" fill="#F99303"/>
<path d="M79.3402 103.743C78.3002 103.591 77.5818 102.618 77.7356 101.571C77.8894 100.525 78.8572 99.8 79.8972 99.9528C80.9372 100.106 81.6556 101.078 81.5018 102.125C81.348 103.172 80.3802 103.896 79.3402 103.743Z" fill="#F99303"/>
<path d="M74.3187 103.006C73.2787 102.853 72.5603 101.881 72.7141 100.834C72.8679 99.7874 73.8357 99.0627 74.8757 99.2155C75.9157 99.3683 76.6341 100.341 76.4803 101.388C76.3265 102.434 75.3588 103.159 74.3187 103.006Z" fill="#F99303"/>
<path d="M69.2968 102.268C68.2568 102.115 67.5383 101.143 67.6921 100.096C67.8459 99.0491 68.8137 98.3244 69.8537 98.4772C70.8937 98.63 71.6121 99.6025 71.4583 100.649C71.3045 101.696 70.3368 102.421 69.2968 102.268Z" fill="#F99303"/>
<path d="M64.2753 101.531C63.2353 101.378 62.5169 100.405 62.6707 99.3586C62.8244 98.3118 63.7922 97.5871 64.8322 97.7399C65.8722 97.8927 66.5907 98.8652 66.4369 99.9119C66.2831 100.959 65.3153 101.683 64.2753 101.531Z" fill="#F99303"/>
<path d="M59.2538 100.792C58.2138 100.639 57.4954 99.667 57.6492 98.6203C57.803 97.5735 58.7707 96.8488 59.8107 97.0016C60.8508 97.1544 61.5692 98.1269 61.4154 99.1736C61.2616 100.22 60.2938 100.945 59.2538 100.792Z" fill="#F99303"/>
<path d="M54.2323 100.055C53.1923 99.9022 52.4739 98.9297 52.6277 97.883C52.7815 96.8362 53.7492 96.1115 54.7893 96.2643C55.8293 96.4171 56.5477 97.3896 56.3939 98.4363C56.2401 99.4831 55.2723 100.208 54.2323 100.055Z" fill="#F99303"/>
<path d="M49.2103 99.3167C48.1703 99.1639 47.4519 98.1914 47.6057 97.1447C47.7595 96.0979 48.7273 95.3733 49.7673 95.5261C50.8073 95.6789 51.5257 96.6513 51.3719 97.698C51.2181 98.7448 50.2504 99.4695 49.2103 99.3167Z" fill="#F99303"/>
<path d="M44.1889 98.5794C43.1488 98.4266 42.4304 97.4541 42.5842 96.4074C42.738 95.3606 43.7058 94.6359 44.7458 94.7888C45.7858 94.9416 46.5042 95.914 46.3504 96.9607C46.1966 98.0075 45.2289 98.7322 44.1889 98.5794Z" fill="#F99303"/>
<path d="M39.1674 97.8411C38.1274 97.6883 37.4089 96.7159 37.5627 95.6691C37.7165 94.6224 38.6843 93.8977 39.7243 94.0505C40.7643 94.2033 41.4827 95.1757 41.329 96.2225C41.1752 97.2692 40.2074 97.9939 39.1674 97.8411Z" fill="#F99303"/>
<path d="M34.1454 97.1038C33.1054 96.951 32.387 95.9786 32.5408 94.9318C32.6946 93.885 33.6623 93.1604 34.7023 93.3132C35.7424 93.466 36.4608 94.4384 36.307 95.4852C36.1532 96.5319 35.1854 97.2566 34.1454 97.1038Z" fill="#F99303"/>
<path d="M29.1239 96.3655C28.0839 96.2127 27.3655 95.2403 27.5193 94.1935C27.6731 93.1468 28.6408 92.4221 29.6809 92.5749C30.7209 92.7277 31.4393 93.7001 31.2855 94.7469C31.1317 95.7936 30.1639 96.5183 29.1239 96.3655Z" fill="#F99303"/>
<path d="M24.1024 95.6282C23.0624 95.4754 22.344 94.503 22.4978 93.4562C22.6516 92.4095 23.6194 91.6848 24.6594 91.8376C25.6994 91.9904 26.4178 92.9628 26.264 94.0096C26.1102 95.0563 25.1424 95.781 24.1024 95.6282Z" fill="#F99303"/>
<path d="M19.6379 91.0993C20.6767 91.2519 21.3961 92.2257 21.2425 93.2713C21.1451 93.9347 20.7202 94.4692 20.1595 94.7289C20.0592 94.7787 19.954 94.8181 19.847 94.8476C19.0886 93.9649 18.3631 93.0548 17.6663 92.123C17.7166 92.0207 17.779 91.9234 17.8468 91.8333C18.2554 91.2996 18.9317 90.9955 19.6379 91.0993Z" fill="#F99303"/>
<path d="M84.2228 105.429C84.7061 105.5 85.1191 105.745 85.4045 106.093C85.4728 106.174 85.5307 106.26 85.585 106.349C84.4826 106.978 83.3576 107.564 82.2095 108.112C82.1655 108.018 82.1287 107.919 82.105 107.819C82.0385 107.574 82.0222 107.313 82.0612 107.048C82.2148 106.002 83.1839 105.277 84.2228 105.429Z" fill="#F99303"/>
<path d="M78.6439 108.482C77.6039 108.329 76.8855 107.356 77.0393 106.31C77.1931 105.263 78.1609 104.538 79.2009 104.691C80.2409 104.844 80.9593 105.816 80.8055 106.863C80.6517 107.91 79.6839 108.635 78.6439 108.482Z" fill="#F99303"/>
<path d="M73.6224 107.744C72.5824 107.592 71.864 106.619 72.0178 105.572C72.1716 104.526 73.1394 103.801 74.1794 103.954C75.2194 104.107 75.9378 105.079 75.784 106.126C75.6302 107.173 74.6625 107.897 73.6224 107.744Z" fill="#F99303"/>
<path d="M68.601 107.006C67.561 106.853 66.8425 105.881 66.9963 104.834C67.1501 103.787 68.1179 103.063 69.1579 103.216C70.1979 103.368 70.9163 104.341 70.7625 105.388C70.6087 106.434 69.641 107.159 68.601 107.006Z" fill="#F99303"/>
<path d="M63.579 106.269C62.539 106.116 61.8206 105.144 61.9744 104.097C62.1282 103.05 63.0959 102.325 64.1359 102.478C65.1759 102.631 65.8944 103.603 65.7406 104.65C65.5868 105.697 64.619 106.422 63.579 106.269Z" fill="#F99303"/>
<path d="M58.5575 105.531C57.5175 105.378 56.7991 104.405 56.9529 103.359C57.1067 102.312 58.0744 101.587 59.1145 101.74C60.1545 101.893 60.8729 102.865 60.7191 103.912C60.5653 104.959 59.5975 105.683 58.5575 105.531Z" fill="#F99303"/>
<path d="M53.536 104.793C52.496 104.64 51.7776 103.668 51.9314 102.621C52.0852 101.575 53.0529 100.85 54.093 101.003C55.133 101.155 55.8514 102.128 55.6976 103.175C55.5438 104.221 54.576 104.946 53.536 104.793Z" fill="#F99303"/>
<path d="M48.5141 104.055C47.474 103.902 46.7556 102.93 46.9094 101.883C47.0632 100.836 48.031 100.112 49.071 100.264C50.111 100.417 50.8294 101.39 50.6756 102.436C50.5218 103.483 49.5541 104.208 48.5141 104.055Z" fill="#F99303"/>
<path d="M43.4931 103.318C42.453 103.165 41.7346 102.192 41.8884 101.146C42.0422 100.099 43.01 99.3742 44.05 99.527C45.09 99.6798 45.8084 100.652 45.6546 101.699C45.5008 102.746 44.5331 103.47 43.4931 103.318Z" fill="#F99303"/>
<path d="M38.4711 102.579C37.4311 102.427 36.7126 101.454 36.8664 100.407C37.0202 99.3606 37.988 98.6359 39.028 98.7888C40.068 98.9416 40.7865 99.914 40.6327 100.961C40.4789 102.008 39.5111 102.732 38.4711 102.579Z" fill="#F99303"/>
<path d="M33.4496 101.842C32.4096 101.689 31.6912 100.717 31.845 99.6701C31.9988 98.6233 32.9665 97.8986 34.0065 98.0514C35.0466 98.2043 35.765 99.1767 35.6112 100.223C35.4574 101.27 34.4896 101.995 33.4496 101.842Z" fill="#F99303"/>
<path d="M28.4276 101.104C27.3876 100.951 26.6692 99.9786 26.823 98.9318C26.9768 97.885 27.9446 97.1604 28.9846 97.3132C30.0246 97.466 30.743 98.4384 30.5892 99.4852C30.4354 100.532 29.4676 101.257 28.4276 101.104Z" fill="#F99303"/>
<path d="M23.9631 96.5759C25.0019 96.7285 25.7213 97.7023 25.5677 98.7479C25.5102 99.1396 25.3407 99.4858 25.0921 99.759C25.0236 99.8329 24.9487 99.9058 24.8659 99.9678C23.9246 99.1293 23.0135 98.2596 22.1394 97.3567C22.2 97.272 22.2658 97.1946 22.3407 97.1217C22.7479 96.7071 23.3448 96.485 23.9631 96.5759Z" fill="#F99303"/>
<path d="M76.8711 109.987C77.2567 109.588 77.8124 109.363 78.4003 109.421C78.4039 109.418 78.407 109.418 78.4102 109.419C78.442 109.42 78.4734 109.425 78.5048 109.429C78.6523 109.451 78.7912 109.488 78.9242 109.543C78.1411 109.854 77.3513 110.144 76.555 110.414C76.6392 110.256 76.7435 110.113 76.8711 109.987Z" fill="#F99303"/>
<path d="M73.4831 108.692C74.4215 108.83 75.1009 109.64 75.1058 110.567C75.1107 110.664 75.1026 110.763 75.0877 110.864L75.0836 110.892C73.9817 111.234 72.8662 111.538 71.7364 111.808C71.6655 111.723 71.6022 111.63 71.5489 111.535C71.3451 111.176 71.257 110.75 71.3215 110.311C71.4751 109.265 72.4443 108.539 73.4831 108.692Z" fill="#F99303"/>
<path d="M67.9047 111.744C66.8647 111.592 66.1462 110.619 66.3 109.572C66.4538 108.526 67.4216 107.801 68.4616 107.954C69.5016 108.107 70.2201 109.079 70.0663 110.126C69.9125 111.173 68.9447 111.897 67.9047 111.744Z" fill="#F99303"/>
<path d="M62.8832 111.007C61.8432 110.854 61.1248 109.882 61.2786 108.835C61.4324 107.788 62.4001 107.064 63.4401 107.216C64.4801 107.369 65.1986 108.342 65.0448 109.388C64.891 110.435 63.9232 111.16 62.8832 111.007Z" fill="#F99303"/>
<path d="M57.8612 110.269C56.8212 110.116 56.1028 109.144 56.2566 108.097C56.4104 107.05 57.3782 106.325 58.4182 106.478C59.4582 106.631 60.1766 107.603 60.0228 108.65C59.869 109.697 58.9012 110.422 57.8612 110.269Z" fill="#F99303"/>
<path d="M52.8397 109.532C51.7997 109.379 51.0813 108.406 51.2351 107.36C51.3889 106.313 52.3567 105.588 53.3967 105.741C54.4367 105.894 55.1551 106.866 55.0013 107.913C54.8475 108.96 53.8797 109.684 52.8397 109.532Z" fill="#F99303"/>
<path d="M47.8183 108.793C46.7782 108.64 46.0598 107.668 46.2136 106.621C46.3674 105.574 47.3352 104.85 48.3752 105.003C49.4152 105.155 50.1336 106.128 49.9798 107.175C49.826 108.221 48.8583 108.946 47.8183 108.793Z" fill="#F99303"/>
<path d="M42.7968 108.056C41.7568 107.903 41.0383 106.931 41.1921 105.884C41.3459 104.837 42.3137 104.113 43.3537 104.265C44.3937 104.418 45.1121 105.391 44.9583 106.437C44.8046 107.484 43.8368 108.209 42.7968 108.056Z" fill="#F99303"/>
<path d="M37.7748 107.318C36.7348 107.165 36.0164 106.192 36.1702 105.146C36.3239 104.099 37.2917 103.374 38.3317 103.527C39.3717 103.68 40.0902 104.652 39.9364 105.699C39.7826 106.746 38.8148 107.47 37.7748 107.318Z" fill="#F99303"/>
<path d="M33.3102 102.79C34.3491 102.942 35.0685 103.916 34.9149 104.962C34.8378 105.486 34.5543 105.932 34.1585 106.225C34.0649 106.295 33.9627 106.358 33.8557 106.41C32.9295 105.883 32.02 105.33 31.1304 104.751C31.1242 104.64 31.1315 104.525 31.1487 104.408C31.1491 104.405 31.1491 104.405 31.1496 104.402C31.3059 103.36 32.2745 102.638 33.3102 102.79Z" fill="#F99303"/>
<path d="M28.2885 102.051C29.0919 102.169 29.7046 102.779 29.8696 103.532C29.8986 103.663 29.914 103.797 29.9102 103.932C29.0691 103.35 28.2474 102.745 27.4451 102.118C27.5727 102.078 27.7052 102.049 27.8412 102.04C27.9875 102.026 28.1378 102.029 28.2885 102.051Z" fill="#F99303"/>
<path d="M62.7439 111.954C63.268 112.031 63.7104 112.316 64.0009 112.717C64.0705 112.811 64.1323 112.914 64.1812 113.018C63.0222 113.115 61.8527 113.176 60.6761 113.196C60.7179 113.086 60.7656 112.98 60.8253 112.879C61.2062 112.229 61.9561 111.839 62.7439 111.954Z" fill="#F99303"/>
<path d="M57.722 111.217C58.5914 111.345 59.2381 112.05 59.3327 112.89C59.3465 112.992 59.3505 113.096 59.3442 113.204C58.0821 113.196 56.8139 113.142 55.5401 113.039C55.5436 112.972 55.5502 112.905 55.5604 112.836C55.566 112.798 55.5716 112.76 55.5834 112.723C55.7857 111.739 56.7208 111.07 57.722 111.217Z" fill="#F99303"/>
<path d="M52.7004 110.479C53.7235 110.63 54.4373 111.577 54.3089 112.603C54.3097 112.62 54.3073 112.635 54.305 112.651C54.2916 112.743 54.2718 112.833 54.2431 112.92C53.5171 112.842 52.7898 112.751 52.0616 112.644C51.5438 112.568 51.03 112.486 50.5207 112.395C50.5158 112.298 50.5239 112.199 50.5388 112.098L50.5425 112.073C50.7068 111.041 51.6709 110.328 52.7004 110.479Z" fill="#F99303"/>
<path d="M47.6789 109.741C48.6926 109.89 49.4024 110.82 49.2915 111.837C49.291 111.862 49.2873 111.888 49.2835 111.913C49.2719 111.992 49.2541 112.07 49.233 112.148C47.9811 111.896 46.7487 111.599 45.538 111.263C45.5569 111.156 45.5843 111.056 45.6211 110.959C45.9312 110.136 46.7782 109.609 47.6789 109.741Z" fill="#F99303"/>
<path d="M42.6574 109.004C43.486 109.126 44.1128 109.77 44.2507 110.555C44.2726 110.668 44.2819 110.779 44.2809 110.895C43.1273 110.541 41.9923 110.149 40.878 109.723C40.9489 109.634 41.0251 109.551 41.1067 109.476C41.5132 109.11 42.0737 108.918 42.6574 109.004Z" fill="#F99303"/>
</g>
<defs>
<clipPath id="clip0_288_5600">
<rect width="105" height="106" fill="white" transform="matrix(-0.989378 -0.145366 -0.145366 0.989378 119.57 15.4248)"/>
</clipPath>
</defs>
</svg>
