<svg width="53" height="50" viewBox="0 0 53 50" fill="none" xmlns="http://www.w3.org/2000/svg">
<g opacity="0.1" clip-path="url(#clip0_288_6462)">
<path d="M50.8177 18.506L52.0491 17.4018L36.8721 0.478027C37.2855 1.65218 37.613 2.84668 37.8567 4.05328L50.8177 18.506Z" fill="#F99303"/>
<path d="M48.1362 20.9114L49.3675 19.8071L38.3228 7.49121C38.3814 8.33666 38.3998 9.18406 38.3774 10.0295L48.1362 20.9114Z" fill="#F99303"/>
<path d="M45.4544 23.3161L46.6858 22.2118L38.1694 12.7153C38.0796 13.4139 37.9619 14.1096 37.8165 14.7991L45.4544 23.3161Z" fill="#F99303"/>
<path d="M42.7725 25.7212L44.0038 24.6169L37.23 17.0635C37.0451 17.6655 36.8387 18.2611 36.6103 18.8498L42.7725 25.7212Z" fill="#F99303"/>
<path d="M40.0907 28.1263L41.322 27.022L35.7534 20.8125C35.4966 21.339 35.2211 21.8576 34.927 22.3683L40.0907 28.1263Z" fill="#F99303"/>
<path d="M37.4086 30.5315L38.6399 29.4273L33.8477 24.0835C33.5306 24.5464 33.1967 24.9998 32.847 25.4449L37.4086 30.5315Z" fill="#F99303"/>
<path d="M34.7271 32.9366L35.9585 31.8324L31.5728 26.9419C31.2009 27.3459 30.8144 27.7407 30.4126 28.1255L34.7271 32.9366Z" fill="#F99303"/>
<path d="M32.0453 35.3416L33.2767 34.2373L28.9558 29.4192C28.5264 29.7732 28.0894 30.1117 27.6437 30.4333L32.0453 35.3416Z" fill="#F99303"/>
<path d="M29.3635 37.747L30.5948 36.6427L26.0045 31.5241C25.5209 31.8199 25.0291 32.0974 24.5309 32.3582L29.3635 37.747Z" fill="#F99303"/>
<path d="M26.6811 40.1517L27.9125 39.0475L22.6951 33.2296C22.1513 33.4618 21.6005 33.6735 21.045 33.8669L26.6811 40.1517Z" fill="#F99303"/>
<path d="M23.9992 42.5568L25.2305 41.4525L18.9859 34.4893C18.3706 34.6477 17.7508 34.7823 17.1276 34.8943L23.9992 42.5568Z" fill="#F99303"/>
<path d="M21.3175 44.9621L22.5489 43.8578L14.7898 35.2058C14.0811 35.2682 13.3703 35.3026 12.6593 35.3074L21.3175 44.9621Z" fill="#F99303"/>
<path d="M18.636 47.367L19.8673 46.2627L9.93267 35.1847C9.07643 35.1026 8.22386 34.9777 7.37707 34.8123L18.636 47.367Z" fill="#F99303"/>
<path d="M15.9539 49.7722L17.1853 48.668L3.94259 33.9012C2.72387 33.4888 1.52891 32.9856 0.368277 32.3928L15.9539 49.7722Z" fill="#F99303"/>
</g>
<defs>
<clipPath id="clip0_288_6462">
<rect width="23.3443" height="48.4844" fill="white" transform="translate(36.4639 0.0224609) rotate(48.1146)"/>
</clipPath>
</defs>
</svg>
