<svg width="98" height="56" viewBox="0 0 98 56" fill="none" xmlns="http://www.w3.org/2000/svg">
<g opacity="0.1" clip-path="url(#clip0_288_6364)">
<path d="M90.23 24.5213C86.9515 24.0396 84.6842 20.9914 85.1659 17.7129C85.6476 14.4344 88.6959 12.1671 91.9744 12.6488C95.2529 13.1305 97.5202 16.1788 97.0385 19.4573C96.5568 22.7358 93.5085 25.003 90.23 24.5213Z" fill="#EA4343"/>
<path d="M74.3999 22.1957C71.1214 21.714 68.8541 18.6657 69.3358 15.3872C69.8175 12.1087 72.8658 9.84142 76.1443 10.3231C79.4228 10.8048 81.6901 13.8531 81.2084 17.1316C80.7267 20.4101 77.6784 22.6774 74.3999 22.1957Z" fill="#EA4343"/>
<path d="M58.5698 19.8695C55.2913 19.3878 53.0241 16.3395 53.5058 13.061C53.9875 9.78251 57.0357 7.51525 60.3142 7.99695C63.5927 8.47865 65.86 11.5269 65.3783 14.8054C64.8966 18.0839 61.8483 20.3512 58.5698 19.8695Z" fill="#EA4343"/>
<path d="M72.2192 37.036C68.9407 36.5543 66.6735 33.506 67.1552 30.2275C67.6369 26.949 70.6851 24.6818 73.9636 25.1635C77.2421 25.6452 79.5094 28.6934 79.0277 31.9719C78.546 35.2504 75.4978 37.5177 72.2192 37.036Z" fill="#EA4343"/>
<path d="M56.3892 34.7103C53.1107 34.2286 50.8434 31.1804 51.3251 27.9018C51.8068 24.6233 54.855 22.3561 58.1336 22.8378C61.4121 23.3195 63.6793 26.3677 63.1976 29.6462C62.7159 32.9247 59.6677 35.192 56.3892 34.7103Z" fill="#EA4343"/>
<path d="M40.5596 32.3846C37.2811 31.9029 35.0138 28.8547 35.4955 25.5762C35.9772 22.2976 39.0255 20.0304 42.304 20.5121C45.5825 20.9938 47.8497 24.042 47.368 27.3205C46.8863 30.5991 43.8381 32.8663 40.5596 32.3846Z" fill="#EA4343"/>
<path d="M70.0391 51.8768C66.7606 51.3951 64.4933 48.3469 64.975 45.0683C65.4567 41.7898 68.5049 39.5226 71.7835 40.0043C75.062 40.486 77.3292 43.5342 76.8475 46.8127C76.3658 50.0912 73.3176 52.3585 70.0391 51.8768Z" fill="#EA4343"/>
<path d="M54.209 49.5511C50.9305 49.0694 48.6632 46.0212 49.1449 42.7427C49.6266 39.4642 52.6749 37.1969 55.9534 37.6786C59.2319 38.1603 61.4992 41.2085 61.0175 44.487C60.5358 47.7656 57.4875 50.0328 54.209 49.5511Z" fill="#EA4343"/>
<path d="M38.3789 47.225C35.1004 46.7433 32.8331 43.695 33.3148 40.4165C33.7965 37.138 36.8448 34.8707 40.1233 35.3524C43.4018 35.8341 45.6691 38.8824 45.1874 42.1609C44.7057 45.4394 41.6574 47.7067 38.3789 47.225Z" fill="#EA4343"/>
<path d="M22.5488 44.8993C19.2703 44.4176 17.0031 41.3693 17.4848 38.0908C17.9665 34.8123 21.0147 32.545 24.2932 33.0267C27.5717 33.5084 29.839 36.5567 29.3573 39.8352C28.8756 43.1137 25.8273 45.381 22.5488 44.8993Z" fill="#EA4343"/>
<path d="M6.71876 42.5736C3.44025 42.0919 1.17299 39.0436 1.65468 35.7651C2.13638 32.4866 5.18464 30.2193 8.46315 30.701C11.7417 31.1827 14.0089 34.231 13.5272 37.5095C13.0455 40.788 9.99727 43.0553 6.71876 42.5736Z" fill="#EA4343"/>
</g>
<defs>
<clipPath id="clip0_288_6364">
<rect width="92" height="42" fill="white" transform="matrix(-0.989378 -0.145366 -0.145366 0.989378 97.9106 13.521)"/>
</clipPath>
</defs>
</svg>
