<svg width="41" height="60" viewBox="0 0 41 60" fill="none" xmlns="http://www.w3.org/2000/svg">
<g opacity="0.1" clip-path="url(#clip0_288_6446)">
<path d="M0.809374 10.1748L0.270273 8.41541L24.4517 1.00586C23.3834 1.88724 22.3853 2.83733 21.4601 3.8471L0.809374 10.1748Z" fill="#F99303"/>
<path d="M1.98355 14.007L1.44445 12.2476L19.042 6.85547C18.5005 7.62737 17.9964 8.42429 17.5321 9.24269L1.98355 14.007Z" fill="#F99303"/>
<path d="M3.15759 17.839L2.61849 16.0796L16.1875 11.9219C15.8719 12.6391 15.5845 13.3696 15.327 14.1101L3.15759 17.839Z" fill="#F99303"/>
<path d="M4.33182 21.6709L3.79272 19.9115L14.5854 16.6045C14.4159 17.2843 14.2704 17.9704 14.15 18.6625L4.33182 21.6709Z" fill="#F99303"/>
<path d="M5.50602 25.5029L4.96692 23.7436L13.8394 21.0249C13.7817 21.6741 13.7464 22.3264 13.7333 22.982L5.50602 25.5029Z" fill="#F99303"/>
<path d="M6.68003 29.3348L6.14093 27.5755L13.7764 25.2358C13.8126 25.859 13.8704 26.4828 13.948 27.1078L6.68003 29.3348Z" fill="#F99303"/>
<path d="M7.85413 33.1671L7.31503 31.4077L14.3027 29.2666C14.425 29.8652 14.5666 30.4633 14.7284 31.0608L7.85413 33.1671Z" fill="#F99303"/>
<path d="M9.02842 36.9991L8.48932 35.2397L15.3737 33.1303C15.5795 33.7142 15.8016 34.2877 16.0415 34.8502L9.02842 36.9991Z" fill="#F99303"/>
<path d="M10.2026 40.8311L9.66351 39.0717L16.9772 36.8307C17.2682 37.3904 17.5774 37.9371 17.9024 38.4718L10.2026 40.8311Z" fill="#F99303"/>
<path d="M11.377 44.6628L10.8379 42.9035L19.1507 40.3563C19.5355 40.8899 19.9388 41.4079 20.357 41.9112L11.377 44.6628Z" fill="#F99303"/>
<path d="M12.551 48.4945L12.0119 46.7352L21.9614 43.6865C22.4567 44.1908 22.97 44.6751 23.4995 45.1397L12.551 48.4945Z" fill="#F99303"/>
<path d="M13.7255 52.3267L13.1864 50.5674L25.5488 46.7793C26.1882 47.2459 26.8457 47.6868 27.5205 48.0997L13.7255 52.3267Z" fill="#F99303"/>
<path d="M14.8992 56.1589L14.3601 54.3995L30.1889 49.5494C31.0519 49.9629 31.9361 50.3335 32.8379 50.6622L14.8992 56.1589Z" fill="#F99303"/>
<path d="M16.0733 59.991L15.5342 58.2316L36.6337 51.7664C38.0318 52.0734 39.4594 52.2802 40.9058 52.3819L16.0733 59.991Z" fill="#F99303"/>
</g>
<defs>
<clipPath id="clip0_288_6446">
<rect width="25.9721" height="53.9421" fill="white" transform="matrix(-0.956122 0.29297 0.29297 0.956122 25.1025 0.806641)"/>
</clipPath>
</defs>
</svg>
